<svg width="1324" height="495" viewBox="0 0 1324 495" fill="none" xmlns="http://www.w3.org/2000/svg">
<g clip-path="url(#clip0)">
<path d="M652.238 321.998C694.055 321.998 734.579 310.654 766.904 289.898C799.229 269.143 821.356 240.261 829.514 208.173C837.672 176.085 831.356 142.776 811.644 113.923C791.931 85.0692 760.041 62.4559 721.407 49.9358C682.773 37.4157 639.786 35.7635 599.769 45.2607C559.752 54.7578 525.183 74.8168 501.951 102.02C478.718 129.223 468.26 161.887 472.359 194.446C476.458 227.005 494.86 257.445 524.429 280.579C541.174 293.752 561.092 304.195 583.031 311.305C604.969 318.414 628.492 322.049 652.238 321.998ZM652.238 40.0919C751.255 40.0919 831.81 103.116 831.81 180.584C831.81 258.052 751.255 321.077 652.238 321.077C553.222 321.077 472.666 258.052 472.666 180.584C472.666 103.116 553.222 40.0919 652.238 40.0919Z" fill="#3F3D56"/>
<path d="M637.013 306.383C640.36 316.063 651.825 322.058 651.825 322.058C651.825 322.058 657.863 312.359 654.516 302.678C651.169 292.998 639.704 287.003 639.704 287.003C639.704 287.003 633.666 296.702 637.013 306.383Z" fill="#6C63FF"/>
<path d="M667.463 306.383C664.116 316.063 652.651 322.058 652.651 322.058C652.651 322.058 646.613 312.359 649.96 302.678C653.307 292.998 664.772 287.003 664.772 287.003C664.772 287.003 670.81 296.702 667.463 306.383Z" fill="#6C63FF"/>
<path d="M662.545 304.302C653.36 311.297 652.238 322.05 652.238 322.05C652.238 322.05 666.008 321.462 675.192 314.467C684.377 307.472 685.499 296.719 685.499 296.719C685.499 296.719 671.729 297.307 662.545 304.302Z" fill="#3F3D56"/>
<path d="M641.932 304.302C651.116 311.297 652.238 322.05 652.238 322.05C652.238 322.05 638.469 321.462 629.284 314.467C620.1 307.472 618.978 296.719 618.978 296.719C618.978 296.719 632.747 297.307 641.932 304.302Z" fill="#3F3D56"/>
<path opacity="0.8" d="M667.463 55.3193C664.116 45.639 652.651 39.6437 652.651 39.6437C652.651 39.6437 646.613 49.3433 649.96 59.0237C653.307 68.7041 664.772 74.6993 664.772 74.6993C664.772 74.6993 670.81 64.9997 667.463 55.3193Z" fill="#78066D"/>
<path opacity="0.8" d="M637.013 55.3193C640.36 45.639 651.825 39.6437 651.825 39.6437C651.825 39.6437 657.863 49.3433 654.516 59.0237C651.169 68.7041 639.704 74.6993 639.704 74.6993C639.704 74.6993 633.666 64.9997 637.013 55.3193Z" fill="#78066D"/>
<path opacity="0.6" d="M641.932 57.3998C651.116 50.4047 652.238 39.6516 652.238 39.6516C652.238 39.6516 638.469 40.2398 629.284 47.2349C620.1 54.23 618.978 64.983 618.978 64.983C618.978 64.983 632.747 64.3948 641.932 57.3998Z" fill="#067863"/>
<path opacity="0.6" d="M662.545 57.3998C653.36 50.4047 652.238 39.6516 652.238 39.6516C652.238 39.6516 666.008 40.2398 675.192 47.2349C684.377 54.23 685.499 64.983 685.499 64.983C685.499 64.983 671.729 64.3948 662.545 57.3998Z" fill="#067863"/>
<path opacity="0.9" d="M317.775 142.159H551.781V328.331H317.775V142.159Z" fill="#78066D"/>
<path d="M326.617 146.884H535.075H546.89V156.789V321.201H535.075V156.789H326.617V146.884Z" fill="#3F3D56"/>
<path opacity="0.3" d="M326.617 146.884H535.075H546.89V156.789V321.201H535.075V156.789H326.617V146.884Z" fill="#78066D"/>
<path opacity="0.1" d="M360.788 156.822H370.072H535.488V180.592H370.072V321.234H327.03V156.822H360.788Z" fill="white"/>
<path d="M560.393 136.32V331.766H313.114V136.32H560.393ZM326.617 321.201H546.89V146.884H326.617V321.201Z" fill="#3F3D56"/>
<path d="M497.399 339.631C497.399 339.631 506.201 356.581 511.153 360.408C516.104 364.235 503.175 368.883 503.175 368.883L488.047 345.372L497.399 339.631Z" fill="#A0616A"/>
<path d="M444.035 298.35C444.035 298.35 485.021 309.012 488.597 316.12C492.173 323.228 503.175 340.451 503.175 340.451L486.946 353.3L470.992 329.516L426.981 309.832L444.035 298.35Z" fill="#2F2E41"/>
<path d="M501.8 362.048C501.8 362.048 497.949 358.768 496.849 360.955C495.749 363.142 492.448 374.35 492.448 374.35C492.448 374.35 497.124 378.725 506.751 375.991C506.751 375.991 509.227 374.077 513.078 375.991C516.929 377.904 531.233 374.077 530.683 367.789C530.133 361.502 515.554 362.048 515.554 362.048C515.554 362.048 509.413 355.211 508.632 357.81C507.852 360.408 508.952 360.681 508.952 360.681C508.952 360.681 504.001 365.876 501.8 362.048Z" fill="#2F2E41"/>
<path d="M454.763 356.307L452.012 379.271H465.491C465.491 379.271 464.39 361.501 464.665 359.314C464.94 357.127 454.763 356.307 454.763 356.307Z" fill="#A0616A"/>
<path d="M462.465 305.732C462.465 305.732 469.892 316.667 465.491 317.487C461.089 318.307 457.513 305.732 457.513 305.732H462.465Z" fill="#A0616A"/>
<path d="M406.35 304.638C406.35 304.638 400.849 320.768 422.579 325.142C444.31 329.516 450.912 333.07 450.912 333.07L453.663 360.955L472.643 362.048C472.643 362.048 481.72 319.674 469.892 314.207C458.064 308.739 433.032 302.451 433.032 302.451L406.35 304.638Z" fill="#2F2E41"/>
<path d="M453.662 375.717C453.662 375.717 457.514 373.804 458.064 373.804C458.064 373.804 460.481 368.261 464.912 368.845L474.568 382.825C474.568 382.825 489.147 393.214 478.969 395.948C468.791 398.681 460.814 396.494 460.814 396.494L456.688 393.487C456.688 393.487 457.238 390.48 453.662 391.027C453.662 391.027 446.236 388.019 446.511 385.832C446.786 383.645 452.628 374.126 452.628 374.126L453.662 375.717Z" fill="#2F2E41"/>
<path d="M456.001 251.465C462.077 251.465 467.003 246.57 467.003 240.53C467.003 234.491 462.077 229.595 456.001 229.595C449.924 229.595 444.998 234.491 444.998 240.53C444.998 246.57 449.924 251.465 456.001 251.465Z" fill="#A0616A"/>
<path d="M447.061 237.113C447.061 237.113 437.158 244.221 435.233 244.494C433.307 244.768 444.31 258.163 444.31 258.163C444.31 258.163 449.536 249.689 452.837 248.595C456.138 247.502 447.061 237.113 447.061 237.113Z" fill="#A0616A"/>
<path d="M439.634 246.134C439.634 246.134 435.508 240.667 433.032 240.667C430.556 240.667 408.276 243.127 406.35 261.444C404.425 279.76 405.525 311.746 405.525 311.746C405.525 311.746 403.874 303.818 422.304 307.099C422.304 307.099 444.31 302.451 448.161 302.451C452.012 302.451 453.663 263.358 453.663 263.358L447.399 253.707C447.399 253.707 444.585 258.983 439.634 246.134Z" fill="#D0CDE1"/>
<path d="M449.536 261.171L453.663 263.358L458.614 293.43L465.491 309.012C465.491 309.012 458.064 306.471 457.514 309.519L446.511 293.703L449.536 261.171Z" fill="#D0CDE1"/>
<path d="M453.527 231.562L459.513 232.305C459.398 233.516 459.43 235.016 460.509 235.588C461.017 235.857 461.661 235.844 462.11 236.2C463.192 237.057 462.134 238.9 462.745 240.134L464.495 240.594C464.706 240.985 464.992 241.331 465.337 241.612C465.682 241.893 466.08 242.103 466.508 242.23C466.935 242.358 467.383 242.4 467.827 242.354C468.271 242.309 468.701 242.176 469.094 241.965C470.27 241.263 470.87 239.921 471.399 238.663C472.031 237.16 472.677 235.545 472.36 233.946C472.02 232.229 470.608 230.802 470.544 229.052C470.515 228.27 470.682 227.294 470.018 226.872C469.712 226.729 469.384 226.643 469.047 226.616C467.518 226.299 466.666 224.726 465.526 223.665C463.136 221.441 459.466 221.499 456.198 221.693C455.262 221.697 454.334 221.857 453.453 222.169C452.456 222.665 451.575 223.364 450.866 224.218C449.114 226.076 447.408 228.022 446.251 230.295C445.095 232.567 444.526 235.223 445.154 237.692C445.092 237.454 447.172 235.9 447.431 235.65C448.244 234.868 448.318 234.494 448.758 233.594C449.784 231.496 451.21 231.274 453.527 231.562Z" fill="#2F2E41"/>
<path opacity="0.1" d="M435.92 266.775L436.746 285.912L448.981 300.172L437.846 284.271L435.92 266.775Z" fill="black"/>
<path opacity="0.1" d="M413.915 271.969L423.542 294.113L435.92 304.228L422.717 295.207L413.915 271.969Z" fill="black"/>
<path d="M466.21 289.917L472.028 293.894C472.317 294.121 472.52 294.44 472.601 294.798C472.682 295.156 472.636 295.53 472.472 295.859L471.694 297.454L471.874 297.577L470.99 299.391L470.81 299.267L464.402 312.409C464.336 312.582 464.231 312.738 464.096 312.865C463.96 312.992 463.798 313.087 463.621 313.143C463.444 313.199 463.256 313.215 463.072 313.19C462.887 313.164 462.711 313.098 462.556 312.995L457.089 309.258C456.756 308.997 456.524 308.63 456.431 308.219C456.337 307.807 456.39 307.377 456.578 306.999L464.669 290.407C464.724 290.262 464.812 290.132 464.925 290.026C465.038 289.92 465.173 289.841 465.321 289.794C465.469 289.747 465.626 289.734 465.78 289.755C465.934 289.776 466.081 289.832 466.21 289.917Z" fill="#3F3D56"/>
<path d="M457.181 306.854L463.442 311.135L471.61 294.383L465.348 290.102L457.181 306.854Z" fill="white"/>
<path d="M454.462 303.167C454.462 303.167 465.374 310.681 461.571 313.032C457.769 315.382 449.848 304.951 449.848 304.951L454.462 303.167Z" fill="#A0616A"/>
<path d="M422.029 247.501C422.029 247.501 407.725 251.602 411.852 264.178C412.847 267.211 414.05 270.467 415.303 273.662C419.245 283.712 423.68 293.156 423.68 293.156L436.113 304.329L452.837 309.012L454.763 307.372C454.763 307.372 455.313 302.178 452.837 301.631C450.362 301.084 446.511 298.897 446.511 298.897L436.608 284.408C436.608 284.408 436.333 248.321 422.029 247.501Z" fill="#D0CDE1"/>
<path d="M966.787 191.729L738.352 191.729V9.98964L966.787 9.98964V191.729Z" fill="#067863"/>
<path opacity="0.5" d="M958.155 14.6025H754.661H743.127V24.2712V184.769H754.661V24.2712H958.155V14.6025Z" fill="#067863"/>
<path opacity="0.3" d="M958.155 14.6025H754.661H743.127V24.2712V184.769H754.661V24.2712H958.155V14.6025Z" fill="#067863"/>
<path opacity="0.1" d="M925.2 24.2712H916.138H754.661V47.4755H916.138V184.769H958.155V24.2712H925.2Z" fill="white"/>
<path d="M971.337 4.28931V195.082H729.945V4.28931H971.337ZM958.155 14.6024H743.127V184.769H958.155V14.6024Z" fill="#3F3D56"/>
<path d="M823.962 94.5997C828.891 87.7954 838.643 87.4783 838.643 87.4783C838.643 87.4783 848.145 86.4855 854.241 96.8485C859.923 106.508 867.765 115.834 855.504 118.095L853.289 112.463L851.918 118.514C850.172 118.617 848.42 118.641 846.672 118.587C833.541 118.241 821.036 118.689 821.439 114.839C821.974 109.722 819.22 101.147 823.962 94.5997Z" fill="#2F2E41"/>
<path d="M833.335 110.789C833.335 110.789 835.103 117.063 832.628 117.633C830.67 118.157 828.777 118.825 826.972 119.63L824.144 127.045V134.46L858.435 137.597L859.495 135.03V131.323L855.606 125.619L853.839 124.193C853.839 124.193 846.062 117.348 847.829 110.789H833.335Z" fill="#A0616A"/>
<path d="M837.379 93.1932C833.531 93.1932 830.411 90.6231 830.411 87.4527C830.411 84.2824 833.531 81.7123 837.379 81.7123C841.227 81.7123 844.346 84.2824 844.346 87.4527C844.346 90.6231 841.227 93.1932 837.379 93.1932Z" fill="#2F2E41"/>
<path d="M840.405 114.211C846.848 114.211 852.071 109.997 852.071 104.8C852.071 99.6018 846.848 95.3882 840.405 95.3882C833.962 95.3882 828.739 99.6018 828.739 104.8C828.739 109.997 833.962 114.211 840.405 114.211Z" fill="#A0616A"/>
<path d="M845.014 84.9023C844.49 83.562 843.186 82.5124 841.353 81.9556C839.52 81.3988 837.287 81.3742 835.085 81.8866C835.383 81.7734 835.686 81.6698 835.994 81.576C838.312 80.8703 840.758 80.7653 842.795 81.2841C844.832 81.8028 846.292 82.9028 846.854 84.3421C847.416 85.7814 847.035 87.4421 845.793 88.9588C844.551 90.4755 842.552 91.724 840.233 92.4297C839.926 92.523 839.615 92.6063 839.302 92.6793C841.393 91.8846 843.134 90.6505 844.189 89.2146C845.243 87.7788 845.537 86.2427 845.014 84.9023Z" fill="#2F2E41"/>
<path d="M826.223 93.9866L835.806 89.9128L849.04 91.5795L851.778 101.394L844.962 101.181L843.058 97.5755V101.122L839.913 101.023L838.088 95.2828L836.947 101.394L825.767 101.209L826.223 93.9866Z" fill="#2F2E41"/>
<path d="M822.2 150.858L821.139 166.259L852.248 168.826L853.309 152.855L842.703 147.436L822.2 150.858Z" fill="#A0616A"/>
<path d="M905.806 184.654C904.873 177.378 867.836 174.076 858.935 173.386L855.606 171.82L854.546 162.694C854.546 162.694 821.669 160.412 819.194 160.127C816.72 159.842 814.599 163.549 814.599 164.405C814.599 165.023 814.136 169.439 812.279 172.056C808.268 174.656 796.039 182.838 796.039 185.937C796.039 189.645 805.761 236.274 805.761 236.274L806.821 245.971L816.72 247.396L816.013 217.166C816.013 217.166 819.548 199.769 814.599 194.921V192.924C814.599 192.924 829.115 189.873 834.231 186.551C835.713 186.294 839.879 185.661 842.18 186.212C842.496 186.362 842.859 186.516 843.264 186.672C843.316 186.71 843.365 186.75 843.41 186.793L843.45 186.743C850.068 189.243 867.046 192.395 873.989 191.498C879.344 190.839 884.819 191.642 889.544 193.78C885.655 197.773 888.483 209.181 888.483 209.181L888.837 233.707L893.786 238.555H900.503V225.151C900.503 225.151 906.866 192.924 905.806 184.654Z" fill="#2F2E41"/>
<path d="M863.914 133.462C863.914 133.462 864.975 143.443 863.914 148.006C862.853 152.57 863.207 159.414 863.207 159.414L855.43 158.273V142.873L857.197 134.602L863.914 133.462Z" fill="#A0616A"/>
<path d="M816.17 236.393C816.17 236.393 821.186 238.298 822.662 239.012C824.137 239.726 830.039 238.298 828.858 242.583C827.678 246.868 822.662 250.915 822.662 250.915C822.662 250.915 820.301 253.057 820.301 254.485C820.301 255.914 814.399 266.864 807.317 266.388C800.235 265.912 801.416 260.199 801.416 260.199L802.891 254.009C802.891 254.009 805.842 243.535 806.432 243.773C807.022 244.011 808.498 245.677 808.498 245.677C808.498 245.677 815.875 243.297 816.17 236.393Z" fill="#D0CDE1"/>
<path d="M889.74 229.263C889.74 229.263 884.724 231.168 883.249 231.882C881.773 232.596 875.871 231.168 877.052 235.453C878.232 239.738 883.249 243.785 883.249 243.785C883.249 243.785 885.609 245.927 885.609 247.356C885.609 248.784 891.511 259.734 898.593 259.258C905.675 258.782 904.494 253.069 904.494 253.069L903.019 246.879C903.019 246.879 900.068 236.405 899.478 236.643C898.888 236.881 897.412 238.548 897.412 238.548C897.412 238.548 890.035 236.167 889.74 229.263Z" fill="#D0CDE1"/>
<path d="M850.846 161.409V159.146H850.223V158.14C850.223 157.908 850.166 157.68 850.057 157.466C849.947 157.252 849.786 157.058 849.584 156.895C849.381 156.731 849.141 156.602 848.876 156.513C848.611 156.425 848.327 156.379 848.041 156.379H840.559C839.981 156.379 839.426 156.565 839.016 156.895C838.607 157.225 838.377 157.673 838.377 158.14V174.989C838.377 175.456 838.607 175.904 839.016 176.234C839.426 176.564 839.981 176.749 840.559 176.749H848.041C848.62 176.749 849.175 176.564 849.584 176.234C849.993 175.904 850.223 175.456 850.223 174.989V164.427H850.846V162.163H850.223V161.409H850.846Z" fill="#D0CDE1"/>
<path d="M844.612 162.415C845.3 162.415 845.859 161.965 845.859 161.409C845.859 160.853 845.3 160.403 844.612 160.403C843.923 160.403 843.365 160.853 843.365 161.409C843.365 161.965 843.923 162.415 844.612 162.415Z" fill="#3F3D56"/>
<path d="M813.361 128.613L806.998 149.718C806.998 149.718 804.524 154.281 810.18 157.133C815.836 159.985 828.563 163.692 828.563 163.692C828.563 163.692 839.875 176.241 841.289 171.107C842.703 165.974 832.805 159.414 832.805 159.414L815.483 150.573L822.199 135.743L813.361 128.613Z" fill="#A0616A"/>
<path d="M859.318 155.136C859.318 155.136 864.621 154.566 864.268 159.414C863.914 164.262 856.844 164.833 856.844 164.833C856.844 164.833 853.662 175.67 849.066 173.674C844.471 171.677 851.541 160.84 851.541 160.84L857.551 157.133L859.318 155.136Z" fill="#A0616A"/>
<path d="M825.204 126.76L830.86 117.348L819.548 120.485C819.548 120.485 813.185 123.052 812.831 129.041C812.478 135.03 820.962 138.167 820.962 138.167C820.962 138.167 822.376 146.723 821.669 147.864C820.962 149.005 821.669 153.568 821.669 153.568C821.669 153.568 835.279 150.573 841.996 154.281C848.713 157.988 854.192 155.849 854.192 155.849C854.192 155.849 853.839 148.719 856.667 147.579C859.495 146.438 861.97 141.019 859.495 137.597C859.495 137.597 865.151 138.167 864.798 133.889C864.444 129.611 861.616 125.904 857.021 124.193C852.425 122.482 851.917 122.208 851.917 122.208L858.435 131.893V134.46C858.435 134.46 846.896 128.518 835.481 128.023C831.756 127.886 828.099 128.857 825.204 130.752L825.204 130.752V126.76Z" fill="#2F2E41"/>
</g>
<path opacity="0.1" d="M324.5 490.287C503.716 490.287 649 478.34 649 463.603C649 448.865 503.716 436.918 324.5 436.918C145.284 436.918 0 448.865 0 463.603C0 478.34 145.284 490.287 324.5 490.287Z" fill="#6C63FF"/>
<path d="M379 466.399C379 466.399 385.45 466.341 387.394 465.937C389.338 465.533 397.315 465.05 397.797 465.698C398.28 466.346 407.49 468.922 400.209 468.939C392.927 468.956 383.289 468.608 381.349 468.263C379.409 467.918 379 466.399 379 466.399Z" fill="#A8A8A8"/>
<path d="M445 460.808C445 460.808 449.569 460.764 450.946 460.461C452.322 460.158 457.973 459.796 458.315 460.282C458.656 460.768 465.181 462.7 460.023 462.713C454.865 462.725 448.038 462.464 446.664 462.206C445.289 461.947 445 460.808 445 460.808Z" fill="#A8A8A8"/>
<path d="M398 482.029C398 482.029 409.556 481.942 413.039 481.336C416.521 480.729 430.815 480.006 431.679 480.978C432.543 481.95 449.045 485.813 435.999 485.838C422.952 485.864 405.684 485.342 402.208 484.824C398.732 484.307 398 482.029 398 482.029Z" fill="#A8A8A8"/>
<path d="M215.046 469.537L212.933 468.541C212.933 468.541 211.945 472.033 212.268 474.522C212.3 474.774 212.422 475.012 212.619 475.204C212.816 475.395 213.077 475.531 213.368 475.593C218.229 476.615 241.395 480.97 257.326 474.836C257.557 474.747 257.757 474.608 257.905 474.434C258.054 474.259 258.146 474.055 258.173 473.841C258.368 472.312 257.677 469.156 257.4 468.541C256.806 467.217 215.046 469.537 215.046 469.537Z" fill="#FBD56F"/>
<path opacity="0.1" d="M215.046 469.537L212.933 468.541C212.933 468.541 211.945 472.033 212.268 474.522C212.3 474.774 212.422 475.012 212.619 475.204C212.816 475.395 213.077 475.531 213.368 475.593C218.229 476.615 241.395 480.97 257.326 474.836C257.557 474.747 257.757 474.608 257.905 474.434C258.054 474.259 258.146 474.055 258.173 473.841C258.368 472.312 257.677 469.156 257.4 468.541C256.806 467.217 215.046 469.537 215.046 469.537Z" fill="black"/>
<path d="M235.167 472.785C247.446 472.785 257.4 470.885 257.4 468.541C257.4 466.197 247.446 464.297 235.167 464.297C222.887 464.297 212.933 466.197 212.933 468.541C212.933 470.885 222.887 472.785 235.167 472.785Z" fill="#FBD56F"/>
<path d="M223.54 463.276L221.427 462.279C221.427 462.279 220.439 465.772 220.762 468.26C220.794 468.513 220.917 468.751 221.113 468.942C221.31 469.134 221.572 469.27 221.863 469.331C226.723 470.353 249.89 474.708 265.821 468.575C266.052 468.485 266.251 468.347 266.4 468.172C266.548 467.998 266.64 467.794 266.667 467.58C266.863 466.05 266.171 462.894 265.895 462.279C265.301 460.956 223.54 463.276 223.54 463.276Z" fill="#FBD56F"/>
<path opacity="0.1" d="M223.54 463.276L221.427 462.279C221.427 462.279 220.439 465.772 220.762 468.26C220.794 468.513 220.917 468.751 221.113 468.942C221.31 469.134 221.572 469.27 221.863 469.331C226.723 470.353 249.89 474.708 265.821 468.575C266.052 468.485 266.251 468.347 266.4 468.172C266.548 467.998 266.64 467.794 266.667 467.58C266.863 466.05 266.171 462.894 265.895 462.279C265.301 460.956 223.54 463.276 223.54 463.276Z" fill="black"/>
<path d="M243.661 466.523C255.941 466.523 265.895 464.623 265.895 462.279C265.895 459.936 255.941 458.036 243.661 458.036C231.382 458.036 221.428 459.936 221.428 462.279C221.428 464.623 231.382 466.523 243.661 466.523Z" fill="#FBD56F"/>
<path d="M231.05 455.046L228.937 454.05C228.937 454.05 227.949 457.542 228.272 460.031C228.304 460.283 228.426 460.521 228.623 460.713C228.82 460.904 229.081 461.04 229.372 461.102C234.233 462.124 257.4 466.479 273.33 460.345C273.561 460.256 273.761 460.117 273.909 459.943C274.058 459.768 274.15 459.564 274.177 459.35C274.372 457.821 273.681 454.665 273.405 454.05C272.81 452.727 231.05 455.046 231.05 455.046Z" fill="#FBD56F"/>
<path opacity="0.1" d="M231.05 455.046L228.937 454.05C228.937 454.05 227.949 457.542 228.272 460.031C228.304 460.283 228.426 460.521 228.623 460.713C228.82 460.904 229.081 461.04 229.372 461.102C234.233 462.124 257.4 466.479 273.33 460.345C273.561 460.256 273.761 460.117 273.909 459.943C274.058 459.768 274.15 459.564 274.177 459.35C274.372 457.821 273.681 454.665 273.405 454.05C272.81 452.727 231.05 455.046 231.05 455.046Z" fill="black"/>
<path d="M251.171 458.294C263.45 458.294 273.405 456.394 273.405 454.05C273.405 451.706 263.45 449.806 251.171 449.806C238.891 449.806 228.937 451.706 228.937 454.05C228.937 456.394 238.891 458.294 251.171 458.294Z" fill="#FBD56F"/>
<path d="M222.734 446.479L220.621 445.483C220.621 445.483 219.633 448.976 219.956 451.464C219.987 451.717 220.11 451.955 220.307 452.146C220.504 452.338 220.765 452.474 221.056 452.535C225.917 453.557 249.083 457.912 265.014 451.778C265.245 451.689 265.445 451.551 265.593 451.376C265.742 451.202 265.834 450.998 265.861 450.784C266.056 449.254 265.364 446.098 265.088 445.483C264.494 444.16 222.734 446.479 222.734 446.479Z" fill="#FBD56F"/>
<path opacity="0.1" d="M222.734 446.479L220.621 445.483C220.621 445.483 219.633 448.976 219.956 451.464C219.987 451.717 220.11 451.955 220.307 452.146C220.504 452.338 220.765 452.474 221.056 452.535C225.917 453.557 249.083 457.912 265.014 451.778C265.245 451.689 265.445 451.551 265.593 451.376C265.742 451.202 265.834 450.998 265.861 450.784C266.056 449.254 265.364 446.098 265.088 445.483C264.494 444.16 222.734 446.479 222.734 446.479Z" fill="black"/>
<path d="M242.854 449.727C255.134 449.727 265.088 447.827 265.088 445.483C265.088 443.14 255.134 441.24 242.854 441.24C230.575 441.24 220.621 443.14 220.621 445.483C220.621 447.827 230.575 449.727 242.854 449.727Z" fill="#FBD56F"/>
<path d="M241.442 439.605L239.33 438.608C239.33 438.608 238.341 442.101 238.664 444.589C238.696 444.842 238.819 445.08 239.016 445.271C239.212 445.463 239.474 445.599 239.765 445.66C244.625 446.682 267.792 451.037 283.723 444.903C283.954 444.814 284.153 444.676 284.302 444.501C284.45 444.327 284.542 444.122 284.569 443.909C284.765 442.379 284.073 439.223 283.797 438.608C283.203 437.285 241.442 439.605 241.442 439.605Z" fill="#FBD56F"/>
<path opacity="0.1" d="M241.442 439.605L239.33 438.608C239.33 438.608 238.341 442.101 238.664 444.589C238.696 444.842 238.819 445.08 239.016 445.271C239.212 445.463 239.474 445.599 239.765 445.66C244.625 446.682 267.792 451.037 283.723 444.903C283.954 444.814 284.153 444.676 284.302 444.501C284.45 444.327 284.542 444.122 284.569 443.909C284.765 442.379 284.073 439.223 283.797 438.608C283.203 437.285 241.442 439.605 241.442 439.605Z" fill="black"/>
<path d="M261.563 442.852C273.843 442.852 283.797 440.952 283.797 438.608C283.797 436.264 273.843 434.364 261.563 434.364C249.284 434.364 239.33 436.264 239.33 438.608C239.33 440.952 249.284 442.852 261.563 442.852Z" fill="#FBD56F"/>
<path d="M228.802 434.984L226.689 433.988C226.689 433.988 225.701 437.48 226.024 439.969C226.056 440.221 226.178 440.459 226.375 440.651C226.572 440.842 226.833 440.978 227.124 441.04C231.985 442.062 255.151 446.416 271.082 440.283C271.313 440.194 271.513 440.055 271.661 439.88C271.81 439.706 271.902 439.502 271.929 439.288C272.124 437.759 271.433 434.603 271.157 433.988C270.562 432.664 228.802 434.984 228.802 434.984Z" fill="#FBD56F"/>
<path opacity="0.1" d="M228.802 434.984L226.689 433.988C226.689 433.988 225.701 437.48 226.024 439.969C226.056 440.221 226.178 440.459 226.375 440.651C226.572 440.842 226.833 440.978 227.124 441.04C231.985 442.062 255.151 446.416 271.082 440.283C271.313 440.194 271.513 440.055 271.661 439.88C271.81 439.706 271.902 439.502 271.929 439.288C272.124 437.759 271.433 434.603 271.157 433.988C270.562 432.664 228.802 434.984 228.802 434.984Z" fill="black"/>
<path d="M248.923 438.231C261.202 438.231 271.156 436.331 271.156 433.987C271.156 431.644 261.202 429.744 248.923 429.744C236.643 429.744 226.689 431.644 226.689 433.987C226.689 436.331 236.643 438.231 248.923 438.231Z" fill="#FBD56F"/>
<path d="M237.241 426.063L235.128 425.067C235.128 425.067 234.14 428.559 234.463 431.048C234.495 431.3 234.618 431.538 234.814 431.73C235.011 431.921 235.273 432.057 235.563 432.119C240.424 433.141 263.591 437.496 279.522 431.362C279.753 431.273 279.952 431.134 280.101 430.96C280.249 430.785 280.341 430.581 280.368 430.367C280.564 428.838 279.872 425.682 279.596 425.067C279.002 423.744 237.241 426.063 237.241 426.063Z" fill="#FBD56F"/>
<path opacity="0.1" d="M237.241 426.063L235.128 425.067C235.128 425.067 234.14 428.559 234.463 431.048C234.495 431.3 234.618 431.538 234.814 431.73C235.011 431.921 235.273 432.057 235.563 432.119C240.424 433.141 263.591 437.496 279.522 431.362C279.753 431.273 279.952 431.134 280.101 430.96C280.249 430.785 280.341 430.581 280.368 430.367C280.564 428.838 279.872 425.682 279.596 425.067C279.002 423.744 237.241 426.063 237.241 426.063Z" fill="black"/>
<path d="M257.362 429.311C269.641 429.311 279.596 427.411 279.596 425.067C279.596 422.723 269.641 420.823 257.362 420.823C245.083 420.823 235.128 422.723 235.128 425.067C235.128 427.411 245.083 429.311 257.362 429.311Z" fill="#FBD56F"/>
<path d="M241.404 415.475L239.291 414.478C239.291 414.478 238.303 417.971 238.626 420.459C238.658 420.712 238.781 420.95 238.977 421.141C239.174 421.333 239.436 421.469 239.726 421.53C244.587 422.552 267.754 426.907 283.684 420.773C283.915 420.684 284.115 420.546 284.264 420.371C284.412 420.197 284.504 419.992 284.531 419.779C284.727 418.249 284.035 415.093 283.759 414.478C283.164 413.155 241.404 415.475 241.404 415.475Z" fill="#FBD56F"/>
<path opacity="0.1" d="M241.404 415.475L239.291 414.478C239.291 414.478 238.303 417.971 238.626 420.459C238.658 420.712 238.781 420.95 238.977 421.141C239.174 421.333 239.436 421.469 239.726 421.53C244.587 422.552 267.754 426.907 283.684 420.773C283.915 420.684 284.115 420.546 284.264 420.371C284.412 420.197 284.504 419.992 284.531 419.779C284.727 418.249 284.035 415.093 283.759 414.478C283.164 413.155 241.404 415.475 241.404 415.475Z" fill="black"/>
<path d="M261.525 418.722C273.804 418.722 283.759 416.822 283.759 414.478C283.759 412.135 273.804 410.234 261.525 410.234C249.246 410.234 239.291 412.135 239.291 414.478C239.291 416.822 249.246 418.722 261.525 418.722Z" fill="#FBD56F"/>
<path d="M278.937 471.993L276.824 470.997C276.824 470.997 275.835 474.489 276.158 476.977C276.19 477.23 276.313 477.468 276.51 477.66C276.706 477.851 276.968 477.987 277.259 478.048C282.119 479.071 305.286 483.425 321.217 477.292C321.448 477.202 321.647 477.064 321.796 476.889C321.944 476.715 322.037 476.511 322.064 476.297C322.259 474.768 321.567 471.611 321.291 470.997C320.697 469.673 278.937 471.993 278.937 471.993Z" fill="#FBD56F"/>
<path opacity="0.1" d="M278.937 471.993L276.824 470.997C276.824 470.997 275.835 474.489 276.158 476.977C276.19 477.23 276.313 477.468 276.51 477.66C276.706 477.851 276.968 477.987 277.259 478.048C282.119 479.071 305.286 483.425 321.217 477.292C321.448 477.202 321.647 477.064 321.796 476.889C321.944 476.715 322.037 476.511 322.064 476.297C322.259 474.768 321.567 471.611 321.291 470.997C320.697 469.673 278.937 471.993 278.937 471.993Z" fill="black"/>
<path d="M299.058 475.24C311.337 475.24 321.291 473.34 321.291 470.997C321.291 468.653 311.337 466.753 299.058 466.753C286.778 466.753 276.824 468.653 276.824 470.997C276.824 473.34 286.778 475.24 299.058 475.24Z" fill="#FBD56F"/>
<path d="M286.446 463.763L284.333 462.767C284.333 462.767 283.345 466.26 283.668 468.748C283.7 469.001 283.823 469.239 284.019 469.43C284.216 469.622 284.478 469.757 284.768 469.819C289.629 470.841 312.796 475.196 328.727 469.062C328.958 468.973 329.157 468.834 329.306 468.66C329.454 468.486 329.546 468.281 329.573 468.068C329.769 466.538 329.077 463.382 328.801 462.767C328.207 461.444 286.446 463.763 286.446 463.763Z" fill="#FBD56F"/>
<path opacity="0.1" d="M286.446 463.763L284.333 462.767C284.333 462.767 283.345 466.26 283.668 468.748C283.7 469.001 283.823 469.239 284.019 469.43C284.216 469.622 284.478 469.757 284.768 469.819C289.629 470.841 312.796 475.196 328.727 469.062C328.958 468.973 329.157 468.834 329.306 468.66C329.454 468.486 329.546 468.281 329.573 468.068C329.769 466.538 329.077 463.382 328.801 462.767C328.207 461.444 286.446 463.763 286.446 463.763Z" fill="black"/>
<path d="M306.567 467.011C318.846 467.011 328.801 465.111 328.801 462.767C328.801 460.423 318.846 458.523 306.567 458.523C294.288 458.523 284.333 460.423 284.333 462.767C284.333 465.111 294.288 467.011 306.567 467.011Z" fill="#FBD56F"/>
<path d="M278.13 455.197L276.017 454.2C276.017 454.2 275.029 457.693 275.352 460.181C275.384 460.434 275.506 460.672 275.703 460.863C275.9 461.055 276.161 461.191 276.452 461.252C281.313 462.274 304.479 466.629 320.41 460.495C320.641 460.406 320.841 460.268 320.989 460.093C321.138 459.919 321.23 459.715 321.257 459.501C321.452 457.971 320.761 454.815 320.484 454.2C319.89 452.877 278.13 455.197 278.13 455.197Z" fill="#FBD56F"/>
<path opacity="0.1" d="M278.13 455.197L276.017 454.2C276.017 454.2 275.029 457.693 275.352 460.181C275.384 460.434 275.506 460.672 275.703 460.863C275.9 461.055 276.161 461.191 276.452 461.252C281.313 462.274 304.479 466.629 320.41 460.495C320.641 460.406 320.841 460.268 320.989 460.093C321.138 459.919 321.23 459.715 321.257 459.501C321.452 457.971 320.761 454.815 320.484 454.2C319.89 452.877 278.13 455.197 278.13 455.197Z" fill="black"/>
<path d="M298.251 458.444C310.53 458.444 320.484 456.544 320.484 454.2C320.484 451.857 310.53 449.957 298.251 449.957C285.971 449.957 276.017 451.857 276.017 454.2C276.017 456.544 285.971 458.444 298.251 458.444Z" fill="#FBD56F"/>
<path d="M296.839 448.322L294.726 447.325C294.726 447.325 293.738 450.818 294.061 453.306C294.092 453.559 294.215 453.797 294.412 453.988C294.609 454.18 294.87 454.316 295.161 454.377C300.022 455.399 323.188 459.754 339.119 453.621C339.35 453.531 339.55 453.393 339.698 453.218C339.847 453.044 339.939 452.84 339.966 452.626C340.161 451.096 339.469 447.94 339.193 447.325C338.599 446.002 296.839 448.322 296.839 448.322Z" fill="#FBD56F"/>
<path opacity="0.1" d="M296.839 448.322L294.726 447.325C294.726 447.325 293.738 450.818 294.061 453.306C294.092 453.559 294.215 453.797 294.412 453.988C294.609 454.18 294.87 454.316 295.161 454.377C300.022 455.399 323.188 459.754 339.119 453.621C339.35 453.531 339.55 453.393 339.698 453.218C339.847 453.044 339.939 452.84 339.966 452.626C340.161 451.096 339.469 447.94 339.193 447.325C338.599 446.002 296.839 448.322 296.839 448.322Z" fill="black"/>
<path d="M316.96 451.569C329.239 451.569 339.193 449.669 339.193 447.326C339.193 444.982 329.239 443.082 316.96 443.082C304.68 443.082 294.726 444.982 294.726 447.326C294.726 449.669 304.68 451.569 316.96 451.569Z" fill="#FBD56F"/>
<path d="M284.198 443.701L282.085 442.705C282.085 442.705 281.097 446.197 281.42 448.686C281.452 448.938 281.575 449.176 281.771 449.368C281.968 449.559 282.23 449.695 282.52 449.756C287.381 450.779 310.548 455.133 326.479 449C326.71 448.91 326.909 448.772 327.058 448.597C327.206 448.423 327.298 448.219 327.325 448.005C327.521 446.476 326.829 443.319 326.553 442.705C325.959 441.381 284.198 443.701 284.198 443.701Z" fill="#FBD56F"/>
<path opacity="0.1" d="M284.198 443.701L282.085 442.705C282.085 442.705 281.097 446.197 281.42 448.686C281.452 448.938 281.575 449.176 281.771 449.368C281.968 449.559 282.23 449.695 282.52 449.756C287.381 450.779 310.548 455.133 326.479 449C326.71 448.91 326.909 448.772 327.058 448.597C327.206 448.423 327.298 448.219 327.325 448.005C327.521 446.476 326.829 443.319 326.553 442.705C325.959 441.381 284.198 443.701 284.198 443.701Z" fill="black"/>
<path d="M304.319 446.949C316.598 446.949 326.553 445.049 326.553 442.705C326.553 440.361 316.598 438.461 304.319 438.461C292.04 438.461 282.085 440.361 282.085 442.705C282.085 445.049 292.04 446.949 304.319 446.949Z" fill="#FBD56F"/>
<path d="M292.638 434.78L290.525 433.784C290.525 433.784 289.536 437.276 289.859 439.765C289.891 440.017 290.014 440.255 290.211 440.447C290.407 440.638 290.669 440.774 290.96 440.836C295.82 441.858 318.987 446.213 334.918 440.079C335.149 439.99 335.348 439.851 335.497 439.677C335.645 439.502 335.738 439.298 335.765 439.084C335.96 437.555 335.268 434.399 334.992 433.784C334.398 432.461 292.638 434.78 292.638 434.78Z" fill="#FBD56F"/>
<path opacity="0.1" d="M292.638 434.78L290.525 433.784C290.525 433.784 289.536 437.276 289.859 439.765C289.891 440.017 290.014 440.255 290.211 440.447C290.407 440.638 290.669 440.774 290.96 440.836C295.82 441.858 318.987 446.213 334.918 440.079C335.149 439.99 335.348 439.851 335.497 439.677C335.645 439.502 335.738 439.298 335.765 439.084C335.96 437.555 335.268 434.399 334.992 433.784C334.398 432.461 292.638 434.78 292.638 434.78Z" fill="black"/>
<path d="M312.758 438.028C325.038 438.028 334.992 436.128 334.992 433.784C334.992 431.44 325.038 429.54 312.758 429.54C300.479 429.54 290.525 431.44 290.525 433.784C290.525 436.128 300.479 438.028 312.758 438.028Z" fill="#FBD56F"/>
<path d="M296.8 424.192L294.688 423.196C294.688 423.196 293.699 426.688 294.022 429.176C294.054 429.429 294.177 429.667 294.374 429.858C294.57 430.05 294.832 430.186 295.123 430.247C299.983 431.27 323.15 435.624 339.081 429.491C339.312 429.401 339.511 429.263 339.66 429.088C339.808 428.914 339.9 428.71 339.927 428.496C340.123 426.967 339.431 423.81 339.155 423.196C338.561 421.872 296.8 424.192 296.8 424.192Z" fill="#FBD56F"/>
<path opacity="0.1" d="M296.8 424.192L294.688 423.196C294.688 423.196 293.699 426.688 294.022 429.176C294.054 429.429 294.177 429.667 294.374 429.858C294.57 430.05 294.832 430.186 295.123 430.247C299.983 431.27 323.15 435.624 339.081 429.491C339.312 429.401 339.511 429.263 339.66 429.088C339.808 428.914 339.9 428.71 339.927 428.496C340.123 426.967 339.431 423.81 339.155 423.196C338.561 421.872 296.8 424.192 296.8 424.192Z" fill="black"/>
<path d="M316.921 427.439C329.201 427.439 339.155 425.539 339.155 423.195C339.155 420.851 329.201 418.951 316.921 418.951C304.642 418.951 294.688 420.851 294.688 423.195C294.688 425.539 304.642 427.439 316.921 427.439Z" fill="#FBD56F"/>
<path d="M203.313 471.211C214.531 471.211 223.626 463.037 223.626 452.953C223.626 442.87 214.531 434.695 203.313 434.695C192.094 434.695 183 442.87 183 452.953C183 463.037 192.094 471.211 203.313 471.211Z" fill="#FBD56F"/>
<path opacity="0.1" d="M203.313 471.211C214.531 471.211 223.626 463.037 223.626 452.953C223.626 442.87 214.531 434.695 203.313 434.695C192.094 434.695 183 442.87 183 452.953C183 463.037 192.094 471.211 203.313 471.211Z" fill="black"/>
<path d="M206.819 471.211C218.037 471.211 227.131 463.219 227.131 453.36C227.131 443.501 218.037 435.509 206.819 435.509C195.6 435.509 186.506 443.501 186.506 453.36C186.506 463.219 195.6 471.211 206.819 471.211Z" fill="#FBD56F"/>
<path d="M34.5791 459.889C35.4762 459.267 36.3336 458.518 36.6678 457.552C37.002 456.585 36.6429 455.369 35.6177 454.929C34.4691 454.435 33.1299 455.069 32.097 455.734C31.064 456.398 29.8804 457.157 28.6364 456.904C29.3342 456.433 29.8823 455.809 30.2274 455.093C30.5725 454.377 30.7028 453.594 30.6056 452.82C30.5805 452.502 30.4585 452.195 30.2525 451.933C29.6535 451.258 28.4328 451.435 27.5961 451.868C24.9354 453.244 23.944 456.217 23.6683 458.94C23.5097 457.938 23.8214 456.931 23.9121 455.922C24.0028 454.914 23.7991 453.773 22.8933 453.159C22.3241 452.828 21.6666 452.637 20.9874 452.605C19.8627 452.482 18.5965 452.487 17.7555 453.161C16.7106 453.998 16.812 455.544 17.5485 456.609C18.285 457.675 19.4915 458.399 20.591 459.18C21.4789 459.745 22.2117 460.482 22.7349 461.333C22.7947 461.451 22.8413 461.574 22.8739 461.699L29.9471 462.238C31.6035 461.644 33.1617 460.854 34.5791 459.889Z" fill="#6C63FF"/>
<path d="M203.424 458.41C204.187 459.526 204.784 460.726 205.199 461.979C205.31 462.304 205.416 462.643 205.513 462.999C207.07 468.704 203.117 475.103 202.239 474.314C201.361 473.524 198.538 471.969 197.787 473.796C197.036 475.623 194.744 477.374 194.744 477.374C190.574 480.511 187.453 476.542 185.54 472.54C184.916 471.22 184.378 469.87 183.929 468.495C183.535 467.281 183.322 466.446 183.322 466.446L200.484 455.565C200.484 455.565 201.97 456.313 203.424 458.41Z" fill="#6C63FF"/>
<path d="M177.467 464.228C178.23 465.344 178.827 466.544 179.242 467.797C179.352 468.121 179.458 468.461 179.555 468.817C181.112 474.522 177.16 480.921 176.282 480.132C175.404 479.342 172.58 477.786 171.83 479.613C171.079 481.441 168.787 483.192 168.787 483.192C164.616 486.329 161.496 482.359 159.582 478.358C158.958 477.038 158.42 475.687 157.971 474.313C157.578 473.099 157.365 472.264 157.365 472.264L174.526 461.383C174.526 461.383 176.012 462.131 177.467 464.228Z" fill="#6C63FF"/>
<path d="M125.813 471.062C125.598 472.354 125.195 473.616 124.614 474.815C124.466 475.127 124.303 475.449 124.122 475.778C121.22 481.051 113.575 483.737 113.466 482.632C113.358 481.527 112.302 478.73 110.41 479.711C108.519 480.692 105.494 480.741 105.494 480.741C100.027 480.793 100.478 475.97 101.881 471.806C102.35 470.437 102.906 469.093 103.549 467.781C104.119 466.623 104.555 465.86 104.555 465.86L125.594 467.207C125.594 467.207 126.201 468.625 125.813 471.062Z" fill="#6C63FF"/>
<path d="M99.2456 462.918C99.0309 464.21 98.6278 465.471 98.0466 466.671C97.8986 466.983 97.7358 467.304 97.5548 467.633C94.652 472.906 87.0074 475.592 86.8988 474.487C86.7902 473.382 85.7344 470.585 83.8427 471.566C81.951 472.547 78.9267 472.597 78.9267 472.597C73.4597 472.648 73.9107 467.826 75.3139 463.662C75.7821 462.292 76.3389 460.948 76.9815 459.636C77.5513 458.478 77.9875 457.715 77.9875 457.715L99.0266 459.062C99.0266 459.062 99.6332 460.48 99.2456 462.918Z" fill="#6C63FF"/>
<path opacity="0.2" d="M203.424 458.41C204.187 459.526 204.784 460.726 205.199 461.979C205.31 462.304 205.416 462.643 205.513 462.999C207.07 468.704 203.117 475.103 202.239 474.314C201.361 473.524 198.538 471.969 197.787 473.796C197.036 475.623 194.744 477.374 194.744 477.374C190.574 480.511 187.453 476.542 185.54 472.54C184.916 471.22 184.378 469.87 183.929 468.495C183.535 467.281 183.322 466.446 183.322 466.446L200.484 455.565C200.484 455.565 201.97 456.313 203.424 458.41Z" fill="black"/>
<path opacity="0.2" d="M177.467 464.228C178.23 465.344 178.827 466.544 179.242 467.797C179.352 468.121 179.458 468.461 179.555 468.817C181.112 474.522 177.16 480.921 176.282 480.132C175.404 479.342 172.58 477.786 171.83 479.613C171.079 481.441 168.787 483.192 168.787 483.192C164.616 486.329 161.496 482.359 159.582 478.358C158.958 477.038 158.42 475.687 157.971 474.313C157.578 473.099 157.365 472.264 157.365 472.264L174.526 461.383C174.526 461.383 176.012 462.131 177.467 464.228Z" fill="black"/>
<path opacity="0.2" d="M125.813 471.062C125.598 472.354 125.195 473.616 124.614 474.815C124.466 475.127 124.303 475.449 124.122 475.778C121.22 481.051 113.575 483.737 113.466 482.632C113.358 481.527 112.302 478.73 110.41 479.711C108.519 480.692 105.494 480.741 105.494 480.741C100.027 480.793 100.478 475.97 101.881 471.806C102.35 470.437 102.906 469.093 103.549 467.781C104.119 466.623 104.555 465.86 104.555 465.86L125.594 467.207C125.594 467.207 126.201 468.625 125.813 471.062Z" fill="black"/>
<path opacity="0.2" d="M99.2456 462.918C99.0309 464.21 98.6278 465.471 98.0466 466.671C97.8986 466.983 97.7358 467.304 97.5548 467.633C94.652 472.906 87.0074 475.592 86.8988 474.487C86.7902 473.382 85.7344 470.585 83.8427 471.566C81.951 472.547 78.9267 472.597 78.9267 472.597C73.4597 472.648 73.9107 467.826 75.3139 463.662C75.7821 462.292 76.3389 460.948 76.9815 459.636C77.5513 458.478 77.9875 457.715 77.9875 457.715L99.0266 459.062C99.0266 459.062 99.6332 460.48 99.2456 462.918Z" fill="black"/>
<path d="M252.773 392.253C247.98 442.075 225.107 481.019 137.484 474.35C78.6037 469.869 34.3002 453.417 39.5497 376.026C42.9354 326.112 95.9589 289.448 154.839 293.929C213.719 298.41 257.565 342.431 252.773 392.253Z" fill="#6C63FF"/>
<path opacity="0.2" d="M134.688 293.981L134.701 293.982C134.698 293.984 134.694 293.984 134.691 293.984L134.688 293.981Z" fill="black"/>
<path opacity="0.2" d="M134.9 293.966C135.174 293.948 135.716 293.923 136.499 293.93L134.748 293.98C134.773 293.976 134.805 293.973 134.843 293.97C134.862 293.969 134.878 293.967 134.9 293.966Z" fill="black"/>
<path opacity="0.2" d="M210.131 336.823L202.11 338.717C198.597 333.693 194.763 328.852 190.627 324.217C186.115 319.139 181.112 314.419 175.676 310.112C157.012 295.488 141.633 293.981 136.511 293.931L148.327 293.6C159.22 296.13 169.524 300.351 178.762 306.067C185.225 310.062 191.157 314.696 196.444 319.878C205.822 329.044 210.131 336.823 210.131 336.823Z" fill="black"/>
<path opacity="0.2" d="M139.331 336.166C139.331 336.166 131.983 304.992 141.496 297.366C141.496 297.366 155.59 294.264 163.603 318.531L139.331 336.166Z" fill="black"/>
<path d="M194.076 311.738C194.076 311.738 223.293 293.264 234.982 297.941C234.982 297.941 243.843 308.157 222.021 324.402L194.076 311.738Z" fill="#6C63FF"/>
<path opacity="0.2" d="M194.076 311.738C194.076 311.738 223.293 293.264 234.982 297.941C234.982 297.941 243.843 308.157 222.021 324.402L194.076 311.738Z" fill="black"/>
<path d="M269.554 416.63C266.978 443.411 243.293 462.92 222.921 461.37C202.55 459.819 193.206 437.796 195.782 411.016C198.358 384.236 216.895 364.832 237.333 365.333C269.709 366.127 272.13 389.85 269.554 416.63Z" fill="#6C63FF"/>
<path opacity="0.2" d="M269.554 416.63C266.978 443.411 243.293 462.92 222.921 461.37C202.55 459.819 193.206 437.796 195.782 411.016C198.358 384.236 216.895 364.832 237.333 365.333C269.709 366.127 272.13 389.85 269.554 416.63Z" fill="black"/>
<path d="M225.158 425.08C228.94 425.368 232.339 422.138 232.75 417.865C233.161 413.593 230.428 409.896 226.646 409.608C222.864 409.32 219.465 412.55 219.054 416.823C218.643 421.095 221.376 424.792 225.158 425.08Z" fill="#6C63FF"/>
<path d="M250.075 420.297C253.857 420.585 257.256 417.354 257.667 413.082C258.078 408.809 255.346 405.112 251.563 404.824C247.781 404.537 244.382 407.767 243.971 412.04C243.56 416.312 246.293 420.009 250.075 420.297Z" fill="#6C63FF"/>
<path d="M198.253 314.989C198.091 316.722 197.471 318.397 196.444 319.878C195.087 321.846 193.045 323.369 190.627 324.217C186.115 319.139 181.112 314.419 175.676 310.112C176.345 308.573 177.4 307.189 178.762 306.066C179.936 305.087 181.33 304.337 182.852 303.865C184.374 303.394 185.991 303.211 187.598 303.329C194.053 303.821 198.825 309.041 198.253 314.989Z" fill="#FAD46F"/>
<path d="M1216.11 123.842H1176.43V116.536C1176.43 116.073 1176.21 115.628 1175.83 115.301C1175.44 114.973 1174.92 114.789 1174.38 114.789H1162.73V107.007C1162.73 106.715 1162.59 106.435 1162.35 106.229C1162.11 106.023 1161.78 105.907 1161.43 105.907H1146.43C1146.08 105.907 1145.75 106.023 1145.51 106.229C1145.27 106.435 1145.13 106.715 1145.13 107.007V114.791H1131.43C1130.89 114.791 1130.37 114.976 1129.98 115.303C1129.6 115.631 1129.38 116.075 1129.38 116.539V123.845H1091.54C1091.43 123.845 1091.33 123.883 1091.25 123.95C1091.17 124.016 1091.13 124.106 1091.13 124.2V221.182C1091.13 221.276 1091.17 221.366 1091.25 221.433C1091.33 221.499 1091.43 221.537 1091.54 221.538H1116.69C1116.8 221.538 1116.91 221.5 1116.99 221.434C1117.06 221.367 1117.11 221.277 1117.11 221.182V208.134C1117.11 208.04 1117.15 207.95 1117.23 207.884C1117.31 207.817 1117.42 207.78 1117.53 207.779H1128.15C1128.26 207.78 1128.36 207.817 1128.44 207.884C1128.52 207.95 1128.56 208.04 1128.57 208.134V221.182C1128.57 221.276 1128.61 221.366 1128.69 221.433C1128.76 221.499 1128.87 221.537 1128.98 221.538H1178.67C1178.78 221.537 1178.89 221.499 1178.96 221.433C1179.04 221.366 1179.09 221.276 1179.09 221.182V208.134C1179.09 208.04 1179.13 207.95 1179.21 207.884C1179.29 207.817 1179.39 207.78 1179.5 207.779H1190.12C1190.23 207.779 1190.34 207.816 1190.42 207.883C1190.5 207.95 1190.54 208.04 1190.54 208.134V221.182C1190.54 221.276 1190.59 221.366 1190.66 221.433C1190.74 221.499 1190.85 221.537 1190.96 221.538H1216.1C1216.21 221.537 1216.32 221.499 1216.4 221.433C1216.48 221.366 1216.52 221.276 1216.52 221.182V124.197C1216.52 124.104 1216.48 124.015 1216.4 123.949C1216.32 123.882 1216.22 123.844 1216.11 123.842ZM1112.61 203.247C1112.61 203.341 1112.56 203.43 1112.49 203.496C1112.41 203.563 1112.3 203.6 1112.19 203.6H1096.66C1096.61 203.6 1096.55 203.591 1096.5 203.574C1096.45 203.556 1096.4 203.53 1096.37 203.497C1096.33 203.465 1096.3 203.426 1096.28 203.383C1096.25 203.34 1096.24 203.294 1096.24 203.247V198.744C1096.24 198.697 1096.25 198.651 1096.28 198.608C1096.3 198.565 1096.33 198.526 1096.37 198.493C1096.4 198.46 1096.45 198.434 1096.5 198.416C1096.55 198.398 1096.61 198.389 1096.66 198.389H1112.2C1112.31 198.39 1112.42 198.427 1112.5 198.494C1112.57 198.56 1112.62 198.65 1112.62 198.744L1112.61 203.247ZM1112.61 191.578C1112.61 191.624 1112.6 191.671 1112.58 191.714C1112.56 191.757 1112.53 191.796 1112.49 191.829C1112.45 191.862 1112.4 191.888 1112.35 191.906C1112.3 191.924 1112.25 191.933 1112.19 191.933H1096.66C1096.61 191.934 1096.55 191.925 1096.5 191.907C1096.45 191.889 1096.4 191.863 1096.37 191.83C1096.33 191.797 1096.3 191.758 1096.27 191.714C1096.25 191.671 1096.24 191.625 1096.24 191.578V187.064C1096.24 187.018 1096.25 186.971 1096.27 186.928C1096.3 186.885 1096.33 186.845 1096.37 186.812C1096.4 186.779 1096.45 186.753 1096.5 186.735C1096.55 186.718 1096.61 186.709 1096.66 186.709H1112.2C1112.26 186.709 1112.31 186.718 1112.36 186.736C1112.41 186.754 1112.46 186.78 1112.5 186.813C1112.53 186.846 1112.57 186.886 1112.59 186.929C1112.61 186.972 1112.62 187.018 1112.62 187.064L1112.61 191.578ZM1112.61 179.911C1112.61 180.005 1112.56 180.095 1112.49 180.162C1112.41 180.228 1112.3 180.266 1112.19 180.267H1096.66C1096.61 180.267 1096.55 180.257 1096.5 180.24C1096.45 180.222 1096.4 180.196 1096.37 180.163C1096.33 180.13 1096.3 180.09 1096.28 180.047C1096.25 180.004 1096.24 179.958 1096.24 179.911V175.395C1096.24 175.349 1096.25 175.302 1096.28 175.259C1096.3 175.216 1096.33 175.177 1096.37 175.144C1096.4 175.111 1096.45 175.085 1096.5 175.067C1096.55 175.049 1096.61 175.04 1096.66 175.04H1112.2C1112.31 175.041 1112.42 175.078 1112.5 175.145C1112.57 175.212 1112.62 175.301 1112.62 175.395L1112.61 179.911ZM1112.61 168.242C1112.61 168.289 1112.6 168.335 1112.58 168.378C1112.56 168.421 1112.53 168.46 1112.49 168.493C1112.45 168.526 1112.4 168.552 1112.35 168.57C1112.3 168.588 1112.25 168.597 1112.19 168.597H1096.66C1096.61 168.598 1096.55 168.589 1096.5 168.571C1096.45 168.553 1096.4 168.527 1096.37 168.494C1096.33 168.461 1096.3 168.422 1096.27 168.379C1096.25 168.335 1096.24 168.289 1096.24 168.242V163.742C1096.24 163.695 1096.25 163.649 1096.27 163.606C1096.3 163.562 1096.33 163.523 1096.37 163.49C1096.4 163.457 1096.45 163.431 1096.5 163.413C1096.55 163.395 1096.61 163.386 1096.66 163.387H1112.2C1112.26 163.387 1112.31 163.396 1112.36 163.414C1112.41 163.432 1112.46 163.458 1112.5 163.491C1112.53 163.524 1112.57 163.563 1112.59 163.606C1112.61 163.649 1112.62 163.695 1112.62 163.742L1112.61 168.242ZM1112.61 156.576C1112.61 156.669 1112.56 156.759 1112.49 156.826C1112.41 156.892 1112.3 156.93 1112.19 156.931H1096.66C1096.61 156.931 1096.55 156.922 1096.5 156.904C1096.45 156.886 1096.4 156.86 1096.37 156.827C1096.33 156.794 1096.3 156.755 1096.28 156.712C1096.25 156.668 1096.24 156.622 1096.24 156.576V152.06C1096.24 152.013 1096.25 151.967 1096.28 151.924C1096.3 151.881 1096.33 151.842 1096.37 151.809C1096.4 151.776 1096.45 151.751 1096.5 151.733C1096.55 151.715 1096.61 151.707 1096.66 151.707H1112.2C1112.31 151.707 1112.42 151.744 1112.5 151.81C1112.57 151.876 1112.62 151.966 1112.62 152.06L1112.61 156.576ZM1112.61 144.909C1112.61 145.003 1112.56 145.092 1112.49 145.158C1112.41 145.225 1112.3 145.262 1112.19 145.262H1096.66C1096.61 145.262 1096.55 145.253 1096.5 145.236C1096.45 145.218 1096.4 145.192 1096.37 145.159C1096.33 145.127 1096.3 145.088 1096.28 145.045C1096.25 145.002 1096.24 144.956 1096.24 144.909V140.393C1096.24 140.346 1096.25 140.3 1096.28 140.257C1096.3 140.214 1096.33 140.175 1096.37 140.142C1096.4 140.109 1096.45 140.083 1096.5 140.065C1096.55 140.047 1096.61 140.038 1096.66 140.038H1112.2C1112.31 140.038 1112.42 140.076 1112.5 140.143C1112.57 140.209 1112.62 140.299 1112.62 140.393L1112.61 144.909ZM1112.61 133.24C1112.61 133.286 1112.6 133.333 1112.58 133.376C1112.56 133.419 1112.53 133.458 1112.49 133.491C1112.45 133.524 1112.4 133.55 1112.35 133.568C1112.3 133.586 1112.25 133.595 1112.19 133.595H1096.66C1096.61 133.596 1096.55 133.587 1096.5 133.569C1096.45 133.551 1096.4 133.525 1096.37 133.492C1096.33 133.459 1096.3 133.42 1096.27 133.376C1096.25 133.333 1096.24 133.287 1096.24 133.24V128.74C1096.24 128.693 1096.25 128.647 1096.27 128.603C1096.3 128.56 1096.33 128.521 1096.37 128.488C1096.4 128.455 1096.45 128.428 1096.5 128.411C1096.55 128.393 1096.61 128.384 1096.66 128.384H1112.2C1112.26 128.384 1112.31 128.394 1112.36 128.411C1112.41 128.429 1112.46 128.456 1112.5 128.489C1112.53 128.522 1112.57 128.561 1112.59 128.604C1112.61 128.647 1112.62 128.693 1112.62 128.74L1112.61 133.24ZM1149.43 203.244C1149.43 203.291 1149.42 203.337 1149.4 203.38C1149.38 203.423 1149.35 203.462 1149.31 203.495C1149.27 203.527 1149.22 203.553 1149.17 203.571C1149.12 203.589 1149.07 203.597 1149.01 203.597H1133.48C1133.37 203.597 1133.27 203.56 1133.19 203.494C1133.11 203.428 1133.06 203.338 1133.06 203.244V198.744C1133.06 198.65 1133.11 198.56 1133.19 198.494C1133.26 198.427 1133.37 198.39 1133.48 198.389H1149.01C1149.07 198.389 1149.12 198.398 1149.17 198.416C1149.22 198.434 1149.27 198.46 1149.31 198.493C1149.35 198.526 1149.38 198.565 1149.4 198.608C1149.42 198.651 1149.43 198.697 1149.43 198.744V203.244ZM1149.43 191.575C1149.43 191.622 1149.42 191.668 1149.4 191.712C1149.38 191.755 1149.35 191.794 1149.31 191.827C1149.27 191.86 1149.22 191.886 1149.17 191.904C1149.12 191.922 1149.07 191.931 1149.01 191.931H1133.48C1133.37 191.931 1133.26 191.893 1133.19 191.826C1133.11 191.76 1133.06 191.669 1133.06 191.575V187.064C1133.06 186.97 1133.11 186.88 1133.19 186.813C1133.26 186.747 1133.37 186.709 1133.48 186.709H1149.01C1149.07 186.709 1149.12 186.718 1149.17 186.735C1149.22 186.753 1149.27 186.779 1149.31 186.812C1149.35 186.845 1149.38 186.885 1149.4 186.928C1149.42 186.971 1149.43 187.018 1149.43 187.064V191.575ZM1149.43 179.909C1149.43 179.955 1149.42 180.002 1149.4 180.045C1149.38 180.088 1149.35 180.127 1149.31 180.16C1149.27 180.193 1149.22 180.219 1149.17 180.237C1149.12 180.255 1149.07 180.264 1149.01 180.264H1133.48C1133.37 180.263 1133.26 180.226 1133.19 180.159C1133.11 180.093 1133.06 180.003 1133.06 179.909V175.395C1133.06 175.301 1133.11 175.211 1133.19 175.145C1133.26 175.078 1133.37 175.041 1133.48 175.04H1149.01C1149.07 175.04 1149.12 175.049 1149.17 175.067C1149.22 175.085 1149.27 175.111 1149.31 175.144C1149.35 175.177 1149.38 175.216 1149.4 175.259C1149.42 175.302 1149.43 175.349 1149.43 175.395V179.909ZM1149.43 168.24C1149.43 168.286 1149.42 168.333 1149.4 168.376C1149.38 168.419 1149.35 168.458 1149.31 168.492C1149.27 168.525 1149.22 168.551 1149.17 168.568C1149.12 168.586 1149.07 168.595 1149.01 168.595H1133.48C1133.37 168.595 1133.26 168.557 1133.19 168.491C1133.11 168.424 1133.06 168.334 1133.06 168.24V163.742C1133.06 163.648 1133.11 163.557 1133.19 163.491C1133.26 163.424 1133.37 163.387 1133.48 163.387H1149.01C1149.07 163.386 1149.12 163.395 1149.17 163.413C1149.22 163.431 1149.27 163.457 1149.31 163.49C1149.35 163.523 1149.38 163.562 1149.4 163.606C1149.42 163.649 1149.43 163.695 1149.43 163.742V168.24ZM1149.43 156.573C1149.43 156.62 1149.42 156.666 1149.4 156.709C1149.38 156.752 1149.35 156.791 1149.31 156.824C1149.27 156.857 1149.22 156.883 1149.17 156.901C1149.12 156.919 1149.07 156.928 1149.01 156.928H1133.48C1133.37 156.928 1133.26 156.89 1133.19 156.823C1133.11 156.757 1133.06 156.667 1133.06 156.573V152.06C1133.06 151.966 1133.11 151.876 1133.19 151.81C1133.27 151.744 1133.37 151.707 1133.48 151.707H1149.01C1149.07 151.707 1149.12 151.715 1149.17 151.733C1149.22 151.751 1149.27 151.776 1149.31 151.809C1149.35 151.842 1149.38 151.881 1149.4 151.924C1149.42 151.967 1149.43 152.013 1149.43 152.06V156.573ZM1149.43 144.906C1149.43 144.953 1149.42 144.999 1149.4 145.042C1149.38 145.085 1149.35 145.124 1149.31 145.157C1149.27 145.19 1149.22 145.215 1149.17 145.233C1149.12 145.251 1149.07 145.259 1149.01 145.259H1133.48C1133.37 145.259 1133.27 145.222 1133.19 145.156C1133.11 145.09 1133.06 145 1133.06 144.906V140.393C1133.06 140.299 1133.11 140.209 1133.19 140.143C1133.26 140.076 1133.37 140.038 1133.48 140.038H1149.01C1149.07 140.038 1149.12 140.047 1149.17 140.065C1149.22 140.083 1149.27 140.109 1149.31 140.142C1149.35 140.175 1149.38 140.214 1149.4 140.257C1149.42 140.3 1149.43 140.346 1149.43 140.393V144.906ZM1149.43 133.237C1149.43 133.284 1149.42 133.33 1149.4 133.374C1149.38 133.417 1149.35 133.456 1149.31 133.489C1149.27 133.522 1149.22 133.549 1149.17 133.566C1149.12 133.584 1149.07 133.593 1149.01 133.593H1133.48C1133.37 133.593 1133.26 133.555 1133.19 133.489C1133.11 133.422 1133.06 133.332 1133.06 133.237V128.74C1133.06 128.645 1133.11 128.555 1133.19 128.488C1133.26 128.422 1133.37 128.384 1133.48 128.384H1149.01C1149.07 128.384 1149.12 128.393 1149.17 128.411C1149.22 128.428 1149.27 128.455 1149.31 128.488C1149.35 128.521 1149.38 128.56 1149.4 128.603C1149.42 128.647 1149.43 128.693 1149.43 128.74V133.237ZM1174.59 203.242C1174.59 203.288 1174.58 203.334 1174.56 203.377C1174.54 203.42 1174.51 203.459 1174.47 203.492C1174.43 203.525 1174.38 203.551 1174.33 203.568C1174.28 203.586 1174.23 203.595 1174.17 203.594H1158.64C1158.53 203.594 1158.43 203.557 1158.35 203.491C1158.27 203.425 1158.23 203.336 1158.23 203.242V198.744C1158.23 198.65 1158.27 198.56 1158.35 198.494C1158.43 198.427 1158.53 198.39 1158.64 198.389H1174.17C1174.29 198.389 1174.39 198.426 1174.47 198.493C1174.55 198.56 1174.59 198.65 1174.59 198.744V203.242ZM1174.59 191.573C1174.59 191.619 1174.58 191.666 1174.56 191.709C1174.54 191.752 1174.51 191.792 1174.47 191.825C1174.43 191.858 1174.39 191.884 1174.33 191.902C1174.28 191.919 1174.23 191.928 1174.17 191.928H1158.64C1158.53 191.928 1158.43 191.89 1158.35 191.824C1158.27 191.757 1158.23 191.667 1158.23 191.573V187.064C1158.23 186.97 1158.27 186.88 1158.35 186.813C1158.43 186.747 1158.53 186.709 1158.64 186.709H1174.17C1174.23 186.709 1174.28 186.718 1174.33 186.735C1174.39 186.753 1174.43 186.779 1174.47 186.812C1174.51 186.845 1174.54 186.885 1174.56 186.928C1174.58 186.971 1174.59 187.018 1174.59 187.064V191.573ZM1174.59 179.906C1174.59 180 1174.55 180.091 1174.47 180.157C1174.39 180.224 1174.29 180.261 1174.17 180.261H1158.64C1158.53 180.261 1158.43 180.223 1158.35 180.157C1158.27 180.09 1158.23 180 1158.23 179.906V175.395C1158.23 175.301 1158.27 175.211 1158.35 175.145C1158.43 175.078 1158.53 175.041 1158.64 175.04H1174.17C1174.29 175.04 1174.39 175.077 1174.47 175.144C1174.55 175.211 1174.59 175.301 1174.59 175.395V179.906ZM1174.59 168.237C1174.59 168.284 1174.58 168.33 1174.56 168.373C1174.54 168.417 1174.51 168.456 1174.47 168.489C1174.43 168.522 1174.39 168.548 1174.33 168.566C1174.28 168.584 1174.23 168.593 1174.17 168.592H1158.64C1158.53 168.592 1158.43 168.555 1158.35 168.488C1158.27 168.422 1158.23 168.331 1158.23 168.237V163.742C1158.23 163.648 1158.27 163.557 1158.35 163.491C1158.43 163.424 1158.53 163.387 1158.64 163.387H1174.17C1174.23 163.386 1174.28 163.395 1174.33 163.413C1174.39 163.431 1174.43 163.457 1174.47 163.49C1174.51 163.523 1174.54 163.562 1174.56 163.606C1174.58 163.649 1174.59 163.695 1174.59 163.742V168.237ZM1174.59 156.57C1174.59 156.665 1174.55 156.755 1174.47 156.822C1174.39 156.888 1174.29 156.926 1174.17 156.926H1158.64C1158.53 156.925 1158.43 156.887 1158.35 156.821C1158.27 156.754 1158.23 156.664 1158.23 156.57V152.06C1158.23 151.966 1158.27 151.876 1158.35 151.81C1158.43 151.744 1158.53 151.707 1158.64 151.707H1174.17C1174.23 151.707 1174.28 151.715 1174.33 151.733C1174.38 151.751 1174.43 151.776 1174.47 151.809C1174.51 151.842 1174.54 151.881 1174.56 151.924C1174.58 151.967 1174.59 152.013 1174.59 152.06V156.57ZM1174.59 144.904C1174.59 144.95 1174.58 144.996 1174.56 145.039C1174.54 145.082 1174.51 145.121 1174.47 145.154C1174.43 145.187 1174.38 145.213 1174.33 145.23C1174.28 145.248 1174.23 145.257 1174.17 145.256H1158.64C1158.53 145.257 1158.43 145.219 1158.35 145.153C1158.27 145.087 1158.23 144.998 1158.23 144.904V140.393C1158.23 140.299 1158.27 140.209 1158.35 140.143C1158.43 140.076 1158.53 140.038 1158.64 140.038H1174.17C1174.29 140.038 1174.39 140.075 1174.47 140.142C1174.55 140.208 1174.59 140.299 1174.59 140.393V144.904ZM1174.59 133.235C1174.59 133.281 1174.58 133.328 1174.56 133.371C1174.54 133.414 1174.51 133.454 1174.47 133.487C1174.43 133.52 1174.39 133.546 1174.33 133.564C1174.28 133.581 1174.23 133.59 1174.17 133.59H1158.64C1158.53 133.59 1158.43 133.553 1158.35 133.486C1158.27 133.419 1158.23 133.329 1158.23 133.235V128.74C1158.23 128.645 1158.27 128.555 1158.35 128.488C1158.43 128.422 1158.53 128.384 1158.64 128.384H1174.17C1174.23 128.384 1174.28 128.393 1174.33 128.411C1174.39 128.428 1174.43 128.455 1174.47 128.488C1174.51 128.521 1174.54 128.56 1174.56 128.603C1174.58 128.647 1174.59 128.693 1174.59 128.74V133.235ZM1211.41 203.239C1211.41 203.333 1211.37 203.423 1211.29 203.489C1211.21 203.555 1211.11 203.592 1211 203.592H1195.47C1195.41 203.592 1195.36 203.583 1195.31 203.566C1195.26 203.548 1195.21 203.522 1195.17 203.489C1195.13 203.457 1195.1 203.418 1195.08 203.375C1195.06 203.332 1195.05 203.286 1195.05 203.239V198.744C1195.05 198.65 1195.09 198.56 1195.17 198.493C1195.25 198.426 1195.35 198.389 1195.47 198.389H1211C1211.11 198.39 1211.21 198.427 1211.29 198.494C1211.37 198.56 1211.41 198.65 1211.41 198.744V203.239ZM1211.41 191.57C1211.41 191.664 1211.37 191.755 1211.29 191.821C1211.21 191.888 1211.11 191.925 1211 191.925H1195.47C1195.41 191.926 1195.36 191.917 1195.31 191.899C1195.25 191.881 1195.21 191.855 1195.17 191.822C1195.13 191.789 1195.1 191.75 1195.08 191.706C1195.06 191.663 1195.05 191.617 1195.05 191.57V187.064C1195.05 187.018 1195.06 186.971 1195.08 186.928C1195.1 186.885 1195.13 186.845 1195.17 186.812C1195.21 186.779 1195.25 186.753 1195.31 186.735C1195.36 186.718 1195.41 186.709 1195.47 186.709H1211C1211.11 186.709 1211.21 186.747 1211.29 186.813C1211.37 186.88 1211.41 186.97 1211.41 187.064V191.57ZM1211.41 179.903C1211.41 179.997 1211.37 180.087 1211.29 180.154C1211.21 180.22 1211.11 180.258 1211 180.259H1195.47C1195.35 180.259 1195.25 180.221 1195.17 180.155C1195.09 180.088 1195.05 179.998 1195.05 179.903V175.395C1195.05 175.301 1195.09 175.211 1195.17 175.144C1195.25 175.077 1195.35 175.04 1195.47 175.04H1211C1211.11 175.041 1211.21 175.078 1211.29 175.145C1211.37 175.211 1211.41 175.301 1211.41 175.395V179.903ZM1211.41 168.234C1211.41 168.329 1211.37 168.419 1211.29 168.486C1211.21 168.552 1211.11 168.59 1211 168.59H1195.47C1195.36 168.589 1195.25 168.552 1195.18 168.487C1195.1 168.422 1195.06 168.334 1195.05 168.242V163.742C1195.05 163.695 1195.06 163.649 1195.09 163.606C1195.11 163.562 1195.14 163.523 1195.18 163.49C1195.21 163.457 1195.26 163.431 1195.31 163.413C1195.36 163.395 1195.42 163.386 1195.47 163.387H1211C1211.11 163.387 1211.22 163.424 1211.3 163.491C1211.38 163.557 1211.42 163.648 1211.42 163.742L1211.41 168.234ZM1211.41 156.568C1211.41 156.662 1211.37 156.752 1211.29 156.818C1211.21 156.885 1211.11 156.922 1211 156.923H1195.47C1195.35 156.923 1195.25 156.886 1195.17 156.819C1195.09 156.752 1195.05 156.662 1195.05 156.568V152.06C1195.05 152.013 1195.06 151.967 1195.08 151.924C1195.1 151.881 1195.13 151.842 1195.17 151.809C1195.21 151.776 1195.26 151.751 1195.31 151.733C1195.36 151.715 1195.41 151.707 1195.47 151.707H1211C1211.11 151.707 1211.21 151.744 1211.29 151.81C1211.37 151.876 1211.41 151.966 1211.41 152.06V156.568ZM1211.41 144.901C1211.41 144.995 1211.37 145.085 1211.29 145.151C1211.21 145.217 1211.11 145.254 1211 145.254H1195.47C1195.41 145.254 1195.36 145.245 1195.31 145.228C1195.26 145.21 1195.21 145.184 1195.17 145.152C1195.13 145.119 1195.1 145.08 1195.08 145.037C1195.06 144.994 1195.05 144.948 1195.05 144.901V140.393C1195.05 140.299 1195.09 140.208 1195.17 140.142C1195.25 140.075 1195.35 140.038 1195.47 140.038H1211C1211.11 140.038 1211.21 140.076 1211.29 140.143C1211.37 140.209 1211.41 140.299 1211.41 140.393V144.901ZM1211.41 133.232C1211.41 133.279 1211.4 133.325 1211.38 133.368C1211.36 133.411 1211.33 133.45 1211.29 133.483C1211.25 133.516 1211.21 133.542 1211.16 133.56C1211.11 133.578 1211.05 133.587 1211 133.587H1195.47C1195.36 133.587 1195.25 133.55 1195.18 133.485C1195.1 133.42 1195.06 133.332 1195.05 133.24V128.74C1195.05 128.693 1195.06 128.647 1195.09 128.603C1195.11 128.56 1195.14 128.521 1195.18 128.488C1195.21 128.455 1195.26 128.428 1195.31 128.411C1195.36 128.393 1195.42 128.384 1195.47 128.384H1211C1211.11 128.384 1211.22 128.422 1211.3 128.488C1211.38 128.555 1211.42 128.645 1211.42 128.74L1211.41 133.232Z" fill="#F2F2F2" fill-opacity="0.8"/>
<path d="M1306.98 221.538C1306.98 221.989 1306.98 222.441 1306.95 222.887C1306.87 224.624 1306.62 226.352 1306.21 228.055C1304.18 236.482 1298.3 243.034 1290.92 244.968C1289.45 245.356 1287.92 245.553 1286.38 245.553C1275 245.553 1265.78 234.792 1265.78 221.538C1265.78 208.283 1275 197.522 1286.38 197.522C1297.05 197.522 1305.83 206.987 1306.88 219.11C1306.95 219.908 1306.98 220.719 1306.98 221.538Z" fill="#36334A" fill-opacity="0.8"/>
<path opacity="0.1" d="M1306.98 223.401C1306.9 225.144 1306.66 226.878 1306.25 228.586C1304.21 237.041 1298.34 243.613 1290.96 245.553C1285.25 243.318 1281.01 234.94 1281.01 224.944C1281.01 213.238 1286.83 203.748 1294.01 203.748C1300.04 203.748 1305.11 210.442 1306.58 219.523C1306.79 220.768 1306.92 222.069 1306.98 223.401Z" fill="black" fill-opacity="0.8"/>
<path d="M1203.98 168.249C1203.98 168.249 1259.02 158.607 1288.06 167.467C1288.06 167.467 1292.34 169.292 1288.06 172.419C1288.06 172.419 1292.11 176.068 1285.04 177.371L1256.96 178.843L1203.98 174.243V168.249Z" fill="#3F3D56"/>
<path opacity="0.1" d="M1213.83 169.496C1213.83 169.496 1261.41 160.987 1286.53 168.806C1286.53 168.806 1290.23 170.417 1286.53 173.176C1286.53 173.176 1290.03 176.399 1283.92 177.546L1259.64 178.843L1213.83 174.79V169.496Z" fill="black" fill-opacity="0.8"/>
<path d="M1267.57 184.482L1263.91 178.038C1263.91 178.038 1265.51 171.518 1252.44 169.601C1251.72 166.757 1248.44 164.612 1244.5 164.612C1240.65 164.612 1237.44 166.652 1236.6 169.391C1234.73 169.534 1232.73 169.727 1230.59 169.982L1227.6 184.063L1227.23 183.408C1227.23 183.408 1229.13 175.707 1212.02 174.582C1212.95 173.589 1213.46 172.343 1213.47 171.056C1213.47 167.643 1209.84 164.88 1205.37 164.88C1200.9 164.88 1197.27 167.643 1197.27 171.056C1197.28 172.458 1197.89 173.806 1198.97 174.837C1197.37 174.971 1195.68 175.143 1193.91 175.352L1190.55 191.195L1206.14 193.075L1230.89 189.852L1228.7 185.999L1242.82 187.702L1267.57 184.482Z" fill="#6C63FF"/>
<path opacity="0.2" d="M1267.57 184.482L1263.91 178.038C1263.91 178.038 1265.51 171.518 1252.44 169.601C1251.72 166.757 1248.44 164.612 1244.5 164.612C1240.65 164.612 1237.44 166.652 1236.6 169.391C1234.73 169.534 1232.73 169.727 1230.59 169.982L1227.6 184.063L1227.23 183.408C1227.23 183.408 1229.13 175.707 1212.02 174.582C1212.95 173.589 1213.46 172.343 1213.47 171.056C1213.47 167.643 1209.84 164.88 1205.37 164.88C1200.9 164.88 1197.27 167.643 1197.27 171.056C1197.28 172.458 1197.89 173.806 1198.97 174.837C1197.37 174.971 1195.68 175.143 1193.91 175.352L1190.55 191.195L1206.14 193.075L1230.89 189.852L1228.7 185.999L1242.82 187.702L1267.57 184.482Z" fill="black" fill-opacity="0.8"/>
<path d="M1215.11 170.289C1215.11 170.289 1212.67 158.648 1223.94 158.388C1235.21 158.129 1231.56 175.249 1231.56 175.249C1231.56 175.249 1240.09 176.806 1240.7 179.659C1241.3 182.512 1211.15 183.291 1211.15 183.291L1215.11 170.289Z" fill="#6C63FF"/>
<path d="M1194.13 232.453C1194.13 246.56 1182.1 258.006 1167.26 258.006C1152.42 258.006 1140.39 246.56 1140.39 232.453C1140.39 218.346 1152.57 204.638 1167.41 204.638C1182.26 204.638 1194.13 218.34 1194.13 232.453Z" fill="#36334A" fill-opacity="0.8"/>
<path opacity="0.1" d="M1168.16 255.337C1180.03 255.337 1189.65 245.78 1189.65 233.99C1189.65 222.2 1180.03 212.643 1168.16 212.643C1156.28 212.643 1146.66 222.2 1146.66 233.99C1146.66 245.78 1156.28 255.337 1168.16 255.337Z" fill="black" fill-opacity="0.8"/>
<path d="M1048.14 255.337C1062.98 255.337 1075.01 243.988 1075.01 229.988C1075.01 215.987 1062.98 204.638 1048.14 204.638C1033.3 204.638 1021.27 215.987 1021.27 229.988C1021.27 243.988 1033.3 255.337 1048.14 255.337Z" fill="#36334A" fill-opacity="0.8"/>
<path d="M1094.71 169.948C1094.71 169.948 1081.55 170.498 1082.2 176.541C1082.84 182.584 1093.43 178.189 1093.43 178.189L1094.71 169.948Z" fill="#36334A" fill-opacity="0.8"/>
<path d="M1199.69 179.176L1204.86 149.594C1204.86 149.594 1206.08 145.917 1189.55 145.917C1189.55 145.917 1136.58 143.028 1123.11 147.755C1123.11 147.755 1107.49 152.745 1085.76 178.48C1085.76 178.48 1197.55 180.752 1199.69 179.176Z" fill="#3F3D56"/>
<path d="M1197.71 148.601L1188.13 181.512L1182.12 181.386L1153.67 180.786L1090.24 179.449C1090.06 176.848 1120.1 149.939 1120.1 149.939L1197.71 148.601Z" fill="#36334A" fill-opacity="0.8"/>
<path opacity="0.2" d="M1153.83 180.893L1156.44 171.948C1156.44 171.948 1153.94 159.554 1165.48 159.278C1177.01 159.002 1173.27 177.224 1173.27 177.224C1173.27 177.224 1181.22 178.734 1182.49 181.512L1153.83 180.893Z" fill="#6C63FF"/>
<path d="M1307.2 219.906C1305.35 204.764 1293.79 201.5 1293.79 201.5C1282.69 200.978 1275.29 236.746 1275.29 236.746L1189.89 243.273C1189.89 243.273 1192.82 212.857 1172.16 207.897C1151.51 202.936 1146.11 238.574 1145.19 243.535C1144.26 248.495 1020.63 243.012 1017.24 240.924C1013.84 238.835 1015.08 218.732 1016 217.165C1016.93 215.599 1019.39 208.549 1019.39 208.549C1019.39 206.868 1020.34 204.743 1021.13 203.268C1021.69 202.223 1022.17 201.5 1022.17 201.5C1024.85 188.634 1038.76 185.519 1039.69 185.313H1039.74C1043.44 182.18 1077.66 180.091 1077.66 180.091L1090.61 178.002L1195.89 179.754L1200.37 179.83L1253.9 177.65L1290.09 176.175C1298.42 176.175 1302.73 193.929 1302.73 193.929C1310.44 209.594 1307.2 219.906 1307.2 219.906Z" fill="#3F3D56"/>
<path opacity="0.1" d="M1133.53 204.317C1141.66 201.516 1146.58 195.711 1144.54 191.352C1142.49 186.993 1134.24 185.731 1126.12 188.532C1117.99 191.334 1113.07 197.139 1115.11 201.498C1117.16 205.857 1125.41 207.119 1133.53 204.317Z" fill="black" fill-opacity="0.8"/>
<path d="M1132.92 203.26C1141.04 200.459 1145.97 194.654 1143.92 190.295C1141.87 185.936 1133.63 184.674 1125.5 187.475C1117.38 190.277 1112.45 196.082 1114.5 200.441C1116.55 204.8 1124.79 206.062 1132.92 203.26Z" fill="#F2F2F2" fill-opacity="0.8"/>
<path d="M1039.18 185.069C1039.03 187.89 1037.56 191.449 1034.92 194.878C1030.68 200.397 1024.86 203.646 1021.27 202.694C1021.81 201.668 1022.27 200.958 1022.27 200.958C1024.86 188.321 1038.28 185.262 1039.18 185.069Z" fill="#F2F2F2" fill-opacity="0.8"/>
<path d="M1082.65 193.075H1058.33L1057.1 189.517H1086.65L1082.65 193.075Z" fill="#36334A" fill-opacity="0.8"/>
<path d="M1076.8 214.422H1037.39V224.206H1076.8V214.422Z" fill="#36334A" fill-opacity="0.8"/>
<path opacity="0.1" d="M1120.24 233.99C1122.96 233.99 1125.17 231.8 1125.17 229.098C1125.17 226.396 1122.96 224.206 1120.24 224.206C1117.52 224.206 1115.31 226.396 1115.31 229.098C1115.31 231.8 1117.52 233.99 1120.24 233.99Z" fill="black" fill-opacity="0.8"/>
<path d="M1119.34 233.101C1122.56 233.101 1125.17 231.11 1125.17 228.653C1125.17 226.197 1122.56 224.206 1119.34 224.206C1116.13 224.206 1113.52 226.197 1113.52 228.653C1113.52 231.11 1116.13 233.101 1119.34 233.101Z" fill="#F2F2F2" fill-opacity="0.8"/>
<path d="M1273.4 91.6752C1272.16 91.6752 1271.16 89.4849 1271.16 86.7831C1271.16 84.0813 1272.16 81.891 1273.4 81.891C1274.63 81.891 1275.63 84.0813 1275.63 86.7831C1275.63 89.4849 1274.63 91.6752 1273.4 91.6752Z" fill="#F2F2F2"/>
<path d="M1262.87 204.131C1259.48 213.122 1259.18 227.138 1259.18 227.138L1257.94 230.841L1197.93 236.659C1197.93 236.659 1198.24 210.742 1199.16 198.577C1199.81 189.996 1197.4 182.731 1195.92 179.196L1200.39 179.272L1253.82 177.064C1262.75 182.441 1265.91 196.057 1262.87 204.131Z" fill="#36334A" fill-opacity="0.8"/>
<path d="M1249.22 188.369C1249.02 188.38 1248.82 188.424 1248.64 188.498C1248.46 188.573 1248.31 188.676 1248.18 188.801C1248.06 188.927 1247.97 189.071 1247.92 189.226C1247.87 189.381 1247.86 189.543 1247.89 189.701C1247.92 189.833 1247.98 189.958 1248.09 190.064C1248.19 190.171 1248.32 190.256 1248.48 190.311C1249.43 190.688 1255.75 189.843 1258.15 189.507C1258.51 189.461 1258.83 189.323 1259.08 189.114C1259.32 188.905 1259.48 188.638 1259.51 188.353C1259.54 188.021 1259.39 187.738 1258.77 187.738L1249.22 188.369Z" fill="#F2F2F2" fill-opacity="0.8"/>
<path d="M1195.92 178.177C1195.92 178.177 1197.37 183.852 1204.35 182.046L1206.67 174.049L1202.02 171.727L1195.92 178.177Z" fill="#36334A" fill-opacity="0.8"/>
<path d="M1204.38 166.465C1207.8 164.72 1213.22 163.194 1218.59 166.859C1219.7 167.618 1220.49 168.679 1220.82 169.871C1221.16 171.063 1221.01 172.316 1220.42 173.429C1218.66 176.703 1214.49 180.256 1204.76 176.002C1203.81 175.584 1202.99 174.963 1202.39 174.197L1202.34 174.133C1201.87 173.52 1201.55 172.83 1201.4 172.107C1201.24 171.383 1201.26 170.641 1201.45 169.924C1201.64 169.207 1202 168.531 1202.5 167.936C1203.01 167.342 1203.64 166.842 1204.38 166.465Z" fill="#36334A" fill-opacity="0.8"/>
<path d="M1168.16 237.548C1171.62 237.548 1174.43 235.358 1174.43 232.656C1174.43 229.954 1171.62 227.764 1168.16 227.764C1164.69 227.764 1161.89 229.954 1161.89 232.656C1161.89 235.358 1164.69 237.548 1168.16 237.548Z" fill="#F2F2F2" fill-opacity="0.8"/>
<path d="M1295.34 228.653C1297.32 228.653 1298.92 226.065 1298.92 222.872C1298.92 219.679 1297.32 217.09 1295.34 217.09C1293.36 217.09 1291.76 219.679 1291.76 222.872C1291.76 226.065 1293.36 228.653 1295.34 228.653Z" fill="#F2F2F2" fill-opacity="0.8"/>
<path d="M1167.54 216.201H1166.99C1165.16 216.201 1163.68 217.703 1163.68 219.555V222.631C1163.68 224.483 1165.16 225.985 1166.99 225.985H1167.54C1169.36 225.985 1170.84 224.483 1170.84 222.631V219.555C1170.84 217.703 1169.36 216.201 1167.54 216.201Z" fill="#36334A" fill-opacity="0.8"/>
<path d="M1295.15 205.527C1295.41 205.527 1295.67 205.578 1295.91 205.676C1296.15 205.775 1296.37 205.919 1296.55 206.1C1296.73 206.282 1296.88 206.498 1296.98 206.735C1297.08 206.973 1297.13 207.227 1297.13 207.484V211.957C1297.13 212.847 1296.77 213.7 1296.14 214.329C1295.5 214.958 1294.64 215.312 1293.74 215.312C1293.21 215.312 1292.71 215.105 1292.34 214.738C1291.97 214.371 1291.76 213.874 1291.76 213.355V208.882C1291.76 207.992 1292.11 207.139 1292.75 206.51C1293.39 205.881 1294.25 205.527 1295.15 205.527Z" fill="#36334A" fill-opacity="0.8"/>
<path d="M1294.74 240.217C1293.95 240.217 1293.19 239.863 1292.63 239.234C1292.07 238.605 1291.76 237.752 1291.76 236.862V233.787C1291.76 232.897 1292.07 232.044 1292.63 231.415C1293.19 230.786 1293.95 230.432 1294.74 230.432C1296.38 230.432 1296.23 231.942 1296.23 233.787V236.862C1296.23 238.707 1296.39 240.217 1294.74 240.217Z" fill="#36334A" fill-opacity="0.8"/>
<path d="M1285.31 217.98C1286.31 217.98 1287.26 218.333 1287.97 218.962C1288.67 219.591 1289.07 220.445 1289.07 221.334V225.528C1289.07 226.121 1288.81 226.689 1288.34 227.109C1287.86 227.528 1287.23 227.764 1286.56 227.764C1285.56 227.764 1284.61 227.41 1283.9 226.781C1283.2 226.152 1282.8 225.299 1282.8 224.409V220.216C1282.8 219.623 1283.06 219.054 1283.53 218.635C1284 218.215 1284.64 217.98 1285.31 217.98Z" fill="#36334A" fill-opacity="0.8"/>
<path d="M1306.98 221.665C1306.98 222.146 1306.98 222.626 1306.95 223.102C1306.86 224.951 1306.6 226.792 1306.17 228.606C1305.96 228.637 1305.74 228.653 1305.52 228.653C1304.48 228.653 1303.49 228.3 1302.75 227.671C1302.02 227.042 1301.61 226.189 1301.61 225.299V222.224C1301.61 221.334 1302.02 220.481 1302.75 219.852C1303.49 219.223 1304.48 218.869 1305.52 218.869C1305.86 218.869 1306.2 218.907 1306.53 218.984C1306.65 219.012 1306.76 219.043 1306.88 219.079C1306.95 219.929 1306.98 220.793 1306.98 221.665Z" fill="#36334A" fill-opacity="0.8"/>
<path d="M1183.24 227.764H1182.62C1180.57 227.764 1178.9 229.129 1178.9 230.814V233.609C1178.9 235.293 1180.57 236.659 1182.62 236.659H1183.24C1185.3 236.659 1186.97 235.293 1186.97 233.609V230.814C1186.97 229.129 1185.3 227.764 1183.24 227.764Z" fill="#36334A" fill-opacity="0.8"/>
<path d="M1152.79 227.764H1152.17C1150.12 227.764 1148.45 229.129 1148.45 230.814V233.609C1148.45 235.293 1150.12 236.659 1152.17 236.659H1152.79C1154.85 236.659 1156.51 235.293 1156.51 233.609V230.814C1156.51 229.129 1154.85 227.764 1152.79 227.764Z" fill="#36334A" fill-opacity="0.8"/>
<path d="M1167.54 241.106H1166.99C1165.16 241.106 1163.68 242.608 1163.68 244.461V247.536C1163.68 249.388 1165.16 250.89 1166.99 250.89H1167.54C1169.36 250.89 1170.84 249.388 1170.84 247.536V244.461C1170.84 242.608 1169.36 241.106 1167.54 241.106Z" fill="#36334A" fill-opacity="0.8"/>
<path d="M1274.74 125.917C1274.74 126.378 1274.64 126.834 1274.44 127.267C1274.1 128.035 1273.49 128.701 1272.67 129.175C1271.86 129.65 1270.88 129.91 1269.88 129.922C1268.88 129.933 1267.89 129.696 1267.06 129.24C1266.23 128.785 1265.59 128.133 1265.22 127.373C1265 126.912 1264.89 126.42 1264.89 125.924C1264.89 124.862 1265.41 123.842 1266.33 123.091C1267.25 122.339 1268.5 121.917 1269.81 121.917C1271.11 121.917 1272.37 122.339 1273.29 123.091C1274.21 123.842 1274.73 124.862 1274.73 125.924L1274.74 125.917Z" fill="#FF6584" fill-opacity="0.8"/>
<path d="M1266.48 126.724C1266.13 126.213 1265.9 125.651 1265.81 125.071C1265.73 124.491 1265.79 123.903 1265.99 123.342C1266.2 122.78 1266.54 122.256 1266.99 121.799C1267.45 121.341 1268.02 120.96 1268.66 120.677C1269.29 120.396 1269.97 120.214 1270.68 120.141C1269.91 120.119 1269.14 120.224 1268.43 120.45C1267.71 120.676 1267.06 121.016 1266.51 121.452C1265.97 121.887 1265.54 122.406 1265.27 122.978C1264.99 123.55 1264.86 124.161 1264.89 124.774C1264.92 125.386 1265.12 125.987 1265.46 126.538C1265.79 127.089 1266.27 127.578 1266.86 127.975C1267.45 128.372 1268.13 128.668 1268.87 128.845C1269.61 129.021 1270.39 129.074 1271.16 129.001C1270.2 128.972 1269.26 128.747 1268.44 128.348C1267.63 127.949 1266.95 127.39 1266.48 126.724Z" fill="#FF6584" fill-opacity="0.8"/>
<path d="M1277.43 131.701H1263.99V150.38H1277.43V131.701Z" fill="#FF6584" fill-opacity="0.8"/>
<path opacity="0.1" d="M1278.32 131.701H1263.99V149.491H1278.32V131.701Z" fill="black" fill-opacity="0.8"/>
<path d="M1242.42 198.411C1242.42 198.411 1240.79 201.874 1236.94 202.359C1233.08 202.844 1230.85 203.617 1230.85 203.617L1239.99 208.196L1244.87 207.721C1244.87 207.721 1245.47 202.825 1247.5 201.72C1249.54 200.614 1242.42 198.411 1242.42 198.411Z" fill="#FBBEBE" fill-opacity="0.8"/>
<path d="M1301.11 198.411C1301.11 198.411 1302.56 201.872 1306.01 202.356C1309.46 202.84 1311.46 203.62 1311.46 203.62L1303.28 208.196L1298.92 207.722C1298.92 207.722 1298.38 202.83 1296.56 201.725C1294.74 200.621 1301.11 198.411 1301.11 198.411Z" fill="#FBBEBE" fill-opacity="0.8"/>
<path d="M1261.14 168.17C1261.14 168.17 1258.96 169.116 1258.23 171.006C1258.23 171.006 1254.24 172.109 1252.04 175.104C1252.04 175.104 1249.31 177.624 1248.94 178.886C1248.58 180.149 1244.39 187.722 1244.39 187.722C1244.39 187.722 1240.2 199.539 1238.02 200.801C1238.02 200.801 1244.94 199.539 1246.21 205.527C1246.21 205.527 1247.85 205.527 1249.67 200.012C1251.49 194.497 1255.86 187.722 1255.86 187.722C1255.86 187.722 1257.32 182.993 1258.59 182.206C1259.87 181.42 1261.87 177.794 1263.69 178.738C1265.51 179.681 1277.53 178.581 1277.53 178.581C1277.53 178.581 1284.63 181.417 1284.81 183.309C1284.99 185.202 1286.27 185.356 1286.45 186.932C1286.63 188.508 1293.37 200.958 1293.37 200.958C1293.37 200.958 1294.65 204.414 1295.01 205.211C1295.01 205.211 1299.02 196.86 1304.3 201.586C1304.3 201.586 1304.11 198.433 1302.47 196.535C1300.83 194.638 1293.73 179.83 1293.73 179.83C1293.73 179.83 1293.01 177.624 1292.28 176.994C1291.55 176.364 1285.91 171.322 1283.91 171.322C1283.91 171.322 1282.81 168.956 1281.54 168.643L1261.14 168.17Z" fill="#696880"/>
<path d="M1245.17 206.637C1243.79 207.147 1242.29 207.319 1240.82 207.136C1239.35 206.953 1237.95 206.422 1236.77 205.595C1235.62 204.782 1234.36 204.111 1233.02 203.597C1231.15 202.9 1228.91 202.382 1228.23 203.55C1227 205.661 1243.23 210.864 1243.23 210.864C1243.23 210.864 1245.35 209.724 1245.17 206.637Z" fill="#696880"/>
<path d="M1298.93 206.637C1300.31 207.147 1301.81 207.319 1303.28 207.136C1304.75 206.953 1306.15 206.422 1307.33 205.595C1308.48 204.782 1309.74 204.111 1311.08 203.597C1312.95 202.9 1315.19 202.382 1315.87 203.55C1317.11 205.661 1300.87 210.864 1300.87 210.864C1300.87 210.864 1298.76 209.724 1298.93 206.637Z" fill="#696880"/>
<path d="M1267.85 142.317C1267.78 142.869 1267.59 143.466 1267.09 143.761C1266.68 144.002 1266.16 143.981 1265.68 144.074C1265.18 144.19 1264.72 144.415 1264.33 144.729C1263.94 145.044 1263.64 145.44 1263.45 145.886C1263.07 146.785 1262.99 147.773 1263.23 148.713C1263.35 149.174 1263.49 149.628 1263.67 150.071C1264.17 151.39 1264.77 152.695 1265.69 153.793C1266.48 154.664 1267.37 155.451 1268.35 156.141C1268.95 156.601 1269.57 157.073 1270.31 157.29C1270.82 157.415 1271.34 157.479 1271.86 157.48C1272.5 157.51 1273.18 157.529 1273.74 157.229C1274.6 156.765 1274.85 155.739 1275.31 154.919C1275.71 154.219 1276.3 153.63 1276.67 152.917C1276.93 152.358 1277.12 151.773 1277.24 151.173L1278.03 147.874C1278.32 146.679 1278.58 145.328 1277.86 144.302C1277.81 144.217 1277.74 144.146 1277.65 144.096C1277.51 144.044 1277.36 144.029 1277.22 144.053C1276.31 144.11 1275.4 143.916 1274.6 143.493C1274.48 143.434 1274.37 143.352 1274.28 143.252C1274.16 143.082 1274.09 142.888 1274.07 142.686C1274 142.277 1273.87 141.877 1273.71 141.491C1273.66 141.354 1273.57 141.231 1273.46 141.135C1273.34 141.063 1273.2 141.02 1273.06 141.009C1271.84 140.822 1270.6 140.7 1269.37 140.645C1268.96 140.628 1268.35 140.476 1268.07 140.811C1267.79 141.146 1267.89 141.915 1267.85 142.317Z" fill="#FBBEBE" fill-opacity="0.8"/>
<path opacity="0.1" d="M1267.85 142.317C1267.78 142.869 1267.59 143.466 1267.09 143.761C1266.68 144.002 1266.16 143.981 1265.68 144.074C1265.18 144.19 1264.72 144.415 1264.33 144.729C1263.94 145.044 1263.64 145.44 1263.45 145.886C1263.07 146.785 1262.99 147.773 1263.23 148.713C1263.35 149.174 1263.49 149.628 1263.67 150.071C1264.17 151.39 1264.77 152.695 1265.69 153.793C1266.48 154.664 1267.37 155.451 1268.35 156.141C1268.95 156.601 1269.57 157.073 1270.31 157.29C1270.82 157.415 1271.34 157.479 1271.86 157.48C1272.5 157.51 1273.18 157.529 1273.74 157.229C1274.6 156.765 1274.85 155.739 1275.31 154.919C1275.71 154.219 1276.3 153.63 1276.67 152.917C1276.93 152.358 1277.12 151.773 1277.24 151.173L1278.03 147.874C1278.32 146.679 1278.58 145.328 1277.86 144.302C1277.81 144.217 1277.74 144.146 1277.65 144.096C1277.51 144.044 1277.36 144.029 1277.22 144.053C1276.31 144.11 1275.4 143.916 1274.6 143.493C1274.48 143.434 1274.37 143.352 1274.28 143.252C1274.16 143.082 1274.09 142.888 1274.07 142.686C1274 142.277 1273.87 141.877 1273.71 141.491C1273.66 141.354 1273.57 141.231 1273.46 141.135C1273.34 141.063 1273.2 141.02 1273.06 141.009C1271.84 140.822 1270.6 140.7 1269.37 140.645C1268.96 140.628 1268.35 140.476 1268.07 140.811C1267.79 141.146 1267.89 141.915 1267.85 142.317Z" fill="black" fill-opacity="0.8"/>
<path d="M1264.7 143.969C1263.96 143.784 1263.2 143.681 1262.44 143.665C1260.62 143.628 1258.69 144.16 1257.64 145.415C1256.93 146.32 1256.67 147.426 1256.92 148.492C1257.17 149.551 1257.74 150.538 1258.56 151.36C1259.04 151.791 1259.47 152.263 1259.83 152.768C1260.33 153.575 1260.34 154.537 1260.46 155.456C1260.78 157.636 1261.88 159.689 1262.31 161.856C1262.75 164.022 1262.37 166.537 1260.35 167.919C1260.01 168.15 1259.6 168.392 1259.58 168.76C1259.53 169.349 1260.43 169.601 1261.12 169.655C1263.2 169.825 1265.33 169.988 1267.34 169.534C1268.18 169.346 1268.98 169.053 1269.83 168.919C1271.99 168.577 1274.15 169.276 1276.31 169.615C1277.87 169.832 1279.45 169.941 1281.03 169.94C1281.4 169.968 1281.77 169.927 1282.12 169.819C1282.29 169.762 1282.44 169.66 1282.53 169.527C1282.63 169.395 1282.68 169.239 1282.67 169.083C1282.6 168.88 1282.47 168.695 1282.29 168.545C1281.2 167.4 1280.87 165.884 1280.57 164.436L1279.59 159.558C1279.06 156.956 1278.56 154.131 1280.01 151.793C1281.06 150.113 1282.98 148.93 1284.08 147.278C1284.47 146.777 1284.64 146.179 1284.58 145.582C1284.41 144.751 1283.53 144.157 1282.62 143.808C1280.88 143.147 1278.91 143.087 1277.12 143.638C1277.15 144.802 1276.8 145.979 1276.57 147.132L1276.19 149.014C1275.99 150.122 1275.71 151.218 1275.33 152.293C1275.19 152.722 1274.96 153.125 1274.65 153.481C1274.31 153.8 1273.89 154.055 1273.43 154.231C1272.43 154.645 1271.33 154.858 1270.22 154.851C1269.74 154.86 1269.26 154.798 1268.8 154.669C1268.05 154.438 1267.43 153.962 1266.84 153.5C1266.65 153.36 1266.48 153.201 1266.33 153.027C1266.17 152.802 1266.06 152.561 1265.98 152.309C1265.72 151.652 1265.52 150.98 1265.38 150.299C1265.28 149.777 1265.25 149.248 1265.2 148.721C1265.06 147.194 1265.07 145.466 1264.7 143.969Z" fill="#F2F2F2" fill-opacity="0.8"/>
<path d="M1263.14 174.396C1263.14 174.396 1262.38 182.622 1267.11 184.02C1271.83 185.418 1267.68 177.189 1267.68 177.189L1266.16 174.705L1263.14 174.396Z" fill="#FBBEBE" fill-opacity="0.8"/>
<path d="M1278.28 174.396C1278.28 174.396 1278.93 182.622 1274.88 184.02C1270.83 185.418 1274.4 177.189 1274.4 177.189L1275.69 174.705L1278.28 174.396Z" fill="#FBBEBE" fill-opacity="0.8"/>
<path opacity="0.1" d="M1259.28 147.3L1257.72 149.334C1257.72 149.334 1259.09 156.373 1259.28 157.624C1259.45 158.525 1259.71 159.413 1260.06 160.278C1260.06 160.278 1260.26 164.033 1260.26 165.439C1260.26 166.846 1261.25 169.194 1261.25 169.194C1261.38 170.524 1261.72 171.836 1262.24 173.104C1263.02 174.827 1263.8 176.859 1263.8 176.859C1263.8 176.859 1264.79 174.669 1268.69 177.954C1269.12 177.599 1269.37 177.121 1269.37 176.624C1269.37 176.126 1269.12 175.649 1268.69 175.294C1268.69 175.294 1267.51 171.072 1267.51 168.883C1267.51 166.693 1265.36 156.218 1265.36 156.218C1265.36 156.218 1263.97 144.326 1259.28 147.3Z" fill="black" fill-opacity="0.8"/>
<path d="M1258.51 147.282L1256.83 149.256C1256.83 149.256 1258.3 156.093 1258.51 157.31C1258.69 158.186 1258.97 159.049 1259.35 159.891C1259.35 159.891 1259.57 163.538 1259.57 164.909C1259.57 166.28 1260.63 168.556 1260.63 168.556C1260.78 169.848 1261.14 171.122 1261.7 172.354C1262.54 174.025 1263.38 176.001 1263.38 176.001C1263.38 176.001 1264.44 173.874 1268.63 177.064C1269.1 176.72 1269.37 176.256 1269.37 175.773C1269.37 175.289 1269.1 174.825 1268.63 174.481C1268.63 174.481 1267.37 170.381 1267.37 168.251C1267.37 166.121 1265.06 155.95 1265.06 155.95C1265.06 155.95 1263.54 144.407 1258.51 147.282Z" fill="#F2F2F2" fill-opacity="0.8"/>
<path opacity="0.1" d="M1283.33 145.923L1284.33 146.853C1284.33 146.853 1285.49 152.171 1282.93 158.886L1282.14 164.98C1282.14 164.98 1280.76 170.132 1280.56 171.384C1280.36 172.635 1280.36 172.788 1279.97 173.257C1279.85 173.366 1279.78 173.507 1279.78 173.652C1279.78 173.797 1279.85 173.938 1279.97 174.047L1278.78 177.485C1278.78 177.485 1277 175.767 1273.46 177.954C1273.46 177.954 1272.46 176.702 1273.26 175.609C1274.06 174.516 1274.05 174.047 1273.85 173.736C1273.66 173.425 1274.64 171.86 1274.64 171.55C1274.64 171.239 1276.02 164.052 1276.02 164.052C1276.02 164.052 1276.61 157.024 1277.21 154.682C1277.57 153.241 1277.56 150.027 1277.5 147.767C1277.44 145.414 1281.04 144.137 1283.16 145.794C1283.22 145.828 1283.27 145.875 1283.33 145.923Z" fill="black" fill-opacity="0.8"/>
<path d="M1283.43 145.373L1284.35 146.293C1284.35 146.293 1285.42 151.556 1283.06 158.205L1282.33 164.234C1282.33 164.234 1281.05 169.338 1280.87 170.574C1280.68 171.81 1280.69 171.966 1280.32 172.428C1280.21 172.537 1280.15 172.675 1280.15 172.819C1280.15 172.962 1280.21 173.101 1280.32 173.21L1279.23 176.6C1279.23 176.6 1277.59 174.9 1274.31 177.064C1274.31 177.064 1273.39 175.828 1274.13 174.746C1274.87 173.664 1274.86 173.2 1274.68 172.889C1274.49 172.579 1275.41 171.035 1275.41 170.725C1275.41 170.415 1276.68 163.303 1276.68 163.303C1276.68 163.303 1277.23 156.346 1277.77 154.028C1278.32 151.71 1277.96 144.752 1277.96 144.752C1277.96 144.752 1280.88 143.057 1283.43 145.373Z" fill="#F2F2F2" fill-opacity="0.8"/>
<path d="M1271.16 143.264C1275.11 143.264 1278.32 140.278 1278.32 136.593C1278.32 132.909 1275.11 129.922 1271.16 129.922C1267.2 129.922 1263.99 132.909 1263.99 136.593C1263.99 140.278 1267.2 143.264 1271.16 143.264Z" fill="#FBBEBE" fill-opacity="0.8"/>
<path opacity="0.1" d="M1274.74 126.747C1274.38 127.665 1273.72 128.462 1272.85 129.029C1271.97 129.597 1270.93 129.908 1269.86 129.922C1268.79 129.936 1267.74 129.651 1266.85 129.106C1265.96 128.562 1265.28 127.783 1264.89 126.874C1267.82 125.8 1270.82 126.758 1270.82 126.758C1272.31 126.276 1273.61 126.322 1274.74 126.747Z" fill="black" fill-opacity="0.8"/>
<path d="M1270.85 127.617C1270.85 127.617 1256.54 123.354 1260.07 144.044C1260.07 144.044 1263.23 145.781 1265.65 144.675C1265.65 144.675 1263.97 130.289 1270.47 130.934C1276.98 131.578 1275.86 144.358 1275.86 144.358C1275.86 144.358 1279.58 145.307 1280.69 143.559C1281.8 141.811 1280.32 124.772 1270.85 127.617Z" fill="#FF6584" fill-opacity="0.8"/>
<path opacity="0.1" d="M1270.5 129.942C1266.3 129.518 1265.73 135.996 1265.79 140.106C1265.84 136.022 1266.62 130.476 1270.5 130.869C1274.87 131.309 1275.58 137.805 1275.63 141.485C1275.68 138.11 1275.26 130.424 1270.5 129.942Z" fill="black" fill-opacity="0.8"/>
<path opacity="0.1" d="M1260.08 143.186C1259.75 141.444 1259.56 139.688 1259.51 137.928C1259.5 139.989 1259.69 142.048 1260.08 144.085C1260.08 144.085 1263.31 145.751 1265.78 144.69C1265.78 144.69 1265.74 144.363 1265.7 143.814C1263.24 144.826 1260.08 143.186 1260.08 143.186Z" fill="black" fill-opacity="0.8"/>
<path opacity="0.1" d="M1280.67 142.698C1279.59 144.603 1276.15 143.768 1275.69 143.639C1275.66 144.33 1275.63 144.741 1275.63 144.741C1275.63 144.741 1279.51 145.858 1280.67 143.799C1280.92 143.376 1281.04 142.187 1281 140.596C1280.97 141.634 1280.85 142.381 1280.67 142.698Z" fill="black" fill-opacity="0.8"/>
<path d="M1312.36 241.742C1312.36 241.742 1315.48 241.656 1316.43 241.049C1317.37 240.443 1321.24 239.72 1321.48 240.692C1321.71 241.664 1326.18 245.528 1322.65 245.553C1319.11 245.577 1314.44 245.057 1313.49 244.539C1312.55 244.021 1312.36 241.742 1312.36 241.742Z" fill="#656380"/>
<path opacity="0.2" d="M1322.71 245.24C1319.18 245.263 1314.5 244.774 1313.56 244.294C1312.84 243.924 1312.56 242.606 1312.46 241.995H1312.36C1312.36 241.995 1312.55 244.123 1313.49 244.606C1314.44 245.09 1319.11 245.576 1322.65 245.553C1323.66 245.553 1324.02 245.24 1324 244.777C1323.86 245.064 1323.46 245.235 1322.71 245.24Z" fill="black" fill-opacity="0.8"/>
<defs>
<clipPath id="clip0">
<rect width="660" height="399.372" transform="matrix(-1 0 0 1 979 0.188965)" fill="white"/>
</clipPath>
</defs>
</svg>
