<svg width="1440" height="539" viewBox="0 0 1440 539" fill="none" xmlns="http://www.w3.org/2000/svg">
<g opacity="0.15">
<path d="M8.86933 86.8453L-2 74.8999L58.8611 0.244751H213.188V65.9421L113.202 158.515L8.86933 86.8453Z" fill="#062A78" fill-opacity="0.5"/>
<path d="M241.802 42.1293V1.73625H221.373V11.628L213.747 0.244751L163.902 74.9145L144.397 92.8361L114.152 397.36L159.762 460.219H265.762V77.9027L241.802 42.1293Z" fill="#CCCCCC"/>
<path d="M163.059 74.4341H-2V460.219H163.059V74.4341Z" fill="#F2F2F2"/>
<path d="M93.3672 365.009H62.8008V460.219H93.3672V365.009Z" fill="#CCCCCC"/>
<path d="M29.7891 392.212V377.374H16.3398V392.212H28.6678H29.7891Z" fill="#062A78" fill-opacity="0.5"/>
<path d="M28.6678 404.577H16.3398V419.415H29.7891V404.577H28.6678Z" fill="#062A78" fill-opacity="0.5"/>
<path d="M51.7969 377.374H38.3477V392.212H51.7969V377.374Z" fill="#062A78" fill-opacity="0.5"/>
<path d="M51.7969 404.577H38.3477V419.415H51.7969V404.577Z" fill="#062A78" fill-opacity="0.5"/>
<path d="M119.043 392.212V377.374H105.594V392.212H117.922H119.043Z" fill="#062A78" fill-opacity="0.5"/>
<path d="M117.922 404.577H105.594V419.415H119.043V404.577H117.922Z" fill="#062A78" fill-opacity="0.5"/>
<path d="M141.051 377.374H127.602V392.212H141.051V377.374Z" fill="#062A78" fill-opacity="0.5"/>
<path d="M141.051 404.577H127.602V419.415H141.051V404.577Z" fill="#062A78" fill-opacity="0.5"/>
<path d="M210.742 94.2178V79.3799H197.293V94.2178H209.623H210.742Z" fill="#062A78" fill-opacity="0.5"/>
<path d="M209.623 106.583H197.293V121.421H210.742V106.583H209.623Z" fill="#062A78" fill-opacity="0.5"/>
<path d="M232.75 79.3799H219.301V94.2178H232.75V79.3799Z" fill="#062A78" fill-opacity="0.5"/>
<path d="M232.75 106.583H219.301V121.421H232.75V106.583Z" fill="#062A78" fill-opacity="0.5"/>
<path d="M210.742 178.299V163.461H197.293V178.299H209.623H210.742Z" fill="#062A78" fill-opacity="0.5"/>
<path d="M209.623 190.664H197.293V205.502H210.742V190.664H209.623Z" fill="#062A78" fill-opacity="0.5"/>
<path d="M232.75 163.461H219.301V178.299H232.75V163.461Z" fill="#062A78" fill-opacity="0.5"/>
<path d="M232.75 190.664H219.301V205.502H232.75V190.664Z" fill="#062A78" fill-opacity="0.5"/>
<path d="M210.742 261.144V246.306H197.293V261.144H209.623H210.742Z" fill="#062A78" fill-opacity="0.5"/>
<path d="M209.623 273.509H197.293V288.347H210.742V273.509H209.623Z" fill="#062A78" fill-opacity="0.5"/>
<path d="M232.75 246.306H219.301V261.144H232.75V246.306Z" fill="#062A78" fill-opacity="0.5"/>
<path d="M232.75 273.509H219.301V288.347H232.75V273.509Z" fill="#062A78" fill-opacity="0.5"/>
<path d="M210.742 345.225V330.387H197.293V345.225H209.623H210.742Z" fill="#062A78" fill-opacity="0.5"/>
<path d="M209.623 357.59H197.293V372.428H210.742V357.59H209.623Z" fill="#062A78" fill-opacity="0.5"/>
<path d="M232.75 330.387H219.301V345.225H232.75V330.387Z" fill="#062A78" fill-opacity="0.5"/>
<path d="M232.75 357.59H219.301V372.428H232.75V357.59Z" fill="#062A78" fill-opacity="0.5"/>
<path d="M143.496 94.2179H16.3398V130.076H143.496V94.2179Z" fill="#062A78" fill-opacity="0.5"/>
<path d="M143.496 165.934H16.3398V201.792H143.496V165.934Z" fill="#062A78" fill-opacity="0.5"/>
<path d="M143.496 237.651H16.3398V273.509H143.496V237.651Z" fill="#062A78" fill-opacity="0.5"/>
<path d="M143.496 309.367H16.3398V345.225H143.496V309.367Z" fill="#062A78" fill-opacity="0.5"/>
<path d="M257.054 436.725C254.22 438.74 251.586 441.245 249.215 444.18C246.804 441.232 244.126 438.726 241.247 436.725C238.414 438.74 235.779 441.245 233.408 444.18C230.998 441.232 228.319 438.726 225.44 436.725C225.44 436.725 213.154 445.039 213.188 455.199C213.188 455.453 213.197 455.706 213.213 455.957C213.632 462.609 226.335 464.304 233.314 461.169C238.48 463.197 243.955 463.197 249.12 461.169C256.069 464.354 269.031 462.53 269.409 455.801C269.424 455.55 269.43 455.297 269.43 455.043C269.396 444.883 257.054 436.725 257.054 436.725Z" fill="#6C63FF"/>
<path d="M199.665 86.8453L188.734 74.8999L249.941 0.244751H405.145V65.9421L304.591 158.515L199.665 86.8453Z" fill="#062A78" fill-opacity="0.5"/>
<path d="M433.566 42.1293V1.73625H412.972V11.628L405.284 0.244751L355.037 74.9145L335.375 92.8361L304.887 397.36L350.865 460.219H457.719V77.9027L433.566 42.1293Z" fill="#CCCCCC"/>
<path d="M355.016 74.4341H188.734V460.219H355.016V74.4341Z" fill="#F2F2F2"/>
<path d="M284.102 365.009H253.535V460.219H284.102V365.009Z" fill="#CCCCCC"/>
<path d="M220.523 392.212V377.374H208.297V392.212H219.504H220.523Z" fill="#062A78" fill-opacity="0.5"/>
<path d="M219.504 404.577H208.297V419.415H220.523V404.577H219.504Z" fill="#062A78" fill-opacity="0.5"/>
<path d="M242.531 377.374H229.082V392.212H242.531V377.374Z" fill="#062A78" fill-opacity="0.5"/>
<path d="M242.531 404.577H229.082V419.415H242.531V404.577Z" fill="#062A78" fill-opacity="0.5"/>
<path d="M309.777 392.212V377.374H297.551V392.212H308.758H309.777Z" fill="#062A78" fill-opacity="0.5"/>
<path d="M308.758 404.577H297.551V419.415H309.777V404.577H308.758Z" fill="#062A78" fill-opacity="0.5"/>
<path d="M331.785 377.374H318.336V392.212H331.785V377.374Z" fill="#062A78" fill-opacity="0.5"/>
<path d="M331.785 404.577H318.336V419.415H331.785V404.577Z" fill="#062A78" fill-opacity="0.5"/>
<path d="M401.477 94.2178V79.3799H388.027V94.2178H400.357H401.477Z" fill="#062A78" fill-opacity="0.5"/>
<path d="M400.357 106.583H388.027V121.421H401.477V106.583H400.357Z" fill="#062A78" fill-opacity="0.5"/>
<path d="M423.484 79.3799H410.035V94.2178H423.484V79.3799Z" fill="#062A78" fill-opacity="0.5"/>
<path d="M423.484 106.583H410.035V121.421H423.484V106.583Z" fill="#062A78" fill-opacity="0.5"/>
<path d="M401.477 178.299V163.461H388.027V178.299H400.357H401.477Z" fill="#062A78" fill-opacity="0.5"/>
<path d="M400.357 190.664H388.027V205.502H401.477V190.664H400.357Z" fill="#062A78" fill-opacity="0.5"/>
<path d="M423.484 163.461H410.035V178.299H423.484V163.461Z" fill="#062A78" fill-opacity="0.5"/>
<path d="M423.484 190.664H410.035V205.502H423.484V190.664Z" fill="#062A78" fill-opacity="0.5"/>
<path d="M401.477 261.144V246.306H388.027V261.144H400.357H401.477Z" fill="#062A78" fill-opacity="0.5"/>
<path d="M400.357 273.509H388.027V288.347H401.477V273.509H400.357Z" fill="#062A78" fill-opacity="0.5"/>
<path d="M423.484 246.306H410.035V261.144H423.484V246.306Z" fill="#062A78" fill-opacity="0.5"/>
<path d="M423.484 273.509H410.035V288.347H423.484V273.509Z" fill="#062A78" fill-opacity="0.5"/>
<path d="M401.477 345.225V330.387H388.027V345.225H400.357H401.477Z" fill="#062A78" fill-opacity="0.5"/>
<path d="M400.357 357.59H388.027V372.428H401.477V357.59H400.357Z" fill="#062A78" fill-opacity="0.5"/>
<path d="M423.484 330.387H410.035V345.225H423.484V330.387Z" fill="#062A78" fill-opacity="0.5"/>
<path d="M423.484 357.59H410.035V372.428H423.484V357.59Z" fill="#062A78" fill-opacity="0.5"/>
<path d="M334.23 94.2179H208.297V130.076H334.23V94.2179Z" fill="#062A78" fill-opacity="0.5"/>
<path d="M334.23 165.934H208.297V201.792H334.23V165.934Z" fill="#062A78" fill-opacity="0.5"/>
<path d="M334.23 237.651H208.297V273.509H334.23V237.651Z" fill="#062A78" fill-opacity="0.5"/>
<path d="M334.23 309.367H208.297V345.225H334.23V309.367Z" fill="#062A78" fill-opacity="0.5"/>
<path d="M572.648 173.353H567.758V457.746H572.648V173.353Z" fill="#062A78" fill-opacity="0.5"/>
<path d="M623.997 256.083C624.008 259.227 623.987 262.356 623.934 265.47C622.049 377.985 524.064 378.606 521.426 266.12C521.353 263.008 521.311 259.879 521.299 256.734C520.878 130.965 571.886 28.684 571.886 28.684C571.886 28.684 623.576 130.314 623.997 256.083Z" fill="#CDCDCD"/>
<path d="M554.159 436.725C551.326 438.644 548.692 441.03 546.32 443.825C543.91 441.017 541.231 438.631 538.353 436.725C535.519 438.644 532.885 441.03 530.514 443.825C528.103 441.017 525.425 438.631 522.546 436.725C522.546 436.725 510.259 444.644 510.293 454.32C510.294 454.561 510.302 454.802 510.318 455.042C510.738 461.377 523.441 462.991 530.419 460.005C535.585 461.936 541.06 461.936 546.226 460.005C553.174 463.039 566.136 461.301 566.515 454.893C566.529 454.653 566.536 454.413 566.535 454.171C566.501 444.495 554.159 436.725 554.159 436.725Z" fill="#CCCCCC"/>
</g>
<g opacity="0.2">
<path d="M1413.51 329.939C1411.59 331.329 1409.8 333.058 1408.18 335.082C1406.55 333.048 1404.73 331.319 1402.77 329.939C1400.84 331.329 1399.05 333.058 1397.44 335.082C1395.8 333.048 1393.98 331.319 1392.03 329.939C1392.03 329.939 1383.68 335.675 1383.7 342.685C1383.7 342.86 1383.7 343.035 1383.72 343.208C1384 347.798 1392.63 348.967 1397.38 346.804C1400.89 348.203 1404.61 348.203 1408.12 346.804C1412.84 349.002 1421.65 347.743 1421.91 343.101C1421.92 342.927 1421.92 342.753 1421.92 342.577C1421.9 335.568 1413.51 329.939 1413.51 329.939Z" fill="#F2F2F2"/>
<path d="M778.444 262.63L774 252.285L815.484 157.608H922.157V172.093L883.636 275.046L839.189 287.462L778.444 262.63Z" fill="#3F3D56"/>
<path d="M940.52 231.765V154.375H926.554V164.585L922.157 157.608L886.6 252.284L880.673 260.562L873.266 301.947L886.6 347.47H954.752V254.353L940.52 231.765Z" fill="#CCCCCC"/>
<path d="M886.6 252.284H774V347.471H886.6V252.284Z" fill="#F2F2F2"/>
<path d="M871.043 282.289H847.338V311.259H871.043V282.289Z" fill="#3F3D56"/>
<path d="M837.707 281.254H816.965V347.471H837.707V281.254Z" fill="#CCCCCC"/>
<path d="M793.261 291.601V281.255H784.371V291.601H792.52H793.261Z" fill="#3F3D56"/>
<path d="M792.52 299.878H784.371V310.224H793.261V299.878H792.52Z" fill="#3F3D56"/>
<path d="M808.076 281.254H799.187V291.601H808.076V281.254Z" fill="#3F3D56"/>
<path d="M808.076 299.878H799.187V310.224H808.076V299.878Z" fill="#3F3D56"/>
<path d="M918.454 294.136V283.79H909.564V294.136H917.713H918.454Z" fill="#3F3D56"/>
<path d="M917.713 302.413H909.564V312.759H918.454V302.413H917.713Z" fill="#3F3D56"/>
<path d="M933.269 283.789H924.38V294.136H933.269V283.789Z" fill="#3F3D56"/>
<path d="M933.269 302.413H924.38V312.759H933.269V302.413Z" fill="#3F3D56"/>
<path d="M825.066 196.521L823.896 193.799L834.812 168.888H862.878V172.699L852.744 199.788L841.049 203.055L825.066 196.521Z" fill="#3F3D56"/>
<path d="M862.878 168.888L853.524 193.799L851.964 195.977L850.014 206.867L853.524 218.843H871.455V194.343L862.878 168.888Z" fill="#CCCCCC"/>
<path d="M853.523 193.799H823.897V218.844H853.523V193.799Z" fill="#F2F2F2"/>
<path d="M836.448 204.592V199.651H832.204V204.592H836.095H836.448Z" fill="#3F3D56"/>
<path d="M836.095 208.544H832.204V213.483H836.448V208.544H836.095Z" fill="#3F3D56"/>
<path d="M843.522 199.651H839.278V204.591H843.522V199.651Z" fill="#3F3D56"/>
<path d="M843.522 208.543H839.278V213.483H843.522V208.543Z" fill="#3F3D56"/>
<path d="M912.736 262.63L908.29 252.285L949.774 157.608H1056.45V172.093L1017.93 275.046L973.48 287.462L912.736 262.63Z" fill="#3F3D56"/>
<path d="M1074.81 231.765V154.375H1060.84V164.585L1056.45 157.608L1020.89 252.284L1014.96 260.562L1007.56 301.947L1020.89 347.47H1089.04V254.353L1074.81 231.765Z" fill="#CCCCCC"/>
<path d="M1020.89 252.284H908.29V347.471H1020.89V252.284Z" fill="#F2F2F2"/>
<path d="M1005.33 282.289H981.629V311.259H1005.33V282.289Z" fill="#3F3D56"/>
<path d="M971.998 281.254H951.256V347.471H971.998V281.254Z" fill="#CCCCCC"/>
<path d="M927.55 291.601V281.254H918.661V291.601H926.811H927.55Z" fill="#3F3D56"/>
<path d="M926.811 299.878H918.661V310.224H927.55V299.878H926.811Z" fill="#3F3D56"/>
<path d="M942.367 281.254H933.477V291.601H942.367V281.254Z" fill="#3F3D56"/>
<path d="M942.367 299.878H933.477V310.224H942.367V299.878Z" fill="#3F3D56"/>
<path d="M1052.74 292.636V282.289H1043.85V292.636H1052H1052.74Z" fill="#3F3D56"/>
<path d="M1052 300.912H1043.85V311.259H1052.74V300.912H1052Z" fill="#3F3D56"/>
<path d="M1067.56 282.289H1058.67V292.636H1067.56V282.289Z" fill="#3F3D56"/>
<path d="M1067.56 300.912H1058.67V311.259H1067.56V300.912Z" fill="#3F3D56"/>
<path d="M1042.73 262.63L1038.28 252.285L1079.77 157.608H1186.44V172.093L1147.92 275.046L1103.47 287.462L1042.73 262.63Z" fill="#3F3D56"/>
<path d="M1204.8 231.765V154.375H1190.84V164.585L1186.44 157.608L1150.88 252.284L1144.96 260.562L1137.55 301.947L1150.88 347.47H1219.04V254.353L1204.8 231.765Z" fill="#CCCCCC"/>
<path d="M1150.88 252.284H1038.28V347.471H1150.88V252.284Z" fill="#F2F2F2"/>
<path d="M1135.33 282.289H1111.62V311.259H1135.33V282.289Z" fill="#3F3D56"/>
<path d="M1101.99 281.254H1081.25V347.471H1101.99V281.254Z" fill="#CCCCCC"/>
<path d="M1057.54 291.601V281.254H1048.66V291.601H1056.8H1057.54Z" fill="#3F3D56"/>
<path d="M1056.8 299.878H1048.66V310.224H1057.54V299.878H1056.8Z" fill="#3F3D56"/>
<path d="M1072.36 281.254H1063.47V291.601H1072.36V281.254Z" fill="#3F3D56"/>
<path d="M1072.36 299.878H1063.47V310.224H1072.36V299.878Z" fill="#3F3D56"/>
<path d="M1182.74 292.636V282.289H1173.85V292.636H1182H1182.74Z" fill="#3F3D56"/>
<path d="M1182 300.912H1173.85V311.259H1182.74V300.912H1182Z" fill="#3F3D56"/>
<path d="M1197.55 282.289H1188.66V292.636H1197.55V282.289Z" fill="#3F3D56"/>
<path d="M1197.55 300.912H1188.66V311.259H1197.55V300.912Z" fill="#3F3D56"/>
<path d="M956.134 198.022L954.965 195.299L965.879 170.388H993.947V174.2L983.811 201.289L972.116 204.554L956.134 198.022Z" fill="#3F3D56"/>
<path d="M993.947 170.388L984.591 195.299L983.032 197.477L981.083 208.366L984.591 220.345H1002.52V195.844L993.947 170.388Z" fill="#CCCCCC"/>
<path d="M984.591 195.3H954.965V220.344H984.591V195.3Z" fill="#F2F2F2"/>
<path d="M967.516 206.092V201.151H963.271V206.092H967.162H967.516Z" fill="#3F3D56"/>
<path d="M967.162 210.044H963.271V214.984H967.516V210.044H967.162Z" fill="#3F3D56"/>
<path d="M974.59 201.151H970.346V206.092H974.59V201.151Z" fill="#3F3D56"/>
<path d="M974.59 210.044H970.346V214.984H974.59V210.044Z" fill="#3F3D56"/>
<path d="M1087.2 196.521L1086.03 193.799L1096.95 168.888H1125.01V172.699L1114.88 199.788L1103.18 203.055L1087.2 196.521Z" fill="#3F3D56"/>
<path d="M1125.01 168.888L1115.66 193.799L1114.1 195.977L1112.15 206.867L1115.66 218.843H1133.59V194.343L1125.01 168.888Z" fill="#CCCCCC"/>
<path d="M1115.66 193.799H1086.03V218.844H1115.66V193.799Z" fill="#F2F2F2"/>
<path d="M1098.58 204.592V199.651H1094.34V204.592H1098.23H1098.58Z" fill="#3F3D56"/>
<path d="M1098.23 208.544H1094.34V213.483H1098.58V208.544H1098.23Z" fill="#3F3D56"/>
<path d="M1105.66 199.651H1101.41V204.591H1105.66V199.651Z" fill="#3F3D56"/>
<path d="M1105.66 208.543H1101.41V213.483H1105.66V208.543Z" fill="#3F3D56"/>
<path d="M1177.02 262.63L1172.57 252.285L1214.06 157.608H1320.73V172.093L1282.21 275.046L1237.76 287.462L1177.02 262.63Z" fill="#3F3D56"/>
<path d="M1339.1 170.887V154.375H1325.13V164.585L1320.73 157.608L1285.17 252.284L1279.25 260.562L1271.84 301.947L1285.17 347.47H1353.33V254.353L1339.1 170.887Z" fill="#CCCCCC"/>
<path d="M1285.17 252.284H1172.57V347.471H1285.17V252.284Z" fill="#F2F2F2"/>
<path d="M1269.62 282.289H1245.91V311.259H1269.62V282.289Z" fill="#3F3D56"/>
<path d="M1236.28 281.254H1215.54V347.471H1236.28V281.254Z" fill="#CCCCCC"/>
<path d="M1191.84 291.601V281.254H1182.95V291.601H1191.09H1191.84Z" fill="#3F3D56"/>
<path d="M1191.09 299.878H1182.95V310.224H1191.84V299.878H1191.09Z" fill="#3F3D56"/>
<path d="M1206.65 281.254H1197.76V291.601H1206.65V281.254Z" fill="#3F3D56"/>
<path d="M1206.65 299.878H1197.76V310.224H1206.65V299.878Z" fill="#3F3D56"/>
<path d="M1317.03 292.636V282.289H1308.14V292.636H1316.29H1317.03Z" fill="#3F3D56"/>
<path d="M1316.29 300.912H1308.14V311.259H1317.03V300.912H1316.29Z" fill="#3F3D56"/>
<path d="M1331.84 282.289H1322.95V292.636H1331.84V282.289Z" fill="#3F3D56"/>
<path d="M1331.84 300.912H1322.95V311.259H1331.84V300.912Z" fill="#3F3D56"/>
<path d="M1218.27 198.022L1217.1 195.299L1228.01 170.388H1256.08V174.2L1245.95 201.289L1234.25 204.554L1218.27 198.022Z" fill="#3F3D56"/>
<path d="M1256.08 170.388L1246.73 195.299L1245.17 197.477L1243.22 208.366L1246.73 220.345H1264.66V195.844L1256.08 170.388Z" fill="#CCCCCC"/>
<path d="M1246.73 195.3H1217.1V220.344H1246.73V195.3Z" fill="#F2F2F2"/>
<path d="M1229.65 206.092V201.151H1225.41V206.092H1229.3H1229.65Z" fill="#3F3D56"/>
<path d="M1229.3 210.044H1225.41V214.984H1229.65V210.044H1229.3Z" fill="#3F3D56"/>
<path d="M1236.73 201.151H1232.48V206.092H1236.73V201.151Z" fill="#3F3D56"/>
<path d="M1236.73 210.044H1232.48V214.984H1236.73V210.044Z" fill="#3F3D56"/>
<path d="M1403.37 148.594H1399.79V346.443H1403.37V148.594Z" fill="#3F3D56"/>
<path d="M1438.37 206.174C1438.38 208.351 1438.36 210.517 1438.33 212.672C1437.04 290.556 1370.19 290.986 1368.39 213.122C1368.34 210.968 1368.31 208.802 1368.3 206.625C1368.01 119.567 1402.81 48.767 1402.81 48.767C1402.81 48.767 1438.08 119.116 1438.37 206.174Z" fill="#C4C4C4"/>
</g>
<path opacity="0.5" d="M1307.65 161.371C1303.44 162.388 1298.22 165.015 1295.66 172.227C1290.61 186.353 1302.29 196.015 1298.46 210.685C1297.41 214.585 1295.41 218.259 1292.57 221.47C1287.89 226.802 1282.79 229.331 1277.86 233.067C1271.6 237.839 1267.11 244.03 1264.93 250.894C1262.55 258.471 1262.35 266.414 1264.35 274.068C1266.11 280.467 1269.1 285.122 1271.71 290.313C1274.96 296.937 1277.49 303.792 1279.28 310.796C1280.28 314.2 1280.84 317.682 1280.96 321.185C1281.05 325.586 1280.23 330.367 1279.43 335.085L1272.31 376.835C1271.36 382.393 1270.4 388.044 1270.37 393.334C1270.32 399.443 1271.48 404.691 1272.65 409.812C1275.17 420.858 1277.84 432.322 1283.58 438.149C1289.33 443.976 1299.07 441.956 1305.06 430.061C1310.77 418.761 1310.88 403.646 1315.91 391.554C1323.84 372.484 1339.6 369.941 1348.34 351.768C1356.75 334.337 1354.16 312.922 1358.43 293.06C1361.48 278.814 1367.96 265.818 1371.81 251.742C1377.33 231.464 1376.79 210.416 1372.37 194.835C1367.96 179.254 1360.03 168.554 1351.28 160.438C1347.57 156.999 1343.61 153.94 1338.95 153.637C1334 153.319 1329.7 158.581 1324.78 160.128C1319.08 161.915 1313.39 160.001 1307.65 161.371Z" fill="#067863"/>
<path opacity="0.5" d="M1334.47 154.626C1334.47 154.626 1326.06 334.93 1290.79 441.256" stroke="#535461" stroke-width="2" stroke-miterlimit="10"/>
<path opacity="0.5" d="M1295.44 173.109C1295.44 173.109 1333.11 201.934 1326 256.855" stroke="#535461" stroke-width="2" stroke-miterlimit="10"/>
<path opacity="0.5" d="M1263.8 255.125C1263.8 255.125 1325.71 265.578 1321.11 296.67" stroke="#535461" stroke-width="2" stroke-miterlimit="10"/>
<path opacity="0.5" d="M1372.45 194.404C1372.45 194.404 1347.41 212.818 1325.08 264.971" stroke="#535461" stroke-width="2" stroke-miterlimit="10"/>
<path opacity="0.5" d="M1347.96 352.029C1347.96 352.029 1330.87 363.33 1317.15 323.911" stroke="#535461" stroke-width="2" stroke-miterlimit="10"/>
<path opacity="0.5" d="M1274.23 375.019C1274.23 375.019 1309.08 371.198 1312.3 352.863" stroke="#535461" stroke-width="2" stroke-miterlimit="10"/>
<path opacity="0.1" d="M1031.74 467.684C1230.49 467.684 1391.6 454.81 1391.6 438.928C1391.6 423.046 1230.49 410.172 1031.74 410.172C832.999 410.172 671.885 423.046 671.885 438.928C671.885 454.81 832.999 467.684 1031.74 467.684Z" fill="#6C63FF"/>
<path d="M677.982 404.42C677.982 404.42 684.952 412.198 674.763 423.863C664.573 435.529 656.172 445.442 659.607 452.731C659.607 452.731 674.979 431.004 687.489 430.7C700 430.396 691.748 417.486 677.982 404.42Z" fill="#6C63FF" fill-opacity="0.6"/>
<path opacity="0.1" d="M677.825 404.42C678.439 405.17 678.924 405.988 679.264 406.852C691.616 419.039 698.188 430.414 686.323 430.704C675.267 430.972 662.006 447.578 658.825 451.777C658.93 452.1 659.057 452.419 659.204 452.731C659.204 452.731 674.754 431.007 687.409 430.704C700.064 430.4 691.751 417.484 677.825 404.42Z" fill="black"/>
<path d="M690.748 414.262C690.748 417.081 690.436 419.374 690.023 419.374C689.609 419.374 689.297 417.088 689.297 414.262C689.297 411.437 689.689 412.802 690.074 412.802C690.458 412.802 690.748 411.444 690.748 414.262Z" fill="#FFD037"/>
<path d="M694.821 417.658C691.987 418.874 689.52 419.629 689.311 419.294C689.102 418.959 691.218 417.75 694.052 416.541C696.886 415.332 695.766 416.212 695.983 416.541C696.201 416.87 697.664 416.436 694.821 417.658Z" fill="#FFD037"/>
<path d="M640.273 404.42C640.273 404.42 633.007 412.198 643.628 423.863C654.249 435.529 662.972 445.442 659.504 452.731C659.504 452.731 643.481 431.004 630.441 430.7C617.401 430.396 625.933 417.486 640.273 404.42Z" fill="#6C63FF" fill-opacity="0.6"/>
<path opacity="0.1" d="M639.824 404.42C639.21 405.17 638.725 405.988 638.385 406.852C626.032 419.039 619.46 430.414 631.325 430.704C642.382 430.972 655.644 447.578 658.825 451.777C658.72 452.1 658.594 452.419 658.447 452.731C658.447 452.731 642.896 431.007 630.24 430.704C617.584 430.4 625.906 417.484 639.824 404.42Z" fill="black"/>
<path d="M629.804 451.264C629.804 451.264 649.302 450.759 655.177 447.227C661.052 443.696 685.135 439.504 686.624 445.121C688.114 450.738 715.925 473.283 693.914 473.43C671.903 473.578 642.769 470.538 636.903 467.526C631.036 464.513 629.804 451.264 629.804 451.264Z" fill="#A8A8A8"/>
<path opacity="0.2" d="M694.283 471.502C672.28 471.647 643.156 468.654 637.291 465.689C632.824 463.428 631.044 455.32 630.453 451.581H629.804C629.804 451.581 631.035 464.645 636.9 467.61C642.765 470.576 671.889 473.576 693.925 473.431C700.281 473.389 702.469 471.509 702.352 468.73C701.412 470.41 699.008 471.461 694.283 471.502Z" fill="black"/>
<path d="M886.64 344.607C886.64 344.607 985.151 291.415 1053.26 291.415C1053.26 291.415 1135.25 280.622 1224.43 298.864C1313.62 317.106 1346.56 340.759 1371.29 333.814L1267.41 336.385L886.64 344.607Z" fill="#41709B"/>
<path opacity="0.1" d="M886.64 344.607C886.64 344.607 985.151 291.415 1053.26 291.415C1053.26 291.415 1135.25 280.622 1224.43 298.864C1313.62 317.106 1346.56 340.759 1371.29 333.814L1267.41 336.385L886.64 344.607Z" fill="#41709B"/>
<path d="M1350.98 425.125H748.79L765.346 369.669L867.749 346.908L1350.98 357.525V425.125Z" fill="#121C3F"/>
<path d="M1382.9 391.111V408.91C1382.9 408.91 1365.03 419.814 1363.41 428.353C1363.41 428.353 1337.82 433.819 1330.52 433.819C1329.85 433.819 1329.13 433.819 1328.37 433.883C1329.51 431.306 1330.4 428.657 1331.04 425.96C1332.83 418.391 1332.61 410.583 1330.38 403.097C1328.15 395.611 1323.98 388.634 1318.16 382.668C1312.34 376.702 1305.02 371.896 1296.73 368.596C1288.44 365.296 1279.38 363.584 1270.21 363.584C1261.03 363.584 1251.98 365.296 1243.68 368.596C1235.39 371.896 1228.07 376.702 1222.25 382.668C1216.44 388.634 1212.26 395.611 1210.04 403.097C1207.81 410.583 1207.58 418.391 1209.38 425.96C1210.24 429.608 1211.56 433.169 1213.32 436.58H1178.63C1178.63 436.58 1178.31 436.672 1177.79 436.863C1175.93 437.571 1171.55 439.441 1170.91 442.379H883.412L877.521 442.336C878.773 440.568 879.898 438.738 880.888 436.856C882.735 433.37 884.107 429.72 884.978 425.974C886.689 418.821 886.6 411.446 884.715 404.324C882.831 397.201 879.194 390.491 874.038 384.624C868.882 378.756 862.322 373.863 854.78 370.26C847.239 366.656 838.884 364.422 830.253 363.701C821.623 362.98 812.908 363.789 804.672 366.075C796.436 368.361 788.86 372.074 782.434 376.974C776.007 381.873 770.873 387.852 767.361 394.523C763.849 401.195 762.038 408.411 762.044 415.707C762.044 419.147 762.444 422.579 763.239 425.953C764.595 431.665 767.082 437.146 770.595 442.166C766.488 441.324 757.525 438.931 757.525 438.931C757.525 438.931 719.358 435.518 709.612 428.31L711.085 427.454L717.329 423.864L714.485 414.66C714.141 414.271 713.859 413.848 713.643 413.399C712.886 411.863 712.221 409.01 714.897 405.427C718.954 399.961 716.925 380.49 716.925 380.49C716.925 380.49 772.152 348.381 880.98 341.202C880.98 341.202 883.581 342.901 888.95 343.255C892.586 343.503 897.493 343.128 903.729 341.202C903.729 341.202 912.658 344.615 950.859 326.171C950.859 326.171 1015.84 288.589 1101.12 292.015C1101.12 292.015 1188.83 287.569 1263.55 311.84C1295.75 322.291 1320.25 327.863 1337.71 330.808C1353.84 333.534 1363.96 334.037 1368.6 334.079H1368.7C1370.22 334.079 1371.12 334.079 1371.44 334.079H1371.57C1371.57 334.079 1371.57 342.214 1372.08 351.822V351.872C1372.27 355.214 1372.52 358.733 1372.88 362.152V362.365C1373.85 371.888 1375.53 380.54 1378.45 382.253L1382.9 391.111Z" fill="#062A78"/>
<path d="M724.996 379.184C724.996 379.184 749.815 363.609 780.713 366.926C780.713 366.926 752.599 384.822 739.929 383.662L737.769 382.172L724.962 382.748C724.962 382.748 723.05 380.345 724.996 379.184Z" fill="#9B7341"/>
<path opacity="0.2" d="M748.79 406.721V416.521C748.79 416.521 747.962 425.881 738.396 426.233L711.063 427.426L717.2 423.715L714.401 414.201C714.061 413.803 713.783 413.367 713.573 412.905C716.057 410.885 721.913 407.475 733.824 406.743L748.79 406.721Z" fill="white"/>
<path opacity="0.2" d="M877.934 367.242L899.699 366.462C899.699 366.462 890.892 372.76 884.67 373.329C878.449 373.898 877.934 367.242 877.934 367.242Z" fill="#9B7341"/>
<path opacity="0.2" d="M922.916 421.674C922.916 421.674 1116.16 398.496 1162.87 405.868C1162.87 405.868 1176.6 406.661 1181.8 411.399C1186.99 416.136 1181.8 413.065 1181.8 413.065L922.916 421.674Z" fill="white"/>
<path opacity="0.5" d="M1031.74 358.41C1031.74 358.41 1034.17 354.901 1038.11 354.824L1063.67 353.809C1063.67 353.809 1063.27 356.536 1058.72 357.551L1031.74 358.41Z" fill="#18218A"/>
<path opacity="0.5" d="M1179.75 351.509C1179.75 351.509 1182.18 348.02 1186.12 347.942L1211.67 346.908C1211.67 346.908 1211.27 349.62 1206.73 350.628L1179.75 351.509Z" fill="#18218A"/>
<path d="M1092.69 299.437L1072.86 343.393L1001.37 343.457H982.96H966.95H953.107H937.427C937.427 343.457 946.977 337.531 962.361 329.981C967.441 327.476 973.207 324.8 979.464 322.109C985.221 319.618 991.419 317.099 997.93 314.709C1003.01 312.82 1008.36 311.002 1013.83 309.306C1038.63 301.641 1066.5 296.495 1092.69 299.437Z" fill="#41709B"/>
<path d="M1204.24 330.834C1204.24 330.834 1174.63 334.474 1146.36 337.167C1135.56 338.197 1124.95 339.088 1116.27 339.582L1115.07 339.652C1111.71 339.833 1108.59 339.951 1105.95 339.993C1101.75 340.055 1098.61 339.902 1097.04 339.485L1105.21 298.597C1105.21 298.597 1115.28 298.688 1130.18 299.293L1133.44 299.439C1136.54 299.585 1139.81 299.752 1143.21 299.947C1148.08 300.226 1153.21 300.56 1158.5 300.963C1184.04 302.905 1212.97 306.392 1231.28 312.669C1270.26 326.046 1204.24 330.834 1204.24 330.834Z" fill="#41709B"/>
<path d="M1340.82 351.523V363.007C1340.82 363.007 1319.47 363.271 1324.05 359.565C1327.01 357.104 1329.7 354.407 1332.08 351.509L1340.82 351.523Z" fill="#9B7341"/>
<path d="M1372.74 361.873L1355.33 363.011V349.679C1355.33 349.679 1363.4 340.208 1371.46 350.704L1371.93 351.32L1372.74 361.873Z" fill="#9B4151"/>
<path d="M824.245 457.332C851.492 457.332 873.58 438.535 873.58 415.348C873.58 392.161 851.492 373.364 824.245 373.364C796.997 373.364 774.909 392.161 774.909 415.348C774.909 438.535 796.997 457.332 824.245 457.332Z" fill="#182A7C"/>
<path d="M863.423 415.288C863.441 423.988 859.529 432.361 852.494 438.679C845.46 444.996 835.841 448.774 825.624 449.233C815.408 449.692 805.374 446.796 797.596 441.145C789.818 435.493 784.89 427.517 783.83 418.863C782.77 410.21 785.659 401.542 791.9 394.648C798.141 387.755 807.258 383.163 817.366 381.821C827.475 380.48 837.803 382.491 846.218 387.44C854.632 392.389 860.49 399.897 862.581 408.413C863.135 410.674 863.418 412.978 863.423 415.288Z" fill="#3071CC"/>
<path opacity="0.5" d="M823.519 443.529C842.352 443.529 857.619 430.654 857.619 414.773C857.619 398.891 842.352 386.016 823.519 386.016C804.687 386.016 789.42 398.891 789.42 414.773C789.42 430.654 804.687 443.529 823.519 443.529Z" fill="#18218A"/>
<path d="M835.853 382.826V384.052L824.582 415.923L815.538 382.299C822.249 380.963 829.25 381.145 835.853 382.826Z" fill="#054297"/>
<path d="M835.853 446.773C829.251 448.364 822.26 448.56 815.538 447.342L824.403 415.923L835.853 446.773Z" fill="#054297"/>
<path d="M863.422 414.728C863.428 418.257 862.795 421.765 861.546 425.125H861.388L824.245 415.465L862.659 407.871C863.181 410.129 863.437 412.426 863.422 414.728Z" fill="#054297"/>
<path d="M824.245 415.477L785.859 425.125H785.559C783.421 419.547 783.039 413.607 784.451 407.871L824.245 415.477Z" fill="#054297"/>
<path d="M824.245 419.374C826.649 419.374 828.598 417.571 828.598 415.348C828.598 413.124 826.649 411.322 824.245 411.322C821.841 411.322 819.892 413.124 819.892 415.348C819.892 417.571 821.841 419.374 824.245 419.374Z" fill="#41709B" fill-opacity="0.8"/>
<path d="M1269.72 457.332C1296.96 457.332 1319.05 438.535 1319.05 415.348C1319.05 392.161 1296.96 373.364 1269.72 373.364C1242.47 373.364 1220.38 392.161 1220.38 415.348C1220.38 438.535 1242.47 457.332 1269.72 457.332Z" fill="#182A7C"/>
<path d="M1308.9 415.288C1308.91 423.988 1305 432.361 1297.97 438.679C1290.93 444.996 1281.31 448.774 1271.1 449.233C1260.88 449.692 1250.85 446.796 1243.07 441.145C1235.29 435.493 1230.36 427.517 1229.3 418.863C1228.24 410.21 1231.13 401.542 1237.37 394.648C1243.61 387.755 1252.73 383.163 1262.84 381.821C1272.95 380.48 1283.28 382.491 1291.69 387.44C1300.1 392.389 1305.96 399.897 1308.05 408.413C1308.61 410.674 1308.89 412.978 1308.9 415.288Z" fill="#3071CC"/>
<path opacity="0.5" d="M1268.99 443.529C1287.82 443.529 1303.09 430.654 1303.09 414.773C1303.09 398.891 1287.82 386.016 1268.99 386.016C1250.16 386.016 1234.89 398.891 1234.89 414.773C1234.89 430.654 1250.16 443.529 1268.99 443.529Z" fill="#18218A"/>
<path d="M1281.33 382.826V384.052L1270.05 415.923L1261.01 382.299C1267.72 380.963 1274.72 381.145 1281.33 382.826Z" fill="#054297"/>
<path d="M1281.33 446.773C1274.72 448.364 1267.73 448.56 1261.01 447.342L1269.88 415.923L1281.33 446.773Z" fill="#054297"/>
<path d="M1308.9 414.733C1308.9 418.26 1308.27 421.766 1307.02 425.125H1306.83L1269.72 415.462L1308.09 407.871C1308.63 410.129 1308.9 412.428 1308.9 414.733Z" fill="#054297"/>
<path d="M1269.72 415.477L1231.33 425.125H1231.03C1228.89 419.547 1228.51 413.607 1229.92 407.871L1269.72 415.477Z" fill="#054297"/>
<path d="M1269.72 419.374C1272.12 419.374 1274.07 417.571 1274.07 415.348C1274.07 413.124 1272.12 411.322 1269.72 411.322C1267.31 411.322 1265.36 413.124 1265.36 415.348C1265.36 417.571 1267.31 419.374 1269.72 419.374Z" fill="#41709B" fill-opacity="0.8"/>
<path opacity="0.2" d="M979.507 321.602L967.102 343.457H953.388L962.556 329.667C967.613 327.101 973.309 324.366 979.507 321.602Z" fill="white"/>
<path opacity="0.2" d="M1014.33 308.949L1002.02 343.457H983.86L998.649 314.4C1003.7 312.504 1008.94 310.68 1014.33 308.949Z" fill="white"/>
<path opacity="0.2" d="M1142.02 300.388L1115.8 339.6L1114.62 339.669C1111.35 339.848 1108.32 339.965 1105.75 340.006L1129.34 299.747L1132.51 299.892C1135.49 300.03 1138.69 300.195 1142.02 300.388Z" fill="white"/>
<path opacity="0.2" d="M938.287 342.307L922.916 432.027L1051.3 429.645L1072.37 342.698L938.287 342.307Z" stroke="white" stroke-miterlimit="10"/>
<path opacity="0.5" d="M1176.85 436.633C1175 437.223 1170.63 438.781 1170 441.229H883.798L877.934 441.193C879.18 439.72 880.299 438.196 881.285 436.628L1176.85 436.633Z" fill="#18218A"/>
<path d="M118.263 443.018L121.602 441.135C121.602 441.135 123.812 450.506 121.346 451.91C118.879 453.313 109.631 455.653 109.631 458.461C109.631 461.269 88.669 465.013 88.0525 460.801C87.436 456.589 89.9021 454.249 89.9021 454.249C89.9021 454.249 99.7668 446.762 101 445.358C102.233 443.954 105.316 441.146 105.316 441.146L118.263 443.018Z" fill="#2F2E41"/>
<path d="M68.9399 326.495C68.9399 326.495 69.0324 326.907 69.1926 327.66C69.3407 328.329 69.5441 329.275 69.7907 330.44C72.3802 342.434 79.9328 377.742 79.4211 378.907C78.8045 380.311 74.4887 385.459 79.4211 386.862C79.8958 386.998 80.4075 387.438 80.9562 388.131C82.0153 389.622 82.8884 391.186 83.5642 392.801C86.5051 399.278 89.6495 409.643 91.4683 416.821C92.2636 419.976 92.8061 422.512 92.9664 423.841C93.0221 424.148 93.0284 424.459 92.9849 424.768C92.3684 426.639 96.6842 433.191 98.5338 435.063C100.383 436.935 103.466 438.806 102.85 440.678C102.233 442.55 118.263 447.698 120.113 444.422C121.962 441.146 121.962 439.274 122.579 438.339C123.195 437.403 123.812 430.851 120.729 429.915C117.647 428.979 119.496 412.6 116.413 409.325C115.384 408.234 113.812 404.542 112.165 400.101C111.518 398.36 110.865 396.507 110.223 394.649C107.622 387.036 105.316 379.375 105.316 379.375L105.932 324.623L72.0226 321.347L71.1533 322.803L69.4208 325.69L68.9399 326.495Z" fill="#412E2E"/>
<path d="M67.0902 416.344C67.0902 416.344 62.1579 412.601 59.6918 416.344C57.2256 420.088 54.7594 434.595 50.4437 437.871C46.1279 441.146 40.579 457.525 46.7444 458.461C52.9098 459.397 59.6918 457.057 60.3083 454.249C60.9248 451.442 73.8721 436.935 73.8721 435.531C73.8721 434.127 65.2406 428.979 65.2406 428.979L67.0902 416.344Z" fill="#2F2E41"/>
<path d="M142.925 300.757C142.925 300.757 134.91 355.509 133.06 360.656C131.21 365.804 121.346 385.459 118.263 388.734C115.18 392.01 95.451 418.684 92.9848 420.088C90.5187 421.492 85.5863 425.236 85.5863 425.236C85.5863 425.236 76.3382 432.255 75.1052 433.659C73.8721 435.063 63.3909 430.851 62.7744 428.043C62.1578 425.236 63.3909 420.556 64.0074 418.684C64.624 416.812 62.7744 414.004 64.624 412.601C66.4736 411.197 75.7217 404.177 75.7217 400.901C75.7217 397.626 91.7517 378.439 97.9171 374.227C104.083 370.016 102.849 362.996 102.849 362.996V334.45L68.9398 326.495C68.9398 326.495 70.7894 304.033 75.1052 304.033C79.4209 304.033 136.143 296.545 142.925 300.757Z" fill="#412E2E"/>
<path d="M92.9847 222.607C104.221 222.607 113.331 215.693 113.331 207.164C113.331 198.635 104.221 191.721 92.9847 191.721C81.748 191.721 72.6389 198.635 72.6389 207.164C72.6389 215.693 81.748 222.607 92.9847 222.607Z" fill="#9F616A"/>
<path d="M99.7667 219.331C99.7667 219.331 102.233 226.351 105.316 228.222C108.398 230.094 97.3005 238.05 97.3005 238.05L76.3382 238.986L72.6389 230.094C72.6389 230.094 79.4209 219.799 77.5712 213.248C75.7216 206.696 99.7667 219.331 99.7667 219.331Z" fill="#9F616A"/>
<path d="M108.398 227.287C108.398 227.287 102.85 227.755 101.616 229.158C100.383 230.562 91.7519 234.774 84.9699 233.838C78.188 232.902 73.8722 231.498 72.6391 231.966C71.406 232.434 68.9399 242.261 68.9399 242.261L75.7218 257.236L74.4887 298.417L72.6391 309.648C72.6391 309.648 68.9399 305.905 83.7368 308.244C98.5338 310.584 117.647 306.373 123.812 305.905C129.977 305.437 140.459 304.033 141.075 301.225C141.692 298.417 139.225 288.122 139.225 288.122L129.361 256.768L123.195 239.922L108.398 227.287Z" fill="#C5BE24"/>
<path d="M102.567 225.174C102.567 225.174 107.782 223.075 109.631 224.947C111.481 226.819 134.91 229.626 134.91 231.03C134.91 232.434 139.842 270.339 138.609 273.615C137.376 276.891 141.075 280.634 141.075 280.634L145.391 294.673C145.391 294.673 157.105 321.347 152.173 322.283C147.24 323.219 142.925 322.283 141.075 322.283C139.225 322.283 139.842 304.501 134.91 299.821C129.977 295.141 123.195 283.442 121.962 281.102C120.729 278.763 105.316 246.473 105.932 242.729C106.549 238.986 102.567 225.174 102.567 225.174Z" fill="#235571"/>
<path d="M76.9547 227.287C76.9547 227.287 72.0223 227.287 71.4058 228.222C70.7893 229.158 64.6239 235.242 62.1577 236.646C59.6915 238.05 51.06 244.133 51.06 245.537C51.06 246.941 68.9396 257.236 68.9396 257.236C68.9396 257.236 76.3381 284.846 72.6389 294.205C68.9396 303.565 63.3908 326.027 65.8569 327.431C68.3231 328.835 73.872 329.303 73.872 327.431C73.872 325.559 77.5712 305.437 80.6539 301.225C83.7366 297.013 92.9847 270.339 89.2855 262.852C85.5862 255.364 76.9547 227.287 76.9547 227.287Z" fill="#235571"/>
<path d="M158.338 273.615C158.338 273.615 158.955 288.122 152.173 295.609C145.391 303.097 141.075 311.52 141.075 311.52C141.075 311.52 129.977 309.18 128.128 306.373C126.278 303.565 114.564 305.905 114.564 304.969C114.564 304.033 128.744 299.353 129.977 298.417C131.21 297.481 135.526 297.481 137.992 295.609C140.459 293.737 141.075 289.526 141.075 289.526L143.541 277.359L158.338 273.615Z" fill="#9F616A"/>
<path d="M106.998 197.642C108.563 197.534 110.177 197.416 111.561 196.849C114.66 195.581 115.482 191.968 113.123 189.983C112.472 189.479 111.744 189.034 110.955 188.66L106.269 186.239C104.196 185.168 102.074 184.08 99.6567 183.575C97.4701 183.119 95.1607 183.166 92.8973 183.272C88.5034 183.48 84.0822 183.908 79.9495 185.059C75.8167 186.211 71.9615 188.137 69.4585 190.886C65.4905 195.244 65.436 201.121 67.6214 206.152C69.8069 211.183 73.9583 215.564 78.0489 219.856L80.1713 211.996C80.3604 211.295 80.6049 210.528 81.372 210.114C83.2787 209.084 85.6111 211.198 87.9513 211.185C89.4549 211.176 90.7173 210.237 91.2872 209.181C91.857 208.125 91.8945 206.955 92.0263 205.818C92.3056 203.41 93.4145 200.059 96.419 198.731C99.2187 197.494 103.851 197.859 106.998 197.642Z" fill="#2F2E41"/>
<path opacity="0.1" d="M105.857 326.873C105.857 326.873 103.774 372.59 102.541 373.993C101.308 375.397 102.541 326.729 102.541 326.729L105.857 326.873Z" fill="black"/>
<path d="M129.977 231.03H134.91C134.91 231.03 155.872 252.557 153.406 253.961C150.94 255.364 153.406 259.108 153.406 259.108L158.338 266.128C158.338 266.128 164.504 270.339 162.654 271.275C160.804 272.211 158.338 275.955 158.338 275.955C158.338 275.955 146.007 274.551 142.308 280.167L134.312 272.504L129.977 231.03Z" fill="#235571"/>
<path d="M127.904 239.15L118.613 242.063C116.505 242.723 115.652 244.832 116.707 246.773L125.908 263.685C126.964 265.625 129.529 266.663 131.637 266.002L140.928 263.09C143.036 262.429 143.889 260.32 142.833 258.38L133.632 241.468C132.576 239.527 130.012 238.49 127.904 239.15Z" fill="#062A78" fill-opacity="0.8"/>
<path d="M129.737 251.995C131.606 251.409 132.547 249.877 131.838 248.574C131.129 247.27 129.038 246.688 127.169 247.274C125.299 247.86 124.359 249.392 125.068 250.695C125.777 251.999 127.867 252.581 129.737 251.995Z" fill="#6C63FF"/>
<path d="M117.646 268.467C117.646 268.467 73.2555 296.545 65.857 287.654C58.4585 278.762 73.872 271.275 73.872 271.275C73.872 271.275 87.4359 271.743 102.849 264.256L118.263 259.108C118.263 259.108 132.334 243.86 137.129 249.666C141.924 255.473 128.944 265.578 117.646 268.467Z" fill="#9F616A"/>
<path d="M57.842 243.665L51.06 245.537V259.576L48.5939 262.384C48.5939 262.384 49.2104 267.999 51.06 269.403C52.9097 270.807 56.6089 270.339 55.3758 273.615C54.6347 275.751 54.4256 277.973 54.7593 280.166C54.7593 280.166 65.857 290.93 66.4735 289.526C67.0901 288.122 75.7216 270.807 76.9547 270.807C78.1878 270.807 64.6239 243.665 64.6239 243.665H57.842Z" fill="#235571"/>
<path d="M138.917 314.562C138.917 314.562 145.292 309.882 142.105 309.648C138.917 309.414 127.819 304.735 125.97 307.074C124.12 309.414 138.917 314.562 138.917 314.562Z" fill="#2F2E41"/>
</svg>
