<svg width="816" height="514" viewBox="0 0 816 514" fill="none" xmlns="http://www.w3.org/2000/svg">
<path opacity="0.5" d="M683.645 136.371C679.44 137.388 674.216 140.015 671.659 147.227C666.612 161.353 678.287 171.015 674.46 185.685C673.414 189.585 671.408 193.259 668.572 196.47C663.887 201.802 658.789 204.331 653.86 208.067C647.595 212.839 643.106 219.03 640.932 225.894C638.55 233.471 638.351 241.414 640.352 249.068C642.11 255.467 645.104 260.122 647.712 265.313C650.958 271.937 653.492 278.792 655.282 285.796C656.276 289.2 656.84 292.682 656.964 296.185C657.048 300.586 656.232 305.367 655.433 310.085L648.309 351.835C647.358 357.393 646.399 363.044 646.366 368.334C646.315 374.443 647.484 379.691 648.645 384.812C651.169 395.858 653.835 407.322 659.58 413.149C665.325 418.976 675.066 416.956 681.063 405.061C686.766 393.761 686.884 378.646 691.914 366.554C699.837 347.484 715.6 344.941 724.34 326.768C732.751 309.337 730.161 287.922 734.434 268.06C737.479 253.814 743.964 240.818 747.808 226.742C753.334 206.464 752.788 185.416 748.372 169.835C743.956 154.254 736.032 143.554 727.284 135.438C723.575 131.999 719.613 128.94 714.953 128.637C709.998 128.319 705.7 133.581 700.779 135.128C695.077 136.915 689.39 135.001 683.645 136.371Z" fill="#067863"/>
<path opacity="0.5" d="M710.47 129.626C710.47 129.626 702.058 309.93 666.789 416.256" stroke="#535461" stroke-width="2" stroke-miterlimit="10"/>
<path opacity="0.5" d="M671.44 148.109C671.44 148.109 709.107 176.934 701.999 231.855" stroke="#535461" stroke-width="2" stroke-miterlimit="10"/>
<path opacity="0.5" d="M639.797 230.125C639.797 230.125 701.706 240.578 697.113 271.67" stroke="#535461" stroke-width="2" stroke-miterlimit="10"/>
<path opacity="0.5" d="M748.447 169.404C748.447 169.404 723.406 187.818 701.082 239.971" stroke="#535461" stroke-width="2" stroke-miterlimit="10"/>
<path opacity="0.5" d="M723.961 327.029C723.961 327.029 706.869 338.33 693.15 298.911" stroke="#535461" stroke-width="2" stroke-miterlimit="10"/>
<path opacity="0.5" d="M650.227 350.019C650.227 350.019 685.084 346.198 688.297 327.863" stroke="#535461" stroke-width="2" stroke-miterlimit="10"/>
<path opacity="0.1" d="M407.745 442.684C606.49 442.684 767.605 429.81 767.605 413.928C767.605 398.046 606.49 385.172 407.745 385.172C208.999 385.172 47.8846 398.046 47.8846 413.928C47.8846 429.81 208.999 442.684 407.745 442.684Z" fill="#6C63FF"/>
<path d="M53.9818 379.42C53.9818 379.42 60.9524 387.198 50.7627 398.863C40.5729 410.529 32.1715 420.442 35.6069 427.731C35.6069 427.731 50.9789 406.004 63.4895 405.7C76 405.396 67.7484 392.486 53.9818 379.42Z" fill="#6C63FF" fill-opacity="0.6"/>
<path opacity="0.1" d="M53.8249 379.42C54.4394 380.17 54.9239 380.988 55.2638 381.852C67.6162 394.039 74.1878 405.414 62.3235 405.704C51.2669 405.972 38.0058 422.578 34.8252 426.777C34.9301 427.1 35.0566 427.419 35.2038 427.731C35.2038 427.731 50.7537 406.007 63.4089 405.704C76.0642 405.4 67.7508 392.484 53.8249 379.42Z" fill="black"/>
<path d="M66.7483 389.262C66.7483 392.081 66.4363 394.374 66.0227 394.374C65.6092 394.374 65.2972 392.088 65.2972 389.262C65.2972 386.437 65.689 387.802 66.0735 387.802C66.458 387.802 66.7483 386.444 66.7483 389.262Z" fill="#FFD037"/>
<path d="M70.8212 392.658C67.9869 393.874 65.5205 394.629 65.3114 394.294C65.1024 393.959 67.2177 392.75 70.052 391.541C72.8863 390.332 71.7659 391.212 71.9833 391.541C72.2007 391.87 73.6638 391.436 70.8212 392.658Z" fill="#FFD037"/>
<path d="M16.2731 379.42C16.2731 379.42 9.00744 387.198 19.6284 398.863C30.2494 410.529 38.9717 420.442 35.5036 427.731C35.5036 427.731 19.481 406.004 6.44106 405.7C-6.59892 405.396 1.93255 392.486 16.2731 379.42Z" fill="#6C63FF" fill-opacity="0.6"/>
<path opacity="0.1" d="M15.8244 379.42C15.2099 380.17 14.7254 380.988 14.3854 381.852C2.03234 394.039 -4.53969 405.414 7.32531 405.704C18.3825 405.972 31.6443 422.578 34.8252 426.777C34.7202 427.1 34.5938 427.419 34.4465 427.731C34.4465 427.731 18.8958 406.007 6.23979 405.704C-6.41621 405.4 1.90612 392.484 15.8244 379.42Z" fill="black"/>
<path d="M5.8042 426.264C5.8042 426.264 25.3018 425.759 31.1768 422.227C37.0519 418.696 61.1347 414.504 62.6243 420.121C64.1139 425.738 91.9247 448.283 69.914 448.43C47.9033 448.578 18.7693 445.538 12.9025 442.526C7.0358 439.513 5.8042 426.264 5.8042 426.264Z" fill="#A8A8A8"/>
<path opacity="0.2" d="M70.283 446.502C48.2799 446.647 19.1558 443.654 13.2911 440.689C8.82392 438.428 7.0437 430.32 6.45306 426.581H5.8042C5.8042 426.581 7.03538 439.645 12.9001 442.61C18.7649 445.576 47.8889 448.576 69.9253 448.431C76.2809 448.389 78.4687 446.509 78.3523 443.73C77.4122 445.41 75.0081 446.461 70.283 446.502Z" fill="black"/>
<path d="M262.64 319.607C262.64 319.607 361.151 266.415 429.256 266.415C429.256 266.415 511.25 255.622 600.435 273.864C689.62 292.106 722.564 315.759 747.29 308.814L643.41 311.385L262.64 319.607Z" fill="#41709B"/>
<path opacity="0.1" d="M262.64 319.607C262.64 319.607 361.151 266.415 429.256 266.415C429.256 266.415 511.25 255.622 600.435 273.864C689.62 292.106 722.564 315.759 747.29 308.814L643.41 311.385L262.64 319.607Z" fill="#41709B"/>
<path d="M726.976 400.125H124.79L141.346 344.669L243.749 321.908L726.976 332.525V400.125Z" fill="#121C3F"/>
<path d="M758.899 366.111V383.91C758.899 383.91 741.031 394.814 739.407 403.353C739.407 403.353 713.822 408.819 706.517 408.819C705.852 408.819 705.128 408.819 704.371 408.883C705.512 406.306 706.404 403.657 707.039 400.96C708.831 393.391 708.605 385.583 706.378 378.097C704.151 370.611 699.978 363.634 694.16 357.668C688.341 351.702 681.023 346.896 672.731 343.596C664.439 340.296 655.38 338.584 646.207 338.584C637.034 338.584 627.976 340.296 619.684 343.596C611.392 346.896 604.073 351.702 598.255 357.668C592.437 363.634 588.264 370.611 586.037 378.097C583.81 385.583 583.584 393.391 585.376 400.96C586.237 404.608 587.56 408.169 589.323 411.58H554.632C554.632 411.58 554.312 411.672 553.79 411.863C551.93 412.571 547.545 414.441 546.914 417.379H259.412L253.521 417.336C254.773 415.568 255.898 413.738 256.888 411.856C258.735 408.37 260.107 404.72 260.978 400.974C262.689 393.821 262.6 386.446 260.715 379.324C258.831 372.201 255.194 365.491 250.038 359.624C244.882 353.756 238.322 348.863 230.78 345.26C223.239 341.656 214.884 339.422 206.253 338.701C197.623 337.98 188.908 338.789 180.672 341.075C172.436 343.361 164.86 347.074 158.434 351.974C152.007 356.873 146.873 362.852 143.361 369.523C139.849 376.195 138.038 383.411 138.044 390.707C138.044 394.147 138.444 397.579 139.239 400.953C140.595 406.665 143.082 412.146 146.595 417.166C142.488 416.324 133.525 413.931 133.525 413.931C133.525 413.931 95.3577 410.518 85.6119 403.31L87.0847 402.454L93.3294 398.864L90.4848 389.66C90.1414 389.271 89.8586 388.848 89.6432 388.399C88.8857 386.863 88.2209 384.01 90.8972 380.427C94.9537 374.961 92.9255 355.49 92.9255 355.49C92.9255 355.49 148.152 323.381 256.98 316.202C256.98 316.202 259.581 317.901 264.95 318.255C268.586 318.503 273.493 318.128 279.729 316.202C279.729 316.202 288.658 319.615 326.859 301.171C326.859 301.171 391.839 263.589 477.12 267.015C477.12 267.015 564.832 262.569 639.55 286.84C671.75 297.291 696.249 302.863 713.713 305.808C729.838 308.534 739.962 309.037 744.6 309.079H744.701C746.216 309.079 747.116 309.079 747.436 309.079H747.571C747.571 309.079 747.571 317.214 748.084 326.822V326.872C748.269 330.214 748.522 333.733 748.875 337.152V337.365C749.851 346.888 751.534 355.54 754.455 357.253L758.899 366.111Z" fill="#062A78"/>
<path d="M100.996 354.184C100.996 354.184 125.815 338.609 156.713 341.926C156.713 341.926 128.599 359.822 115.929 358.662L113.769 357.172L100.962 357.748C100.962 357.748 99.0499 355.345 100.996 354.184Z" fill="#9B7341"/>
<path opacity="0.2" d="M124.79 381.721V391.521C124.79 391.521 123.962 400.881 114.396 401.233L87.0629 402.426L93.2003 398.715L90.4008 389.201C90.0614 388.803 89.7829 388.367 89.5726 387.905C92.0573 385.885 97.9131 382.475 109.824 381.743L124.79 381.721Z" fill="white"/>
<path opacity="0.2" d="M253.934 342.242L275.699 341.462C275.699 341.462 266.892 347.76 260.67 348.329C254.449 348.898 253.934 342.242 253.934 342.242Z" fill="#9B7341"/>
<path opacity="0.2" d="M298.916 396.674C298.916 396.674 492.156 373.496 538.865 380.868C538.865 380.868 552.599 381.661 557.795 386.399C562.992 391.136 557.795 388.065 557.795 388.065L298.916 396.674Z" fill="white"/>
<path opacity="0.5" d="M407.745 333.41C407.745 333.41 410.173 329.901 414.109 329.824L439.668 328.809C439.668 328.809 439.266 331.536 434.719 332.551L407.745 333.41Z" fill="#18218A"/>
<path opacity="0.5" d="M555.752 326.509C555.752 326.509 558.18 323.02 562.116 322.942L587.675 321.908C587.675 321.908 587.273 324.62 582.726 325.628L555.752 326.509Z" fill="#18218A"/>
<path d="M468.689 274.437L448.86 318.393L377.367 318.457H358.96H342.95H329.107H313.427C313.427 318.457 322.977 312.531 338.361 304.981C343.441 302.476 349.207 299.8 355.464 297.109C361.221 294.618 367.419 292.099 373.93 289.709C379.01 287.82 384.361 286.002 389.83 284.306C414.629 276.641 442.501 271.495 468.689 274.437Z" fill="#41709B"/>
<path d="M580.245 305.834C580.245 305.834 550.627 309.474 522.362 312.167C511.558 313.197 500.955 314.088 492.275 314.582L491.066 314.652C487.708 314.833 484.593 314.951 481.949 314.993C477.751 315.055 474.612 314.902 473.042 314.485L481.21 273.597C481.21 273.597 491.284 273.688 506.185 274.293L509.442 274.439C512.54 274.585 515.805 274.752 519.214 274.947C524.083 275.226 529.212 275.56 534.501 275.963C560.038 277.905 588.967 281.392 607.285 287.669C646.262 301.046 580.245 305.834 580.245 305.834Z" fill="#41709B"/>
<path d="M716.818 326.523V338.007C716.818 338.007 695.473 338.271 700.049 334.565C703.01 332.104 705.699 329.407 708.079 326.509L716.818 326.523Z" fill="#9B7341"/>
<path d="M748.741 336.873L731.329 338.011V324.679C731.329 324.679 739.396 315.208 747.463 325.704L747.929 326.32L748.741 336.873Z" fill="#9B4151"/>
<path d="M200.245 432.332C227.492 432.332 249.58 413.535 249.58 390.348C249.58 367.161 227.492 348.364 200.245 348.364C172.997 348.364 150.909 367.161 150.909 390.348C150.909 413.535 172.997 432.332 200.245 432.332Z" fill="#182A7C"/>
<path d="M239.423 390.288C239.441 398.988 235.529 407.361 228.494 413.679C221.46 419.996 211.841 423.774 201.624 424.233C191.408 424.692 181.374 421.796 173.596 416.145C165.818 410.493 160.89 402.517 159.83 393.863C158.77 385.21 161.659 376.542 167.9 369.648C174.141 362.755 183.258 358.163 193.366 356.821C203.475 355.48 213.803 357.491 222.218 362.44C230.632 367.389 236.49 374.897 238.581 383.413C239.135 385.674 239.418 387.978 239.423 390.288Z" fill="#3071CC"/>
<path opacity="0.5" d="M199.519 418.529C218.352 418.529 233.619 405.654 233.619 389.773C233.619 373.891 218.352 361.016 199.519 361.016C180.687 361.016 165.42 373.891 165.42 389.773C165.42 405.654 180.687 418.529 199.519 418.529Z" fill="#18218A"/>
<path d="M211.853 357.826V359.052L200.582 390.923L191.538 357.299C198.249 355.963 205.25 356.145 211.853 357.826Z" fill="#054297"/>
<path d="M211.853 421.773C205.251 423.364 198.26 423.56 191.538 422.342L200.403 390.923L211.853 421.773Z" fill="#054297"/>
<path d="M239.422 389.728C239.428 393.257 238.795 396.765 237.546 400.125H237.388L200.245 390.465L238.659 382.871C239.181 385.129 239.437 387.426 239.422 389.728Z" fill="#054297"/>
<path d="M200.245 390.477L161.859 400.125H161.559C159.421 394.547 159.039 388.607 160.451 382.871L200.245 390.477Z" fill="#054297"/>
<path d="M200.245 394.374C202.649 394.374 204.598 392.571 204.598 390.348C204.598 388.124 202.649 386.322 200.245 386.322C197.841 386.322 195.892 388.124 195.892 390.348C195.892 392.571 197.841 394.374 200.245 394.374Z" fill="#41709B" fill-opacity="0.8"/>
<path d="M645.717 432.332C672.964 432.332 695.053 413.535 695.053 390.348C695.053 367.161 672.964 348.364 645.717 348.364C618.47 348.364 596.381 367.161 596.381 390.348C596.381 413.535 618.47 432.332 645.717 432.332Z" fill="#182A7C"/>
<path d="M684.895 390.288C684.913 398.988 681.001 407.361 673.966 413.679C666.932 419.996 657.313 423.774 647.096 424.233C636.88 424.692 626.846 421.796 619.068 416.145C611.29 410.493 606.362 402.517 605.302 393.863C604.242 385.21 607.131 376.542 613.372 369.648C619.613 362.755 628.73 358.163 638.838 356.821C648.947 355.48 659.275 357.491 667.69 362.44C676.104 367.389 681.962 374.897 684.053 383.413C684.607 385.674 684.89 387.978 684.895 390.288Z" fill="#3071CC"/>
<path opacity="0.5" d="M644.991 418.529C663.824 418.529 679.091 405.654 679.091 389.773C679.091 373.891 663.824 361.016 644.991 361.016C626.159 361.016 610.892 373.891 610.892 389.773C610.892 405.654 626.159 418.529 644.991 418.529Z" fill="#18218A"/>
<path d="M657.325 357.826V359.052L646.054 390.923L637.01 357.299C643.721 355.963 650.722 356.145 657.325 357.826Z" fill="#054297"/>
<path d="M657.325 421.773C650.723 423.364 643.732 423.56 637.01 422.342L645.875 390.923L657.325 421.773Z" fill="#054297"/>
<path d="M684.895 389.733C684.901 393.26 684.268 396.766 683.02 400.125H682.83L645.717 390.462L684.09 382.871C684.627 385.129 684.896 387.428 684.895 389.733Z" fill="#054297"/>
<path d="M645.717 390.477L607.331 400.125H607.031C604.893 394.547 604.512 388.607 605.924 382.871L645.717 390.477Z" fill="#054297"/>
<path d="M645.717 394.374C648.121 394.374 650.07 392.571 650.07 390.348C650.07 388.124 648.121 386.322 645.717 386.322C643.313 386.322 641.364 388.124 641.364 390.348C641.364 392.571 643.313 394.374 645.717 394.374Z" fill="#41709B" fill-opacity="0.8"/>
<path opacity="0.2" d="M355.507 296.602L343.102 318.457H329.388L338.556 304.667C343.613 302.101 349.309 299.366 355.507 296.602Z" fill="white"/>
<path opacity="0.2" d="M390.332 283.949L378.025 318.457H359.86L374.649 289.4C379.696 287.504 384.943 285.68 390.332 283.949Z" fill="white"/>
<path opacity="0.2" d="M518.024 275.388L491.8 314.6L490.623 314.669C487.354 314.848 484.322 314.965 481.748 315.006L505.341 274.747L508.512 274.892C511.487 275.03 514.69 275.195 518.024 275.388Z" fill="white"/>
<path opacity="0.2" d="M314.287 317.307L298.916 407.027L427.297 404.645L448.374 317.698L314.287 317.307Z" stroke="white" stroke-miterlimit="10"/>
<path opacity="0.5" d="M552.85 411.633C550.998 412.223 546.633 413.781 546.005 416.229H259.798L253.934 416.193C255.18 414.72 256.299 413.196 257.285 411.628L552.85 411.633Z" fill="#18218A"/>
</svg>
