<svg width="1439" height="463" viewBox="0 0 1439 463" fill="none" xmlns="http://www.w3.org/2000/svg">
<g opacity="0.15">
<path d="M8.86933 86.8453L-2 74.8999L58.8611 0.244751H213.188V65.9421L113.202 158.515L8.86933 86.8453Z" fill="#062A78" fill-opacity="0.5"/>
<path d="M241.802 42.1293V1.73625H221.373V11.628L213.747 0.244751L163.902 74.9145L144.397 92.8361L114.152 397.36L159.762 460.219H265.762V77.9027L241.802 42.1293Z" fill="#CCCCCC"/>
<path d="M163.059 74.4341H-2V460.219H163.059V74.4341Z" fill="#F2F2F2"/>
<path d="M93.3672 365.009H62.8008V460.219H93.3672V365.009Z" fill="#CCCCCC"/>
<path d="M29.7891 392.212V377.374H16.3398V392.212H28.6678H29.7891Z" fill="#062A78" fill-opacity="0.5"/>
<path d="M28.6678 404.577H16.3398V419.415H29.7891V404.577H28.6678Z" fill="#062A78" fill-opacity="0.5"/>
<path d="M51.7969 377.374H38.3477V392.212H51.7969V377.374Z" fill="#062A78" fill-opacity="0.5"/>
<path d="M51.7969 404.577H38.3477V419.415H51.7969V404.577Z" fill="#062A78" fill-opacity="0.5"/>
<path d="M119.043 392.212V377.374H105.594V392.212H117.922H119.043Z" fill="#062A78" fill-opacity="0.5"/>
<path d="M117.922 404.577H105.594V419.415H119.043V404.577H117.922Z" fill="#062A78" fill-opacity="0.5"/>
<path d="M141.051 377.374H127.602V392.212H141.051V377.374Z" fill="#062A78" fill-opacity="0.5"/>
<path d="M141.051 404.577H127.602V419.415H141.051V404.577Z" fill="#062A78" fill-opacity="0.5"/>
<path d="M210.742 94.2178V79.3799H197.293V94.2178H209.623H210.742Z" fill="#062A78" fill-opacity="0.5"/>
<path d="M209.623 106.583H197.293V121.421H210.742V106.583H209.623Z" fill="#062A78" fill-opacity="0.5"/>
<path d="M232.75 79.3799H219.301V94.2178H232.75V79.3799Z" fill="#062A78" fill-opacity="0.5"/>
<path d="M232.75 106.583H219.301V121.421H232.75V106.583Z" fill="#062A78" fill-opacity="0.5"/>
<path d="M210.742 178.299V163.461H197.293V178.299H209.623H210.742Z" fill="#062A78" fill-opacity="0.5"/>
<path d="M209.623 190.664H197.293V205.502H210.742V190.664H209.623Z" fill="#062A78" fill-opacity="0.5"/>
<path d="M232.75 163.461H219.301V178.299H232.75V163.461Z" fill="#062A78" fill-opacity="0.5"/>
<path d="M232.75 190.664H219.301V205.502H232.75V190.664Z" fill="#062A78" fill-opacity="0.5"/>
<path d="M210.742 261.144V246.306H197.293V261.144H209.623H210.742Z" fill="#062A78" fill-opacity="0.5"/>
<path d="M209.623 273.509H197.293V288.347H210.742V273.509H209.623Z" fill="#062A78" fill-opacity="0.5"/>
<path d="M232.75 246.306H219.301V261.144H232.75V246.306Z" fill="#062A78" fill-opacity="0.5"/>
<path d="M232.75 273.509H219.301V288.347H232.75V273.509Z" fill="#062A78" fill-opacity="0.5"/>
<path d="M210.742 345.225V330.387H197.293V345.225H209.623H210.742Z" fill="#062A78" fill-opacity="0.5"/>
<path d="M209.623 357.59H197.293V372.428H210.742V357.59H209.623Z" fill="#062A78" fill-opacity="0.5"/>
<path d="M232.75 330.387H219.301V345.225H232.75V330.387Z" fill="#062A78" fill-opacity="0.5"/>
<path d="M232.75 357.59H219.301V372.428H232.75V357.59Z" fill="#062A78" fill-opacity="0.5"/>
<path d="M143.496 94.2179H16.3398V130.076H143.496V94.2179Z" fill="#062A78" fill-opacity="0.5"/>
<path d="M143.496 165.934H16.3398V201.792H143.496V165.934Z" fill="#062A78" fill-opacity="0.5"/>
<path d="M143.496 237.651H16.3398V273.509H143.496V237.651Z" fill="#062A78" fill-opacity="0.5"/>
<path d="M143.496 309.367H16.3398V345.225H143.496V309.367Z" fill="#062A78" fill-opacity="0.5"/>
<path d="M257.054 436.725C254.22 438.74 251.586 441.245 249.215 444.18C246.804 441.232 244.126 438.726 241.247 436.725C238.414 438.74 235.779 441.245 233.408 444.18C230.998 441.232 228.319 438.726 225.44 436.725C225.44 436.725 213.154 445.039 213.188 455.199C213.188 455.453 213.197 455.706 213.213 455.957C213.632 462.609 226.335 464.304 233.314 461.169C238.48 463.197 243.955 463.197 249.12 461.169C256.069 464.354 269.031 462.53 269.409 455.801C269.424 455.55 269.43 455.297 269.43 455.043C269.396 444.883 257.054 436.725 257.054 436.725Z" fill="#6C63FF"/>
<path d="M199.665 86.8453L188.734 74.8999L249.941 0.244751H405.145V65.9421L304.591 158.515L199.665 86.8453Z" fill="#062A78" fill-opacity="0.5"/>
<path d="M433.566 42.1293V1.73625H412.972V11.628L405.284 0.244751L355.037 74.9145L335.375 92.8361L304.887 397.36L350.865 460.219H457.719V77.9027L433.566 42.1293Z" fill="#CCCCCC"/>
<path d="M355.016 74.4341H188.734V460.219H355.016V74.4341Z" fill="#F2F2F2"/>
<path d="M284.102 365.009H253.535V460.219H284.102V365.009Z" fill="#CCCCCC"/>
<path d="M220.523 392.212V377.374H208.297V392.212H219.504H220.523Z" fill="#062A78" fill-opacity="0.5"/>
<path d="M219.504 404.577H208.297V419.415H220.523V404.577H219.504Z" fill="#062A78" fill-opacity="0.5"/>
<path d="M242.531 377.374H229.082V392.212H242.531V377.374Z" fill="#062A78" fill-opacity="0.5"/>
<path d="M242.531 404.577H229.082V419.415H242.531V404.577Z" fill="#062A78" fill-opacity="0.5"/>
<path d="M309.777 392.212V377.374H297.551V392.212H308.758H309.777Z" fill="#062A78" fill-opacity="0.5"/>
<path d="M308.758 404.577H297.551V419.415H309.777V404.577H308.758Z" fill="#062A78" fill-opacity="0.5"/>
<path d="M331.785 377.374H318.336V392.212H331.785V377.374Z" fill="#062A78" fill-opacity="0.5"/>
<path d="M331.785 404.577H318.336V419.415H331.785V404.577Z" fill="#062A78" fill-opacity="0.5"/>
<path d="M401.477 94.2178V79.3799H388.027V94.2178H400.357H401.477Z" fill="#062A78" fill-opacity="0.5"/>
<path d="M400.357 106.583H388.027V121.421H401.477V106.583H400.357Z" fill="#062A78" fill-opacity="0.5"/>
<path d="M423.484 79.3799H410.035V94.2178H423.484V79.3799Z" fill="#062A78" fill-opacity="0.5"/>
<path d="M423.484 106.583H410.035V121.421H423.484V106.583Z" fill="#062A78" fill-opacity="0.5"/>
<path d="M401.477 178.299V163.461H388.027V178.299H400.357H401.477Z" fill="#062A78" fill-opacity="0.5"/>
<path d="M400.357 190.664H388.027V205.502H401.477V190.664H400.357Z" fill="#062A78" fill-opacity="0.5"/>
<path d="M423.484 163.461H410.035V178.299H423.484V163.461Z" fill="#062A78" fill-opacity="0.5"/>
<path d="M423.484 190.664H410.035V205.502H423.484V190.664Z" fill="#062A78" fill-opacity="0.5"/>
<path d="M401.477 261.144V246.306H388.027V261.144H400.357H401.477Z" fill="#062A78" fill-opacity="0.5"/>
<path d="M400.357 273.509H388.027V288.347H401.477V273.509H400.357Z" fill="#062A78" fill-opacity="0.5"/>
<path d="M423.484 246.306H410.035V261.144H423.484V246.306Z" fill="#062A78" fill-opacity="0.5"/>
<path d="M423.484 273.509H410.035V288.347H423.484V273.509Z" fill="#062A78" fill-opacity="0.5"/>
<path d="M401.477 345.225V330.387H388.027V345.225H400.357H401.477Z" fill="#062A78" fill-opacity="0.5"/>
<path d="M400.357 357.59H388.027V372.428H401.477V357.59H400.357Z" fill="#062A78" fill-opacity="0.5"/>
<path d="M423.484 330.387H410.035V345.225H423.484V330.387Z" fill="#062A78" fill-opacity="0.5"/>
<path d="M423.484 357.59H410.035V372.428H423.484V357.59Z" fill="#062A78" fill-opacity="0.5"/>
<path d="M334.23 94.2179H208.297V130.076H334.23V94.2179Z" fill="#062A78" fill-opacity="0.5"/>
<path d="M334.23 165.934H208.297V201.792H334.23V165.934Z" fill="#062A78" fill-opacity="0.5"/>
<path d="M334.23 237.651H208.297V273.509H334.23V237.651Z" fill="#062A78" fill-opacity="0.5"/>
<path d="M334.23 309.367H208.297V345.225H334.23V309.367Z" fill="#062A78" fill-opacity="0.5"/>
<path d="M572.648 173.353H567.758V457.746H572.648V173.353Z" fill="#062A78" fill-opacity="0.5"/>
<path d="M623.997 256.083C624.008 259.227 623.987 262.356 623.934 265.47C622.049 377.985 524.064 378.606 521.426 266.12C521.353 263.008 521.311 259.879 521.299 256.734C520.878 130.965 571.886 28.684 571.886 28.684C571.886 28.684 623.576 130.314 623.997 256.083Z" fill="#CDCDCD"/>
<path d="M554.159 436.725C551.326 438.644 548.692 441.03 546.32 443.825C543.91 441.017 541.231 438.631 538.353 436.725C535.519 438.644 532.885 441.03 530.514 443.825C528.103 441.017 525.425 438.631 522.546 436.725C522.546 436.725 510.259 444.644 510.293 454.32C510.294 454.561 510.302 454.802 510.318 455.042C510.738 461.377 523.441 462.991 530.419 460.005C535.585 461.936 541.06 461.936 546.226 460.005C553.174 463.039 566.136 461.301 566.515 454.893C566.529 454.653 566.536 454.413 566.535 454.171C566.501 444.495 554.159 436.725 554.159 436.725Z" fill="#CCCCCC"/>
</g>
<g opacity="0.2">
<path d="M1413.51 329.939C1411.59 331.329 1409.8 333.058 1408.18 335.082C1406.55 333.048 1404.73 331.319 1402.77 329.939C1400.84 331.329 1399.05 333.058 1397.44 335.082C1395.8 333.048 1393.98 331.319 1392.03 329.939C1392.03 329.939 1383.68 335.675 1383.7 342.685C1383.7 342.86 1383.7 343.035 1383.72 343.208C1384 347.798 1392.63 348.967 1397.38 346.804C1400.89 348.203 1404.61 348.203 1408.12 346.804C1412.84 349.002 1421.65 347.743 1421.91 343.101C1421.92 342.927 1421.92 342.753 1421.92 342.577C1421.9 335.568 1413.51 329.939 1413.51 329.939Z" fill="#F2F2F2"/>
<path d="M778.444 262.63L774 252.285L815.484 157.608H922.157V172.093L883.636 275.046L839.189 287.462L778.444 262.63Z" fill="#3F3D56"/>
<path d="M940.52 231.765V154.375H926.554V164.585L922.157 157.608L886.6 252.284L880.673 260.562L873.266 301.947L886.6 347.47H954.752V254.353L940.52 231.765Z" fill="#CCCCCC"/>
<path d="M886.6 252.284H774V347.471H886.6V252.284Z" fill="#F2F2F2"/>
<path d="M871.043 282.289H847.338V311.259H871.043V282.289Z" fill="#3F3D56"/>
<path d="M837.707 281.254H816.965V347.471H837.707V281.254Z" fill="#CCCCCC"/>
<path d="M793.261 291.601V281.255H784.371V291.601H792.52H793.261Z" fill="#3F3D56"/>
<path d="M792.52 299.878H784.371V310.224H793.261V299.878H792.52Z" fill="#3F3D56"/>
<path d="M808.076 281.254H799.187V291.601H808.076V281.254Z" fill="#3F3D56"/>
<path d="M808.076 299.878H799.187V310.224H808.076V299.878Z" fill="#3F3D56"/>
<path d="M918.454 294.136V283.79H909.564V294.136H917.713H918.454Z" fill="#3F3D56"/>
<path d="M917.713 302.413H909.564V312.759H918.454V302.413H917.713Z" fill="#3F3D56"/>
<path d="M933.269 283.789H924.38V294.136H933.269V283.789Z" fill="#3F3D56"/>
<path d="M933.269 302.413H924.38V312.759H933.269V302.413Z" fill="#3F3D56"/>
<path d="M825.066 196.521L823.896 193.799L834.812 168.888H862.878V172.699L852.744 199.788L841.049 203.055L825.066 196.521Z" fill="#3F3D56"/>
<path d="M862.878 168.888L853.524 193.799L851.964 195.977L850.014 206.867L853.524 218.843H871.455V194.343L862.878 168.888Z" fill="#CCCCCC"/>
<path d="M853.523 193.799H823.897V218.844H853.523V193.799Z" fill="#F2F2F2"/>
<path d="M836.448 204.592V199.651H832.204V204.592H836.095H836.448Z" fill="#3F3D56"/>
<path d="M836.095 208.544H832.204V213.483H836.448V208.544H836.095Z" fill="#3F3D56"/>
<path d="M843.522 199.651H839.278V204.591H843.522V199.651Z" fill="#3F3D56"/>
<path d="M843.522 208.543H839.278V213.483H843.522V208.543Z" fill="#3F3D56"/>
<path d="M912.736 262.63L908.29 252.285L949.774 157.608H1056.45V172.093L1017.93 275.046L973.48 287.462L912.736 262.63Z" fill="#3F3D56"/>
<path d="M1074.81 231.765V154.375H1060.84V164.585L1056.45 157.608L1020.89 252.284L1014.96 260.562L1007.56 301.947L1020.89 347.47H1089.04V254.353L1074.81 231.765Z" fill="#CCCCCC"/>
<path d="M1020.89 252.284H908.29V347.471H1020.89V252.284Z" fill="#F2F2F2"/>
<path d="M1005.33 282.289H981.629V311.259H1005.33V282.289Z" fill="#3F3D56"/>
<path d="M971.998 281.254H951.256V347.471H971.998V281.254Z" fill="#CCCCCC"/>
<path d="M927.55 291.601V281.254H918.661V291.601H926.811H927.55Z" fill="#3F3D56"/>
<path d="M926.811 299.878H918.661V310.224H927.55V299.878H926.811Z" fill="#3F3D56"/>
<path d="M942.367 281.254H933.477V291.601H942.367V281.254Z" fill="#3F3D56"/>
<path d="M942.367 299.878H933.477V310.224H942.367V299.878Z" fill="#3F3D56"/>
<path d="M1052.74 292.636V282.289H1043.85V292.636H1052H1052.74Z" fill="#3F3D56"/>
<path d="M1052 300.912H1043.85V311.259H1052.74V300.912H1052Z" fill="#3F3D56"/>
<path d="M1067.56 282.289H1058.67V292.636H1067.56V282.289Z" fill="#3F3D56"/>
<path d="M1067.56 300.912H1058.67V311.259H1067.56V300.912Z" fill="#3F3D56"/>
<path d="M1042.73 262.63L1038.28 252.285L1079.77 157.608H1186.44V172.093L1147.92 275.046L1103.47 287.462L1042.73 262.63Z" fill="#3F3D56"/>
<path d="M1204.8 231.765V154.375H1190.84V164.585L1186.44 157.608L1150.88 252.284L1144.96 260.562L1137.55 301.947L1150.88 347.47H1219.04V254.353L1204.8 231.765Z" fill="#CCCCCC"/>
<path d="M1150.88 252.284H1038.28V347.471H1150.88V252.284Z" fill="#F2F2F2"/>
<path d="M1135.33 282.289H1111.62V311.259H1135.33V282.289Z" fill="#3F3D56"/>
<path d="M1101.99 281.254H1081.25V347.471H1101.99V281.254Z" fill="#CCCCCC"/>
<path d="M1057.54 291.601V281.254H1048.66V291.601H1056.8H1057.54Z" fill="#3F3D56"/>
<path d="M1056.8 299.878H1048.66V310.224H1057.54V299.878H1056.8Z" fill="#3F3D56"/>
<path d="M1072.36 281.254H1063.47V291.601H1072.36V281.254Z" fill="#3F3D56"/>
<path d="M1072.36 299.878H1063.47V310.224H1072.36V299.878Z" fill="#3F3D56"/>
<path d="M1182.74 292.636V282.289H1173.85V292.636H1182H1182.74Z" fill="#3F3D56"/>
<path d="M1182 300.912H1173.85V311.259H1182.74V300.912H1182Z" fill="#3F3D56"/>
<path d="M1197.55 282.289H1188.66V292.636H1197.55V282.289Z" fill="#3F3D56"/>
<path d="M1197.55 300.912H1188.66V311.259H1197.55V300.912Z" fill="#3F3D56"/>
<path d="M956.134 198.022L954.965 195.299L965.879 170.388H993.947V174.2L983.811 201.289L972.116 204.554L956.134 198.022Z" fill="#3F3D56"/>
<path d="M993.947 170.388L984.591 195.299L983.032 197.477L981.083 208.366L984.591 220.345H1002.52V195.844L993.947 170.388Z" fill="#CCCCCC"/>
<path d="M984.591 195.3H954.965V220.344H984.591V195.3Z" fill="#F2F2F2"/>
<path d="M967.516 206.092V201.151H963.271V206.092H967.162H967.516Z" fill="#3F3D56"/>
<path d="M967.162 210.044H963.271V214.984H967.516V210.044H967.162Z" fill="#3F3D56"/>
<path d="M974.59 201.151H970.346V206.092H974.59V201.151Z" fill="#3F3D56"/>
<path d="M974.59 210.044H970.346V214.984H974.59V210.044Z" fill="#3F3D56"/>
<path d="M1087.2 196.521L1086.03 193.799L1096.95 168.888H1125.01V172.699L1114.88 199.788L1103.18 203.055L1087.2 196.521Z" fill="#3F3D56"/>
<path d="M1125.01 168.888L1115.66 193.799L1114.1 195.977L1112.15 206.867L1115.66 218.843H1133.59V194.343L1125.01 168.888Z" fill="#CCCCCC"/>
<path d="M1115.66 193.799H1086.03V218.844H1115.66V193.799Z" fill="#F2F2F2"/>
<path d="M1098.58 204.592V199.651H1094.34V204.592H1098.23H1098.58Z" fill="#3F3D56"/>
<path d="M1098.23 208.544H1094.34V213.483H1098.58V208.544H1098.23Z" fill="#3F3D56"/>
<path d="M1105.66 199.651H1101.41V204.591H1105.66V199.651Z" fill="#3F3D56"/>
<path d="M1105.66 208.543H1101.41V213.483H1105.66V208.543Z" fill="#3F3D56"/>
<path d="M1177.02 262.63L1172.57 252.285L1214.06 157.608H1320.73V172.093L1282.21 275.046L1237.76 287.462L1177.02 262.63Z" fill="#3F3D56"/>
<path d="M1339.1 170.887V154.375H1325.13V164.585L1320.73 157.608L1285.17 252.284L1279.25 260.562L1271.84 301.947L1285.17 347.47H1353.33V254.353L1339.1 170.887Z" fill="#CCCCCC"/>
<path d="M1285.17 252.284H1172.57V347.471H1285.17V252.284Z" fill="#F2F2F2"/>
<path d="M1269.62 282.289H1245.91V311.259H1269.62V282.289Z" fill="#3F3D56"/>
<path d="M1236.28 281.254H1215.54V347.471H1236.28V281.254Z" fill="#CCCCCC"/>
<path d="M1191.84 291.601V281.254H1182.95V291.601H1191.09H1191.84Z" fill="#3F3D56"/>
<path d="M1191.09 299.878H1182.95V310.224H1191.84V299.878H1191.09Z" fill="#3F3D56"/>
<path d="M1206.65 281.254H1197.76V291.601H1206.65V281.254Z" fill="#3F3D56"/>
<path d="M1206.65 299.878H1197.76V310.224H1206.65V299.878Z" fill="#3F3D56"/>
<path d="M1317.03 292.636V282.289H1308.14V292.636H1316.29H1317.03Z" fill="#3F3D56"/>
<path d="M1316.29 300.912H1308.14V311.259H1317.03V300.912H1316.29Z" fill="#3F3D56"/>
<path d="M1331.84 282.289H1322.95V292.636H1331.84V282.289Z" fill="#3F3D56"/>
<path d="M1331.84 300.912H1322.95V311.259H1331.84V300.912Z" fill="#3F3D56"/>
<path d="M1218.27 198.022L1217.1 195.299L1228.01 170.388H1256.08V174.2L1245.95 201.289L1234.25 204.554L1218.27 198.022Z" fill="#3F3D56"/>
<path d="M1256.08 170.388L1246.73 195.299L1245.17 197.477L1243.22 208.366L1246.73 220.345H1264.66V195.844L1256.08 170.388Z" fill="#CCCCCC"/>
<path d="M1246.73 195.3H1217.1V220.344H1246.73V195.3Z" fill="#F2F2F2"/>
<path d="M1229.65 206.092V201.151H1225.41V206.092H1229.3H1229.65Z" fill="#3F3D56"/>
<path d="M1229.3 210.044H1225.41V214.984H1229.65V210.044H1229.3Z" fill="#3F3D56"/>
<path d="M1236.73 201.151H1232.48V206.092H1236.73V201.151Z" fill="#3F3D56"/>
<path d="M1236.73 210.044H1232.48V214.984H1236.73V210.044Z" fill="#3F3D56"/>
<path d="M1403.37 148.594H1399.79V346.443H1403.37V148.594Z" fill="#3F3D56"/>
<path d="M1438.37 206.174C1438.38 208.351 1438.36 210.517 1438.33 212.672C1437.04 290.556 1370.19 290.986 1368.39 213.122C1368.34 210.968 1368.31 208.802 1368.3 206.625C1368.01 119.567 1402.81 48.767 1402.81 48.767C1402.81 48.767 1438.08 119.116 1438.37 206.174Z" fill="#C4C4C4"/>
</g>
</svg>
