<svg width="119" height="280" viewBox="0 0 119 280" fill="none" xmlns="http://www.w3.org/2000/svg">
<path d="M74.2629 260.018L77.6017 258.135C77.6017 258.135 79.8118 267.506 77.3456 268.91C74.8795 270.313 65.6314 272.653 65.6314 275.461C65.6314 278.269 44.669 282.013 44.0525 277.801C43.436 273.589 45.9021 271.249 45.9021 271.249C45.9021 271.249 55.7668 263.762 56.9998 262.358C58.2329 260.954 61.3156 258.146 61.3156 258.146L74.2629 260.018Z" fill="#2F2E41"/>
<path d="M24.9399 143.495C24.9399 143.495 25.0324 143.907 25.1926 144.66C25.3407 145.329 25.5441 146.275 25.7907 147.44C28.3802 159.434 35.9328 194.742 35.4211 195.907C34.8045 197.311 30.4887 202.459 35.4211 203.862C35.8958 203.998 36.4075 204.438 36.9562 205.131C38.0153 206.622 38.8884 208.186 39.5642 209.801C42.5051 216.278 45.6495 226.643 47.4683 233.821C48.2636 236.976 48.8061 239.512 48.9664 240.841C49.0221 241.148 49.0284 241.459 48.9849 241.768C48.3684 243.639 52.6842 250.191 54.5338 252.063C56.3834 253.935 59.4661 255.806 58.8496 257.678C58.233 259.55 74.2631 264.698 76.1127 261.422C77.9623 258.146 77.9623 256.274 78.5788 255.339C79.1954 254.403 79.8119 247.851 76.7292 246.915C73.6465 245.979 75.4961 229.6 72.4134 226.325C71.3839 225.234 69.8117 221.542 68.1655 217.101C67.5182 215.36 66.8646 213.507 66.2234 211.649C63.6216 204.036 61.3157 196.375 61.3157 196.375L61.9323 141.623L28.0226 138.347L27.1533 139.803L25.4208 142.69L24.9399 143.495Z" fill="#412E2E"/>
<path d="M23.0902 233.344C23.0902 233.344 18.1579 229.601 15.6918 233.344C13.2256 237.088 10.7594 251.595 6.44366 254.871C2.12788 258.146 -3.42097 274.525 2.74443 275.461C8.90982 276.397 15.6918 274.057 16.3083 271.249C16.9248 268.442 29.8721 253.935 29.8721 252.531C29.8721 251.127 21.2406 245.979 21.2406 245.979L23.0902 233.344Z" fill="#2F2E41"/>
<path d="M98.9245 117.757C98.9245 117.757 90.9095 172.509 89.0599 177.656C87.2103 182.804 77.3456 202.459 74.2629 205.734C71.1802 209.01 51.451 235.684 48.9848 237.088C46.5187 238.492 41.5863 242.236 41.5863 242.236C41.5863 242.236 32.3382 249.255 31.1052 250.659C29.8721 252.063 19.3909 247.851 18.7744 245.043C18.1578 242.236 19.3909 237.556 20.0074 235.684C20.624 233.812 18.7744 231.004 20.624 229.601C22.4736 228.197 31.7217 221.177 31.7217 217.901C31.7217 214.626 47.7517 195.439 53.9171 191.227C60.0825 187.016 58.8494 179.996 58.8494 179.996V151.45L24.9398 143.495C24.9398 143.495 26.7894 121.033 31.1052 121.033C35.4209 121.033 92.1426 113.545 98.9245 117.757Z" fill="#412E2E"/>
<path d="M48.9847 39.6069C60.2214 39.6069 69.3305 32.6929 69.3305 24.164C69.3305 15.6352 60.2214 8.72119 48.9847 8.72119C37.748 8.72119 28.6389 15.6352 28.6389 24.164C28.6389 32.6929 37.748 39.6069 48.9847 39.6069Z" fill="#9F616A"/>
<path d="M55.7667 36.3311C55.7667 36.3311 58.2328 43.3506 61.3155 45.2224C64.3982 47.0943 53.3005 55.0497 53.3005 55.0497L32.3382 55.9856L28.6389 47.0943C28.6389 47.0943 35.4209 36.7991 33.5712 30.2476C31.7216 23.6961 55.7667 36.3311 55.7667 36.3311Z" fill="#9F616A"/>
<path d="M64.3984 44.2866C64.3984 44.2866 58.8496 44.7545 57.6165 46.1584C56.3834 47.5623 47.7519 51.774 40.9699 50.8381C34.188 49.9021 29.8722 48.4982 28.6391 48.9662C27.406 49.4342 24.9399 59.2614 24.9399 59.2614L31.7218 74.2363L30.4887 115.417L28.6391 126.648C28.6391 126.648 24.9399 122.905 39.7368 125.244C54.5338 127.584 73.6465 123.373 79.8119 122.905C85.9773 122.437 96.4585 121.033 97.0751 118.225C97.6916 115.417 95.2254 105.122 95.2254 105.122L85.3608 73.7683L79.1954 56.9216L64.3984 44.2866Z" fill="#C5BE24"/>
<path d="M58.5666 42.1744C58.5666 42.1744 63.7818 40.0748 65.6315 41.9467C67.4811 43.8185 90.9096 46.6263 90.9096 48.0302C90.9096 49.4341 95.8419 87.3392 94.6088 90.615C93.3757 93.8908 97.075 97.6345 97.075 97.6345L101.391 111.673C101.391 111.673 113.105 138.347 108.173 139.283C103.24 140.219 98.9246 139.283 97.075 139.283C95.2254 139.283 95.8419 121.501 90.9096 116.821C85.9773 112.141 79.1953 100.442 77.9623 98.1024C76.7292 95.7626 61.3157 63.4731 61.9322 59.7293C62.5487 55.9856 58.5666 42.1744 58.5666 42.1744Z" fill="#235571"/>
<path d="M32.9547 44.2866C32.9547 44.2866 28.0223 44.2866 27.4058 45.2225C26.7893 46.1584 20.6239 52.242 18.1577 53.6459C15.6915 55.0498 7.06 61.1333 7.06 62.5372C7.06 63.9411 24.9396 74.2363 24.9396 74.2363C24.9396 74.2363 32.3381 101.846 28.6389 111.205C24.9396 120.565 19.3908 143.027 21.8569 144.431C24.3231 145.835 29.872 146.303 29.872 144.431C29.872 142.559 33.5712 122.437 36.6539 118.225C39.7366 114.013 48.9847 87.3393 45.2855 79.8519C41.5862 72.3644 32.9547 44.2866 32.9547 44.2866Z" fill="#235571"/>
<path d="M114.338 90.615C114.338 90.615 114.955 105.122 108.173 112.609C101.391 120.097 97.0751 128.52 97.0751 128.52C97.0751 128.52 85.9773 126.18 84.1277 123.373C82.2781 120.565 70.5638 122.905 70.5638 121.969C70.5638 121.033 84.7443 116.353 85.9773 115.417C87.2104 114.481 91.5262 114.481 93.9924 112.609C96.4585 110.737 97.0751 106.526 97.0751 106.526L99.5412 94.3587L114.338 90.615Z" fill="#9F616A"/>
<path d="M62.9979 14.6424C64.5632 14.5345 66.1775 14.4157 67.5608 13.8495C70.6604 12.5807 71.4823 8.96761 69.1227 6.98339C68.4722 6.47852 67.7445 6.03441 66.9552 5.66049L62.2687 3.23931C60.1959 2.16848 58.0742 1.08009 55.6567 0.575284C53.4701 0.118705 51.1607 0.165626 48.8973 0.272414C44.5034 0.479699 40.0822 0.907882 35.9495 2.05935C31.8167 3.21083 27.9615 5.13722 25.4585 7.8861C21.4905 12.2439 21.436 18.1213 23.6214 23.1521C25.8069 28.183 29.9583 32.5639 34.0489 36.856L36.1713 28.9955C36.3604 28.2954 36.6049 27.5281 37.372 27.1137C39.2787 26.0839 41.6111 28.1984 43.9513 28.1847C45.4549 28.1758 46.7173 27.2371 47.2872 26.1809C47.857 25.1247 47.8945 23.9551 48.0263 22.8182C48.3056 20.4101 49.4145 17.0594 52.419 15.7313C55.2187 14.4938 59.851 14.8593 62.9979 14.6424Z" fill="#2F2E41"/>
<path opacity="0.1" d="M61.8566 143.873C61.8566 143.873 59.7742 189.59 58.5411 190.993C57.3081 192.397 58.5411 143.729 58.5411 143.729L61.8566 143.873Z" fill="black"/>
<path d="M85.9773 48.0303H90.9096C90.9096 48.0303 111.872 69.5566 109.406 70.9605C106.94 72.3644 109.406 76.1081 109.406 76.1081L114.338 83.1276C114.338 83.1276 120.504 87.3393 118.654 88.2752C116.804 89.2112 114.338 92.9549 114.338 92.9549C114.338 92.9549 102.007 91.551 98.3081 97.1665L90.3117 89.5043L85.9773 48.0303Z" fill="#235571"/>
<path d="M83.9036 56.1505L74.6126 59.0626C72.5046 59.7233 71.6516 61.832 72.7073 63.7726L81.9083 80.6846C82.9641 82.6252 85.5288 83.6627 87.6368 83.002L96.9279 80.0899C99.0359 79.4291 99.8889 77.3204 98.8332 75.3799L89.6321 58.4678C88.5764 56.5273 86.0116 55.4898 83.9036 56.1505Z" fill="#062A78" fill-opacity="0.8"/>
<path d="M85.7368 68.9947C87.6063 68.4088 88.5469 66.877 87.8377 65.5735C87.1285 64.27 85.0381 63.6883 83.1687 64.2743C81.2992 64.8602 80.3586 66.3919 81.0678 67.6954C81.7769 68.9989 83.8674 69.5807 85.7368 68.9947Z" fill="#6C63FF"/>
<path d="M73.6464 85.4673C73.6464 85.4673 29.2555 113.545 21.857 104.654C14.4585 95.7625 29.872 88.2751 29.872 88.2751C29.872 88.2751 43.4359 88.743 58.8494 81.2556L74.2629 76.108C74.2629 76.108 88.3342 60.8598 93.1293 66.6662C97.9244 72.4725 84.9442 82.578 73.6464 85.4673Z" fill="#9F616A"/>
<path d="M13.842 60.6652L7.06003 62.5371V76.576L4.59387 79.3838C4.59387 79.3838 5.21041 84.9994 7.06003 86.4033C8.90966 87.8072 12.6089 87.3392 11.3758 90.615C10.6347 92.7506 10.4256 94.9725 10.7593 97.1665C10.7593 97.1665 21.857 107.93 22.4735 106.526C23.0901 105.122 31.7216 87.8072 32.9547 87.8072C34.1878 87.8072 20.6239 60.6652 20.6239 60.6652H13.842Z" fill="#235571"/>
<path d="M94.9171 131.562C94.9171 131.562 101.292 126.882 98.1045 126.648C94.9171 126.414 83.8194 121.735 81.9698 124.074C80.1201 126.414 94.9171 131.562 94.9171 131.562Z" fill="#2F2E41"/>
</svg>
