<svg width="534" height="337" viewBox="0 0 534 337" fill="none" xmlns="http://www.w3.org/2000/svg">
<path d="M34.1572 319.964L11.0982 275.526L34.1679 324.805L34.1803 329.869C35.8254 329.845 37.4538 329.769 39.0657 329.639L37.1849 264.593L37.2096 264.091L37.1673 263.995L36.9882 257.848L61.0984 209.145L36.9633 253.245L36.8911 254.547L35.4703 205.403L56.1975 155.013L35.3083 196.768L34.3366 94.9049L34.3322 94.5659L34.3289 94.8995L33.8557 175.211L14.0498 143.077L33.8733 182.128L33.9652 226.116L15.5882 183.633L33.9753 232.583L34.0261 257.042L7.33186 197.89L34.0472 265.575L34.1572 319.964Z" fill="#D0CDE1"/>
<path d="M184.517 127.021H190.627V182.196H184.517V127.021Z" fill="#3F3D56"/>
<path d="M423.824 7.45901L426.25 14.761L187.536 133.125L185.11 125.823L423.824 7.45901Z" fill="#3F3D56"/>
<path d="M0.000915527 321.755C9.99731 342.071 534.794 340.366 533.999 321.753C524.003 301.438 -0.794189 303.143 0.000915527 321.755Z" fill="#D0CDE1"/>
<path d="M65.9862 238.992H122.197V266.58H65.9862V238.992Z" fill="#3F3D56"/>
<path d="M70.8741 261.712H348.261V292.544H70.8741V261.712Z" fill="#3F3D56"/>
<path d="M116.087 277.939H183.295V175.704H133.052L116.087 227.266V277.939Z" fill="#D0CDE1"/>
<path d="M144.192 182.195H173.519V216.274H144.192V182.195Z" fill="white"/>
<path d="M122.197 217.896H140.526V182.195H132.671L122.197 217.896Z" fill="white"/>
<path d="M164.966 235.747H171.076V250.352H164.966V235.747Z" fill="#3F3D56"/>
<path d="M135.638 204.914H135.333C133.794 204.914 132.317 205.684 131.229 207.053C130.14 208.423 129.529 210.28 129.529 212.217C129.529 214.154 130.14 216.011 131.229 217.38C132.317 218.75 133.794 219.519 135.333 219.519H135.638V204.914Z" fill="#3F3D56"/>
<path d="M375.144 261.712H374.839C373.299 261.712 371.823 262.567 370.734 264.088C369.646 265.61 369.034 267.674 369.034 269.826C369.034 271.977 369.646 274.041 370.734 275.563C371.823 277.085 373.299 277.939 374.839 277.939H375.144V261.712Z" fill="#3F3D56"/>
<path d="M90.6871 262.932C80.9867 262.932 72.2614 268.719 66.2071 277.939H53.7666L65.8612 236.448L122.197 222.765L120.605 277.939H115.167C109.113 268.719 100.387 262.932 90.6871 262.932Z" fill="#D0CDE1"/>
<path d="M89.8146 321.755C73.9551 321.755 61.0984 306.497 61.0984 287.676C61.0984 268.856 73.9551 253.598 89.8146 253.598C105.674 253.598 118.531 268.856 118.531 287.676C118.531 306.497 105.674 321.755 89.8146 321.755Z" fill="#3F3D56"/>
<path d="M89.8146 305.527C81.3787 305.527 74.54 297.535 74.54 287.676C74.54 277.817 81.3787 269.825 89.8146 269.825C98.2505 269.825 105.089 277.817 105.089 287.676C105.089 297.535 98.2505 305.527 89.8146 305.527Z" fill="#D0CDE1"/>
<path d="M343.373 321.754C329.876 321.754 318.934 308.313 318.934 291.733C318.934 275.153 329.876 261.712 343.373 261.712C356.87 261.712 367.812 275.153 367.812 291.733C367.812 308.313 356.87 321.754 343.373 321.754Z" fill="#3F3D56"/>
<path d="M343.373 307.149C336.624 307.149 331.153 300.247 331.153 291.733C331.153 283.219 336.624 276.316 343.373 276.316C350.122 276.316 355.593 283.219 355.593 291.733C355.593 300.247 350.122 307.149 343.373 307.149Z" fill="#D0CDE1"/>
<path d="M180.851 162.722H194.293V281.185H180.851V162.722Z" fill="#3F3D56"/>
<path d="M180.851 258.466H376.366V266.58H180.851V258.466Z" fill="#3F3D56"/>
<path d="M267.543 214.737L480.003 285.349L478.478 292.193L266.018 221.581L267.543 214.737Z" fill="#3F3D56"/>
<path d="M282.045 223.34L285.683 226.606L263.333 263.76L259.694 260.494L282.045 223.34Z" fill="#3F3D56"/>
<path d="M131.973 217.897H138.082V222.765H131.973V217.897Z" fill="#3F3D56"/>
<path d="M188.817 242.238H271.865C272.017 242.238 272.165 242.168 272.28 242.04C272.395 241.913 272.47 241.736 272.492 241.543C272.514 241.35 272.481 241.154 272.399 240.989C272.317 240.825 272.191 240.704 272.045 240.649L190.899 209.816C190.809 209.782 190.713 209.774 190.62 209.792C190.527 209.811 190.438 209.857 190.36 209.925C190.282 209.993 190.217 210.083 190.17 210.188C190.123 210.293 190.094 210.409 190.087 210.53L188.185 241.363C188.178 241.474 188.189 241.587 188.218 241.692C188.247 241.798 188.292 241.895 188.352 241.977C188.411 242.06 188.483 242.125 188.563 242.17C188.643 242.215 188.73 242.238 188.817 242.238ZM267.502 240.615H189.503L191.289 211.657L267.502 240.615Z" fill="#3F3D56"/>
<path d="M417.328 208.16H417.334L435.612 207.944C435.701 207.943 435.789 207.919 435.87 207.872C435.951 207.826 436.024 207.759 436.083 207.675C436.142 207.592 436.186 207.493 436.213 207.387C436.24 207.28 436.249 207.168 436.238 207.057L426.742 103.385C426.724 103.191 426.649 103.012 426.533 102.881C426.416 102.751 426.265 102.679 426.109 102.679H426.106C425.949 102.68 425.798 102.753 425.682 102.885C425.566 103.016 425.492 103.197 425.476 103.392L416.695 207.28C416.685 207.391 416.695 207.503 416.722 207.609C416.75 207.715 416.795 207.813 416.855 207.896C416.914 207.979 416.987 208.045 417.069 208.091C417.15 208.136 417.239 208.16 417.328 208.16ZM434.893 206.36L418.036 206.558L426.134 110.75L434.893 206.36Z" fill="#3F3D56"/>
<path d="M61.2427 250.743L61.5444 250.883C63.0646 251.585 64.751 251.521 66.2325 250.704C67.7141 249.888 68.8694 248.386 69.4443 246.529C70.0193 244.671 69.9668 242.611 69.2984 240.801C68.63 238.992 67.4005 237.58 65.8803 236.878L65.5786 236.738L61.2427 250.743Z" fill="#3F3D56"/>
<path d="M453.631 255.339L471.626 261.492L470.827 264.982L452.832 258.829L453.631 255.339Z" fill="#3F3D56"/>
<path d="M323.822 211.512L327.278 213.812L467.705 261.712L469.789 258.556C473.402 253.155 475.711 246.636 476.459 239.728C476.989 234.569 476.601 229.133 473.649 225.823L479.011 173.114L401.348 146.494L364.512 165.81C364.512 165.81 350.403 160.672 340.019 169.738C336.733 172.61 333.818 176.905 331.847 183.245L330.149 189.222L323.822 211.512Z" fill="#6C63FF"/>
<path d="M354.982 243.861C345.196 243.861 337.263 233.689 337.263 221.142C337.263 208.595 345.196 198.423 354.982 198.423C364.767 198.423 372.7 208.595 372.7 221.142C372.7 233.689 364.767 243.861 354.982 243.861Z" fill="#3F3D56"/>
<path d="M354.371 234.124C348.972 234.124 344.595 228.675 344.595 221.953C344.595 215.232 348.972 209.782 354.371 209.782C359.77 209.782 364.146 215.232 364.146 221.953C364.146 228.675 359.77 234.124 354.371 234.124Z" fill="#D0CDE1"/>
<path d="M440.519 273.071C430.734 273.071 422.801 263.262 422.801 251.163C422.801 239.064 430.734 229.256 440.519 229.256C450.305 229.256 458.238 239.064 458.238 251.163C458.238 263.262 450.305 273.071 440.519 273.071Z" fill="#3F3D56"/>
<path d="M440.519 261.711C435.458 261.711 431.355 256.626 431.355 250.352C431.355 244.078 435.458 238.992 440.519 238.992C445.581 238.992 449.684 244.078 449.684 250.352C449.684 256.626 445.581 261.711 440.519 261.711Z" fill="#D0CDE1"/>
<path d="M377.588 166.497L432.812 185.441L437.465 165.068L402.245 152.986L377.588 166.497Z" fill="white"/>
<path d="M444.565 167.202L466.844 174.82L462.127 195.407L439.848 187.789L444.565 167.202Z" fill="white"/>
<path d="M426.619 199.821L429.475 200.798L427.956 207.428L425.1 206.451L426.619 199.821Z" fill="#3F3D56"/>
<path d="M380.85 177.775L381.649 174.285L387.076 176.141L386.277 179.63L380.85 177.775Z" fill="#3F3D56"/>
<path d="M388.067 162.408L387.753 162.3C386.169 161.759 384.475 162.008 383.042 162.993C381.609 163.978 380.555 165.618 380.112 167.552C379.669 169.486 379.873 171.556 380.679 173.306C381.485 175.057 382.828 176.344 384.411 176.885L384.725 176.993L388.067 162.408Z" fill="#3F3D56"/>
<path d="M329.931 189.512C332.074 190.487 334.45 190.571 336.642 189.75C338.833 188.928 340.7 187.254 341.912 185.022C343.124 182.79 343.605 180.144 343.269 177.549C342.932 174.954 341.802 172.577 340.075 170.836C336.697 173.59 333.702 177.707 331.676 183.783L329.931 189.512Z" fill="#3F3D56"/>
<path d="M422.801 6.9353H430.133V122.152H422.801V6.9353Z" fill="#3F3D56"/>
<path d="M427.078 23.1632C422.016 23.1632 417.913 18.0774 417.913 11.8038C417.913 5.53013 422.016 0.444336 427.078 0.444336C432.139 0.444336 436.243 5.53013 436.243 11.8038C436.243 18.0774 432.139 23.1632 427.078 23.1632Z" fill="#3F3D56"/>
<path d="M187.572 138.381C182.511 138.381 178.407 133.658 178.407 127.832C178.407 122.007 182.511 117.284 187.572 117.284C192.634 117.284 196.737 122.007 196.737 127.832C196.737 133.658 192.634 138.381 187.572 138.381Z" fill="#3F3D56"/>
</svg>
