<svg width="354" height="374" viewBox="0 0 354 374" fill="none" xmlns="http://www.w3.org/2000/svg">
<g clip-path="url(#clip0)">
<path d="M173.494 197.074L183.58 195.803L146.959 15.4983L136.115 17.004L173.494 197.074Z" fill="url(#paint0_linear)"/>
<path d="M148.116 42.018L180.798 195.7L176.361 196.493L143.68 42.8101L148.116 42.018Z" fill="#263238"/>
<path d="M146.988 42.9815L142.189 19.0822" stroke="#263238" stroke-width="8" stroke-miterlimit="10"/>
<path d="M8.27736 99.5053C163.094 -29.3393 303.735 57.3243 303.735 57.3243L8.27736 99.5053Z" fill="url(#paint1_linear)"/>
<path d="M17.6613 95.6843C161.812 -24.2029 292.849 56.5375 292.849 56.5375L17.6613 95.6843Z" fill="#6C63FF"/>
<path d="M311.683 176.383L298.693 196.26L285.084 217.085L272.095 236.961L258.486 257.786L245.496 277.662L231.882 298.486L218.892 318.363L205.284 339.188L192.294 359.064L179.922 377.996L53.7874 306.909L66.1591 287.977L79.1488 268.1L92.7576 247.275L105.747 227.399L119.361 206.575L132.351 186.699L145.959 165.878L158.95 145.997L172.557 125.177L185.547 105.3L311.683 176.383Z" fill="url(#paint2_linear)"/>
<path d="M185.86 109.372L306.625 177.434L179.243 372.339L58.4774 304.277L185.86 109.372Z" fill="#6C63FF"/>
<path opacity="0.5" d="M185.86 109.376L306.626 177.438L294.068 196.652L173.303 128.59L185.86 109.376Z" fill="white"/>
<path opacity="0.5" d="M160.146 148.721L280.911 216.783L268.354 235.997L147.588 167.935L160.146 148.721Z" fill="white"/>
<path opacity="0.5" d="M134.434 188.066L255.199 256.128L242.642 275.342L121.876 207.28L134.434 188.066Z" fill="white"/>
<path opacity="0.5" d="M108.719 227.412L229.485 295.474L216.927 314.688L96.1617 246.625L108.719 227.412Z" fill="white"/>
<path opacity="0.5" d="M83.0047 266.757L203.77 334.819L191.213 354.033L70.4472 285.971L83.0047 266.757Z" fill="white"/>
<path d="M191.734 207.181C191.734 207.181 173.071 171.583 194.089 167.759C215.106 163.935 233.917 173.302 233.917 173.302L230.627 178.333C230.627 178.333 180.899 171.594 205.844 203.177L191.734 207.181Z" fill="#FFE0D6"/>
<path d="M229.355 228.381C229.355 228.381 271.979 227.333 265.925 208.243C259.871 189.153 242.22 177.99 242.22 177.99L238.93 183.021C238.93 183.021 268.324 220.872 226.632 214.923L229.355 228.381Z" fill="#FFE0D6"/>
<path opacity="0.2" d="M264.359 207.364C259.362 191.636 246.504 181.281 242.153 178.133L242.241 177.995C242.241 177.995 259.86 189.175 265.92 208.242C271.979 227.309 229.349 228.38 229.349 228.38L229.161 227.443C236.4 227.054 269.743 224.368 264.359 207.364Z" fill="black"/>
<path opacity="0.2" d="M195.648 168.641C212.98 165.498 228.81 171.309 233.824 173.439L233.911 173.3C233.911 173.3 215.092 163.947 194.083 167.758C173.074 171.569 191.729 207.18 191.729 207.18L192.711 206.911C189.74 200.727 176.903 172.039 195.648 168.641Z" fill="black"/>
<path d="M216.55 208.588C201.024 199.838 195.668 181.683 204.586 168.037C213.505 154.391 233.32 150.422 248.846 159.172C264.371 167.922 269.727 186.078 260.809 199.723C251.891 213.369 232.075 217.338 216.55 208.588Z" fill="#FF7185"/>
<path d="M183.359 259.377C193.955 265.346 201.64 271.768 207.677 262.468L227.423 232.292C230.339 227.799 231.115 222.354 229.579 217.149C228.044 211.943 224.323 207.4 219.228 204.51C214.116 201.647 208.058 200.678 202.376 201.816C196.695 202.953 191.852 206.105 188.905 210.582L169.159 240.758C163.097 250.051 172.772 253.39 183.359 259.377Z" fill="#FF8976"/>
<g opacity="0.2">
<path opacity="0.2" d="M181.799 258.494L182.578 258.938C179.959 257.487 177.422 256.18 175.196 254.894C177.251 256.031 179.503 257.203 181.799 258.494Z" fill="black"/>
<path opacity="0.2" d="M206.143 261.572L225.889 231.396C228.732 227.016 229.545 221.729 228.156 216.635C226.768 211.541 223.287 207.032 218.436 204.049C218.704 204.185 218.966 204.325 219.231 204.471C224.327 207.36 228.05 211.904 229.586 217.109C231.123 222.315 230.348 227.76 227.431 232.254L207.685 262.43C202.919 269.721 197.186 267.365 189.831 263.135C196.453 266.818 201.719 268.341 206.143 261.572Z" fill="black"/>
</g>
<path d="M167.541 243.242C167.541 243.242 136.687 257.402 132.482 274.885C131.823 277.752 130.954 280.567 129.881 283.312L121.228 307.619L132.457 313.322L144.332 283.101C144.998 281.409 146.131 279.917 147.628 278.761L160.652 268.672C162.053 267.587 163.819 266.949 165.697 266.849C167.575 266.749 169.469 267.193 171.108 268.115C172.219 268.742 173.18 269.571 173.925 270.546C174.671 271.521 175.184 272.62 175.43 273.768C175.675 274.916 175.648 276.087 175.349 277.2C175.051 278.314 174.488 279.345 173.699 280.223L159.141 296.43L140.562 333.543L151.516 339.714C151.516 339.714 168.416 311.674 179.99 299.417C191.564 287.161 205.801 264.819 205.801 264.819L167.541 243.242Z" fill="#5CAADE"/>
<path d="M223.289 197.359L224.161 197.851C226.22 199.011 226.93 201.42 225.747 203.23L221.062 210.399C219.879 212.209 217.25 212.735 215.191 211.575L214.319 211.084C212.26 209.923 211.549 207.515 212.732 205.705L217.418 198.535C218.601 196.725 221.23 196.199 223.289 197.359Z" fill="#FFE0D6"/>
<path opacity="0.2" d="M226.061 202.762C226.061 202.762 221.078 203.226 217.833 198.155L226.061 202.762Z" fill="black"/>
<path d="M221.634 200.808C210.997 194.813 207.328 182.375 213.438 173.026C219.548 163.677 233.124 160.957 243.761 166.952C254.398 172.947 258.068 185.386 251.957 194.735C245.847 204.084 232.271 206.803 221.634 200.808Z" fill="#FFE0D6"/>
<path d="M256.175 175.206C256.175 175.206 250.625 190.233 217.697 165.414L233.506 158.651L246.455 162.817L256.175 175.206Z" fill="#FF7185"/>
<path d="M221.587 188.893C220.926 189.901 222.66 192.616 225.817 194.405C228.974 196.194 232.375 196.356 233.037 195.343C233.699 194.329 231.371 192.525 228.206 190.749C225.04 188.973 222.243 187.903 221.587 188.893Z" fill="white"/>
<path opacity="0.1" d="M229.589 185.259L232.819 187.08C233.076 187.225 233.165 187.526 233.017 187.752L232.956 187.846C232.808 188.073 232.479 188.138 232.222 187.993L228.992 186.173C228.734 186.028 228.645 185.727 228.793 185.501L228.855 185.406C229.003 185.18 229.331 185.114 229.589 185.259Z" fill="black"/>
<path d="M243.942 185.204C243.368 184.881 243.17 184.209 243.5 183.705C243.829 183.2 244.562 183.054 245.136 183.377C245.71 183.701 245.908 184.372 245.578 184.876C245.249 185.381 244.516 185.528 243.942 185.204Z" fill="#383F4D"/>
<path d="M226.24 175.228C225.666 174.904 225.468 174.233 225.798 173.729C226.127 173.224 226.86 173.077 227.434 173.401C228.008 173.724 228.206 174.396 227.876 174.9C227.547 175.405 226.814 175.551 226.24 175.228Z" fill="#383F4D"/>
<path d="M251.572 185.498L248.934 189.538C248.651 189.969 248.187 190.272 247.643 190.384C247.098 190.495 246.516 190.406 246.023 190.135L238.301 185.785C237.812 185.508 237.453 185.072 237.303 184.573C237.153 184.074 237.224 183.551 237.499 183.117L240.138 179.077C240.42 178.647 240.884 178.343 241.429 178.231C241.974 178.12 242.556 178.209 243.049 178.48L250.771 182.83C251.26 183.107 251.618 183.543 251.768 184.042C251.918 184.541 251.848 185.064 251.572 185.498ZM239.747 185.698L245.388 188.876C245.881 189.147 246.463 189.236 247.008 189.125C247.553 189.013 248.017 188.71 248.299 188.279L250.07 185.567C250.346 185.133 250.416 184.61 250.266 184.111C250.116 183.612 249.758 183.176 249.268 182.899L243.627 179.721C243.134 179.45 242.552 179.36 242.007 179.472C241.462 179.584 240.998 179.887 240.716 180.317L238.945 183.03C238.669 183.465 238.6 183.989 238.752 184.489C238.904 184.989 239.265 185.424 239.757 185.7L239.747 185.698Z" fill="#E75F7E"/>
<path opacity="0.2" d="M243.617 179.388L249.648 182.787C250.57 183.306 250.888 184.384 250.359 185.194L248.091 188.664C247.561 189.474 246.385 189.71 245.464 189.19L239.432 185.791C238.51 185.271 238.193 184.194 238.722 183.384L240.99 179.914C241.519 179.104 242.695 178.868 243.617 179.388Z" fill="#E75F7E"/>
<path d="M239.047 181.44L239.637 181.289C239.615 181.239 237.114 175.969 231.985 176.995L232.139 177.527C236.718 176.602 238.973 181.254 239.047 181.44Z" fill="#E75F7E"/>
<path d="M212.231 176.608C211.279 176.308 211.047 174.458 211.713 172.477C212.38 170.495 213.692 169.132 214.645 169.433C215.598 169.733 215.83 171.583 215.163 173.564C214.496 175.546 213.184 176.909 212.231 176.608Z" fill="#FFE0D6"/>
<path d="M249.09 197.385C248.363 196.739 249.059 195.029 250.644 193.565C252.23 192.101 254.104 191.438 254.83 192.084C255.557 192.731 254.861 194.441 253.276 195.905C251.69 197.369 249.816 198.031 249.09 197.385Z" fill="#FFE0D6"/>
<path opacity="0.2" d="M255.447 174.278L256.175 175.206C256.175 175.206 250.625 190.233 217.697 165.414L219.279 164.738C245.257 183.767 253.404 177.136 255.447 174.278Z" fill="white"/>
<path d="M233.883 175.528L231.245 179.568C230.962 179.998 230.498 180.302 229.954 180.413C229.409 180.525 228.827 180.436 228.334 180.165L220.612 175.814C220.123 175.537 219.764 175.102 219.614 174.603C219.464 174.104 219.535 173.58 219.81 173.147L222.432 169.082C222.715 168.652 223.179 168.349 223.723 168.237C224.268 168.125 224.85 168.215 225.343 168.486L233.065 172.836C233.312 172.972 233.529 173.15 233.704 173.359C233.879 173.569 234.008 173.805 234.085 174.055C234.161 174.305 234.182 174.564 234.147 174.817C234.113 175.07 234.023 175.311 233.883 175.528ZM222.058 175.727L227.699 178.906C228.192 179.177 228.774 179.266 229.319 179.154C229.864 179.043 230.328 178.739 230.61 178.309L232.381 175.597C232.657 175.163 232.727 174.64 232.577 174.141C232.427 173.641 232.069 173.206 231.579 172.929L225.938 169.751C225.445 169.479 224.863 169.39 224.318 169.502C223.773 169.613 223.309 169.917 223.027 170.347L221.256 173.059C220.98 173.494 220.91 174.018 221.062 174.517C221.213 175.017 221.572 175.452 222.063 175.728L222.058 175.727Z" fill="#E75F7E"/>
<path opacity="0.2" d="M225.915 169.411L231.947 172.811C232.868 173.33 233.186 174.408 232.657 175.218L230.389 178.688C229.86 179.498 228.683 179.733 227.762 179.214L221.73 175.815C220.809 175.295 220.491 174.217 221.02 173.407L223.288 169.937C223.817 169.127 224.994 168.892 225.915 169.411Z" fill="#E75F7E"/>
<g opacity="0.2">
<path opacity="0.2" d="M177.895 298.262C189.469 286.005 203.706 263.663 203.706 263.663L205.786 264.835C205.786 264.835 191.55 287.173 179.975 299.434C168.4 311.695 151.516 339.714 151.516 339.714L149.436 338.542C149.436 338.542 166.33 310.501 177.895 298.262Z" fill="black"/>
</g>
<path d="M151.516 339.714L145.519 348.844L128.33 343.537C128.33 343.537 126.7 339.491 131.32 338.963C135.94 338.435 140.57 333.53 140.57 333.53L151.516 339.714Z" fill="#FFFAFA"/>
<path d="M133.411 310.734L132.395 320.223L114.636 321.541C114.636 321.541 111.376 318.353 115.275 316.173C119.174 313.994 121.117 307.712 121.117 307.712L133.411 310.734Z" fill="#FFFAFA"/>
<path opacity="0.2" d="M150.47 339.13L151.51 339.718L145.519 348.845L128.33 343.537C128.33 343.537 128.284 343.427 128.233 343.242L144.48 348.256L150.47 339.13Z" fill="black"/>
<path opacity="0.1" d="M15.6498 196.673C14.1864 171.844 83.2579 148.398 169.925 144.305C256.593 140.212 328.037 157.022 329.501 181.852C330.964 206.681 261.893 230.128 175.225 234.221C88.5575 238.313 17.1132 221.503 15.6498 196.673Z" fill="black"/>
</g>
<defs>
<linearGradient id="paint0_linear" x1="123.549" y1="176.403" x2="184.76" y2="33.222" gradientUnits="userSpaceOnUse">
<stop stop-color="#808080" stop-opacity="0.25"/>
<stop offset="0.54" stop-color="#808080" stop-opacity="0.12"/>
<stop offset="1" stop-color="#808080" stop-opacity="0.1"/>
</linearGradient>
<linearGradient id="paint1_linear" x1="-188209" y1="-54016.6" x2="-180156" y2="-72852.2" gradientUnits="userSpaceOnUse">
<stop stop-color="#808080" stop-opacity="0.25"/>
<stop offset="0.54" stop-color="#808080" stop-opacity="0.12"/>
<stop offset="1" stop-color="#808080" stop-opacity="0.1"/>
</linearGradient>
<linearGradient id="paint2_linear" x1="-216447" y1="134536" x2="-151321" y2="18978.8" gradientUnits="userSpaceOnUse">
<stop stop-color="#808080" stop-opacity="0.25"/>
<stop offset="0.54" stop-color="#808080" stop-opacity="0.12"/>
<stop offset="1" stop-color="#808080" stop-opacity="0.1"/>
</linearGradient>
<clipPath id="clip0">
<rect width="354" height="374" transform="matrix(-1 0 0 1 354 0)" fill="white"/>
</clipPath>
</defs>
</svg>
