<svg width="55" height="50" viewBox="0 0 55 50" fill="none" xmlns="http://www.w3.org/2000/svg">
<path d="M46.4022 42.513C46.3033 36.7519 44.329 31.5134 40.8188 27.7206C37.329 23.951 32.5994 21.875 27.4999 21.875C22.4003 21.875 17.6708 23.951 14.1809 27.7206C10.674 31.5094 8.70103 36.7405 8.5979 42.4945C10.5809 43.3976 18.7869 46.875 27.4999 46.875C36.9216 46.875 44.5633 43.418 46.4022 42.513Z" fill="white"/>
<path d="M27.5 20.3125C32.7208 20.3125 36.9531 16.4649 36.9531 11.7188C36.9531 6.97255 32.7208 3.125 27.5 3.125C22.2792 3.125 18.0469 6.97255 18.0469 11.7188C18.0469 16.4649 22.2792 20.3125 27.5 20.3125Z" fill="white"/>
</svg>
